<svg width="73" height="59" viewBox="0 0 73 59" fill="none" xmlns="http://www.w3.org/2000/svg">
<path d="M71.4251 55.293C71.4251 55.293 71.0006 -4.11068 20.3068 2.47802C-17.683 7.41557 10.658 21.5984 37.3238 34.8148C52.1014 42.1391 65.3522 50.4268 69.4391 53.0386L69.9368 53.4485L70.3976 53.9424L71.4251 55.293Z" fill="#DFD1A6"/>
<path d="M71.4251 55.293C71.4251 55.293 71.0006 -4.11068 20.3068 2.47802C-17.683 7.41557 10.658 21.5984 37.3238 34.8148C52.1014 42.1391 65.3522 50.4268 69.4391 53.0386M71.4251 55.293C71.4251 55.293 70.2786 53.5751 69.4391 53.0386M71.4251 55.293L70.3976 53.9424L69.9368 53.4485L69.4391 53.0386M60.2667 38.9226C54.4619 29.6745 37.0517 11.406 13.8489 12.3165" stroke="#DDC479" stroke-width="2" stroke-linecap="round"/>
</svg>
