<svg width="1099" height="925" viewBox="0 0 1099 925" fill="none" xmlns="http://www.w3.org/2000/svg">
<path d="M3 861.538C21.7438 779.564 93.1712 649.777 228.93 786.424C398.629 957.232 75.7997 960.318 161.151 831.184C246.503 702.049 410.678 483.394 691.836 381.012C916.762 299.106 969.312 122.571 967.471 44.5409C964.961 12.1285 925.9 -29.9561 843.962 44.5409C741.541 137.662 1024.8 -0.332268 999.603 129.43C980.525 227.696 965.751 273.55 989.06 341.397C1023.7 442.235 1053.16 484.08 1096 567.254" stroke="#DFD1A6" stroke-width="5" stroke-linecap="round"/>
<path d="M622.746 441.97C622.746 441.97 674.07 412.056 694.241 459.029C709.356 494.23 682.708 477.076 657.746 460.871C643.912 451.89 630.028 444.714 625.698 442.529M622.746 441.97C622.746 441.97 624.808 442.08 625.698 442.529M622.746 441.97L624.432 442.165L625.091 442.31L625.698 442.529M642.518 443.226C653.433 443.506 678.024 449.173 689.068 469.6" stroke="#DDC479" stroke-opacity="0.45" stroke-width="2" stroke-linecap="round"/>
<path d="M815.03 240.034C815.03 240.034 815.469 282.193 779.414 278.15C752.394 275.12 772.329 264.702 791.086 254.991C801.481 249.609 812.162 241.939 815.03 240.034Z" fill="#DFD1A6"/>
<path d="M807.316 251.79C803.312 258.425 791.185 271.606 774.709 271.249M815.03 240.034C815.03 240.034 815.469 282.193 779.414 278.15C752.394 275.12 772.329 264.702 791.086 254.991C801.481 249.609 812.162 241.939 815.03 240.034Z" stroke="#DDC479" stroke-width="1.41945" stroke-linecap="round"/>
</svg>
