<svg width="87" height="36" viewBox="0 0 87 36" fill="none" xmlns="http://www.w3.org/2000/svg">
<path d="M2.69987 28.9705C2.69987 28.9705 36.2801 -20.0331 74.6158 13.7848C103.344 39.1278 71.9186 35.0313 42.422 31.0708C26.0755 28.876 10.4558 28.3337 5.60711 28.2127L4.96528 28.2741L4.30709 28.4257L2.69987 28.9705Z" fill="#DFD1A6"/>
<path d="M2.69987 28.9705C2.69987 28.9705 36.2801 -20.0331 74.6158 13.7848C103.344 39.1278 71.9186 35.0313 42.422 31.0708C26.0755 28.876 10.4558 28.3337 5.60711 28.2127M2.69987 28.9705C2.69987 28.9705 4.61117 28.1878 5.60711 28.2127M2.69987 28.9705L4.30709 28.4257L4.96528 28.2741L5.60711 28.2127M21.1064 21.6423C31.0911 17.2233 55.7416 11.8188 74.4656 25.5524" stroke="#DDC479" stroke-width="2" stroke-linecap="round"/>
</svg>
