<svg width="104" height="66" viewBox="0 0 104 66" fill="none" xmlns="http://www.w3.org/2000/svg">
<path d="M20.7583 18.4911C20.7583 18.4911 65.002 -21.1507 94.224 20.794C116.123 52.2271 86.565 40.7946 58.8491 29.9518C43.4895 23.9429 28.444 19.7119 23.7623 18.4444L23.1243 18.3518L22.4489 18.343L20.7583 18.4911Z" fill="#DFD1A6"/>
<path d="M20.7583 18.4911C20.7583 18.4911 65.002 -21.1507 94.224 20.794C116.123 52.2271 86.565 40.7946 58.8491 29.9518C43.4895 23.9429 28.444 19.7119 23.7623 18.4444M20.7583 18.4911C20.7583 18.4911 22.8007 18.184 23.7623 18.4444M20.7583 18.4911L22.4489 18.343L23.1243 18.3518L23.7623 18.4444M40.3776 15.7372C51.1255 13.8123 76.3545 14.408 91.2873 32.1903" stroke="#DDC479" stroke-width="2" stroke-linecap="round"/>
<path d="M17.2128 29.8764C21.8676 33.8636 30.533 45.0575 27.9562 57.9348M9.05174 22.3254C9.05174 22.3254 42.2361 27.3624 34.0339 55.1253C27.8872 75.9306 22.4808 58.9658 17.4656 43.0141C14.6862 34.174 10.1482 24.8175 9.05174 22.3254Z" stroke="#DDC479" stroke-width="1.41945" stroke-linecap="round"/>
</svg>
