<svg width="931" height="160" viewBox="0 0 931 160" fill="none" xmlns="http://www.w3.org/2000/svg">
<path d="M874.018 89.3188C876.377 95.1985 883.864 105.504 894.933 99.6898" stroke="#DFD1A6" stroke-width="5" stroke-linecap="round"/>
<path d="M3 3C75.5 44 43.8311 54.5335 37 49.5C27.5 42.5 37.2036 24.3449 57.5 37.5C84.5 55 117 151.5 260 119C403 86.5 479.219 120.5 461 147C444.5 171 404.06 150 443.06 119C515.88 61.1171 608 119 669.5 119C734.141 119 815.5 78 822 62.5C828.5 47 805 41 802.5 55.5C801.056 63.8764 810.5 64 813 59.5" stroke="#DFD1A6" stroke-width="5" stroke-linecap="round"/>
<path d="M893.846 75.2837C902.215 71.3568 920.864 65.399 928.501 72.9833" stroke="#DFD1A6" stroke-width="5" stroke-linecap="round"/>
</svg>
