<svg width="43" height="47" viewBox="0 0 43 47" fill="none" xmlns="http://www.w3.org/2000/svg">
<path d="M8.58692 14.7252C-5.62872 7.49975 3.59535 0.35078 8.46653 1.04705C8.51571 1.05408 8.53297 1.11357 8.496 1.14675C5.56675 3.7761 1.61098 10.0382 8.58692 14.7252Z" fill="#208553"/>
<path d="M28.7532 45.7058C43.4374 48.6427 52.8352 28.868 18.3764 18.4912C14.2927 17.2614 11.0795 15.9922 8.58692 14.7252M8.58692 14.7252C-5.62872 7.49975 3.59535 0.35078 8.46653 1.04705C8.51571 1.05408 8.53297 1.11357 8.496 1.14675C5.56675 3.7761 1.61098 10.0382 8.58692 14.7252Z" stroke="#208553" stroke-width="0.391577" stroke-linecap="round"/>
<path d="M19.1594 33.1753L24.4457 16.1417C22.6836 15.7501 19.8251 13.988 22.4878 10.0723" stroke="white" stroke-width="1.18184" stroke-linecap="round"/>
<path d="M24.4458 16.1419C26.2732 17.0555 29.967 17.5907 30.1237 12.4219" stroke="white" stroke-width="1.18184" stroke-linecap="round"/>
<path d="M24.6416 15.946L26.0121 11.8345" stroke="white" stroke-width="1.18184" stroke-linecap="round"/>
<path d="M39.4537 38.3277C40.4704 34.0966 37.3914 31.3017 35.5677 29.4288C35.4372 29.2948 35.1967 29.2975 35.034 29.39C34.0603 29.9435 31.1066 30.7475 29.2912 33.6004C27.6366 36.2004 28.2262 39.2141 31.6549 43.0551L32.1581 43.8099C32.2129 43.8921 32.305 43.9428 32.4034 43.9342C34.1894 43.7788 38.7761 41.1475 39.4537 38.3277Z" fill="#F8DC85" stroke="#F8DC85" stroke-width="0.590921" stroke-linecap="round"/>
<path d="M31.9496 41.8018C32.7375 41.5063 34.5496 41.2699 35.4951 42.6881" stroke="#FFEDBA" stroke-width="0.29546" stroke-linecap="round"/>
<path d="M30.7678 39.9548C31.8512 39.6594 34.6088 39.6003 36.9725 41.7276" stroke="#FFEDBA" stroke-width="0.29546" stroke-linecap="round"/>
<path d="M28.995 38.668C30.1768 38.0771 33.2496 37.368 36.086 39.2589" stroke="#FFEDBA" stroke-width="0.29546" stroke-linecap="round"/>
<path d="M31.6542 36.2596C33.23 36.1611 37.0316 36.4959 39.6316 38.6233" stroke="#FFEDBA" stroke-width="0.29546" stroke-linecap="round"/>
<path d="M28.4041 35.3731C29.9798 34.6836 33.9587 33.7185 37.2679 35.3731" stroke="#FFEDBA" stroke-width="0.29546" stroke-linecap="round"/>
<path d="M28.995 33.8959C30.0455 33.5213 32.6981 32.9408 34.9042 33.615" stroke="#FFEDBA" stroke-width="0.29546" stroke-linecap="round"/>
<path d="M31.6542 32.123C32.836 31.6305 35.8497 31.0593 38.4498 32.7139" stroke="#FFEDBA" stroke-width="0.29546" stroke-linecap="round"/>
<path d="M34.6088 30.3504C34.9042 30.1534 35.7315 29.8776 36.677 30.3504" stroke="#FFEDBA" stroke-width="0.29546" stroke-linecap="round"/>
<path d="M5.94912 2.5769C3.28995 2.87236 1.81266 6.41789 3.69771 10.2589" stroke="#FFEDBA" stroke-width="0.118184" stroke-linecap="round"/>
</svg>
