<svg width="235" height="185" viewBox="0 0 235 185" fill="none" xmlns="http://www.w3.org/2000/svg">
<path d="M124.38 51C56.3799 31.8 15.0461 43.5 2.8794 57.5C2.87943 128.5 -8.12061 201 12.8794 165.5C49.0613 104.335 186.38 196.5 219.88 183.5C246.68 173.1 231.046 66.8333 219.88 15C216.38 35 192.38 70.2 124.38 51Z" fill="white"/>
<path d="M67.066 33.5285C56.7576 34.1839 52.6646 40.9019 51.9066 44.179C48.2684 67.7739 56.4544 73.1264 61.0022 72.8534C64.0341 72.198 65.2974 66.5723 65.55 63.8414C74.0393 65.8077 75.6563 60.2913 75.4036 57.2873C83.2864 61.2198 86.7731 54.0102 87.5311 49.9139C93.5948 53.1909 99.6585 46.9099 101.932 43.3597C108.603 47.2922 115.828 39.5365 118.608 35.167C121.64 36.5325 127.552 37.9525 126.945 32.7092C126.339 27.4659 129.725 20.6933 131.493 17.9624C132.706 13.3745 139.578 13.3199 142.863 13.8661C141.347 10.589 137.102 3.37945 132.251 0.757788C127.4 -1.86387 122.145 2.94249 120.124 5.67338C111.634 3.70713 105.47 10.3159 103.448 13.8661C97.991 10.589 92.0788 16.3239 89.805 19.6009C86.7731 15.6685 80.962 22.878 78.4355 26.9743C72.3717 25.0081 68.3292 30.5245 67.066 33.5285Z" fill="#F8DC85"/>
<path d="M133.934 3.16797C129.764 3.84116 130.211 12.4244 130.956 16.6318C133.934 11.9195 138.153 12.4244 139.891 13.2658C140.486 12.5927 136.168 6.25343 133.934 3.16797Z" fill="#DDC479"/>
<path d="M53.5422 67.1502C50.5113 60.5888 52.0273 37.6233 52.7851 45.005C53.378 50.7815 57.3602 59.6859 60.9719 63.9311C62.2511 71.0364 61.879 72.0712 60.3628 72.0712C59.2912 72.0712 54.7641 69.7954 53.5422 67.1502Z" fill="#DDC479"/>
<path d="M73.6012 60.8263C73.6012 63.4205 68.1002 63.5286 65.3497 63.2583C64.8346 62.6553 64.3855 62.0182 63.997 61.3527C65.1967 59.8283 63.123 53.9218 61.9362 51.1592C62.3292 44.3002 65.3239 37.1995 67.6002 33.2637C63.9997 44.9373 70.1007 56.5028 73.6012 60.8263Z" fill="#DDC479"/>
<path d="M83.8082 54.4237C83.8082 57.0861 78.3071 57.1971 75.5566 56.9197C75.0415 56.3008 74.5924 55.647 74.2039 54.964C75.4036 53.3994 73.3299 47.3376 72.1431 44.5022C72.5361 37.4627 75.5308 30.1751 77.8071 26.1357C74.2066 38.1165 80.3076 49.9864 83.8082 54.4237Z" fill="#DDC479"/>
<path d="M96.2023 48.0878C96.2023 50.7502 90.7013 50.8611 87.9508 50.5838C87.4357 49.9649 86.9866 49.3111 86.598 48.6281C87.7977 47.0635 85.724 41.0016 84.5372 38.1663C84.9303 31.1267 87.925 23.8392 90.2013 19.7998C86.6008 31.7806 92.7018 43.6505 96.2023 48.0878Z" fill="#DDC479"/>
<path d="M110.055 41.0265C110.055 43.6207 104.21 43.7288 101.287 43.4585C100.74 42.8555 100.263 42.2184 99.8501 41.5529C101.125 40.0285 98.9215 34.122 97.6605 31.3594C98.0782 24.5004 101.26 17.3997 103.679 13.4639C99.853 25.1375 106.335 36.703 110.055 41.0265Z" fill="#DDC479"/>
<path d="M118.665 34.2691C111.533 25.7419 116.887 11.3113 120.602 4.75195C117.036 16.5588 122.627 29.8962 126.094 34.2691C126.094 36.8928 121.637 35.089 118.665 34.2691Z" fill="#DDC479"/>
<path fill-rule="evenodd" clip-rule="evenodd" d="M131.665 2.69581C132.516 2.27651 133.39 2.30779 134.114 2.56919L133.634 4.12976C133.219 3.97991 132.746 3.97007 132.293 4.19334C131.844 4.4147 131.33 4.90711 130.904 5.92911C130.035 8.01806 129.619 12.1285 130.827 19.6584L129.332 19.9402C128.112 12.3363 128.456 7.81054 129.521 5.25241C130.063 3.95088 130.81 3.11702 131.665 2.69581ZM115.428 13.751C116.429 10.8798 117.78 8.16243 118.798 6.23134L120.116 7.04748C119.111 8.95468 117.806 11.5835 116.847 14.3327C115.88 17.1058 115.307 19.8842 115.653 22.1315C115.848 23.4039 116.258 24.6306 116.702 25.936L116.741 26.0519C117.166 27.2995 117.617 28.6238 117.854 30.0189C118.102 31.4765 118.121 33.0283 117.658 34.7169C117.197 36.3993 116.271 38.1673 114.698 40.0855L113.564 38.9926C115.026 37.2096 115.819 35.6482 116.203 34.2485C116.585 32.855 116.575 31.5718 116.362 30.3169C116.148 29.0629 115.737 27.8546 115.299 26.5671L115.278 26.5052C114.84 25.2184 114.378 23.8508 114.156 22.402C113.742 19.7143 114.434 16.5982 115.428 13.751ZM99.4883 21.1534C100.49 18.2823 101.841 15.5649 102.859 13.6338L104.177 14.4499C103.171 16.3571 101.867 18.9859 100.908 21.7351C99.9405 24.5082 99.3678 27.2867 99.7133 29.534C99.9089 30.8062 100.319 32.0329 100.763 33.3381C100.777 33.3774 100.79 33.4167 100.803 33.4561C101.228 34.703 101.679 36.0267 101.917 37.421C102.165 38.8785 102.185 40.4304 101.723 42.1191C101.262 43.8016 100.337 45.5697 98.7635 47.4879L97.6293 46.3951C99.0914 44.6121 99.8844 43.0508 100.268 41.6511C100.649 40.2577 100.638 38.9746 100.425 37.7197C100.211 36.4663 99.7998 35.2588 99.3615 33.9721L99.3396 33.9079C98.9013 32.621 98.4391 31.2533 98.2164 29.8044C97.8031 27.1167 98.4951 24.0006 99.4883 21.1534ZM85.8261 27.7333C86.8275 24.8622 88.1789 22.1448 89.1969 20.2137L90.5146 21.0298C89.5091 22.937 88.2045 25.5658 87.2456 28.3151C86.2783 31.0882 85.7056 33.8666 86.0511 36.1139C86.2415 37.3519 86.6332 38.6355 87.0625 40.0423C87.0787 40.0953 87.0949 40.1485 87.1112 40.2018C87.552 41.647 88.0194 43.2063 88.2626 44.8419C88.7596 48.1845 88.3125 51.8088 85.111 55.7128L83.9767 54.62C86.8456 51.1216 87.1962 48.0084 86.7643 45.1036C86.543 43.6154 86.1142 42.1735 85.6703 40.7181C85.6493 40.6492 85.6282 40.5802 85.6071 40.5111C85.1902 39.1459 84.7644 37.7516 84.5542 36.3843C84.1409 33.6967 84.833 30.5806 85.8261 27.7333ZM73.6831 35.1357C74.6845 32.2646 76.0359 29.5472 77.0539 27.6161L78.3716 28.4323C77.3661 30.3395 76.0616 32.9682 75.1026 35.7175C74.1354 38.4906 73.5626 41.269 73.9081 43.5163C74.0985 44.7543 74.4902 46.0379 74.9195 47.4447C74.9357 47.4977 74.9519 47.5509 74.9682 47.6042C75.409 49.0494 75.8764 50.6087 76.1196 52.2443C76.6166 55.5869 76.1695 59.2112 72.968 63.1153L71.8337 62.0224C74.7026 58.524 75.0533 55.4108 74.6213 52.506C74.4 51.0179 73.9712 49.5759 73.5273 48.1206C73.5063 48.0516 73.4852 47.9826 73.4641 47.9135C73.0472 46.5483 72.6214 45.1541 72.4112 43.7867C71.9979 41.0991 72.69 37.983 73.6831 35.1357ZM63.0564 41.7157C64.0579 38.8445 65.4092 36.1271 66.4272 34.196L67.7449 35.0122C66.7394 36.9194 65.4349 39.5482 64.4759 42.2974C63.5087 45.0705 62.9359 47.849 63.2814 50.0962C63.4718 51.3343 63.8635 52.6178 64.2929 54.0247C64.309 54.0776 64.3253 54.1308 64.3415 54.1841C64.7823 55.6293 65.2497 57.1886 65.4929 58.8242C65.9899 62.1669 65.5428 65.7912 62.3413 69.6952L61.207 68.6023C64.0759 65.1039 64.4266 61.9908 63.9946 59.086C63.7733 57.5978 63.3445 56.1559 62.9006 54.7005C62.8796 54.6316 62.8585 54.5625 62.8374 54.4934C62.4205 53.1283 61.9947 51.734 61.7845 50.3667C61.3712 47.679 62.0633 44.5629 63.0564 41.7157Z" fill="#FFEDBA"/>
<path d="M111.03 90.229C101.856 95.3781 100.629 103.323 101.162 106.652C106.664 129.817 116.146 131.094 120.199 128.837C122.724 126.9 121.774 121.202 120.983 118.596C129.476 116.645 128.89 110.891 127.535 108.257C136.209 108.371 136.698 100.244 135.858 96.167C142.624 96.4847 145.816 88.069 146.565 83.8214C154.131 84.4703 157.832 74.1941 158.737 68.9749C162.018 68.8842 167.951 67.5721 165.436 63.0488C162.921 58.5255 163.481 50.8428 164.075 47.5669C163.467 42.8395 169.726 39.7561 172.932 38.8053C170.321 36.4801 163.745 31.7663 158.332 31.5121C152.919 31.2579 149.915 37.9693 149.09 41.3568C140.598 43.3075 137.437 52.0673 136.918 56.2033C130.706 55.618 127.449 63.4677 126.597 67.4658C122.356 65.2109 119.743 74.3635 118.966 79.2216C112.69 80.1017 111.06 86.9265 111.03 90.229Z" fill="#F8DC85"/>
<path d="M160.771 32.9713C157.213 35.4269 160.832 43.0723 163.086 46.5881C164.045 40.9677 168.089 39.5666 169.991 39.5686C170.284 38.6905 163.967 34.8045 160.771 32.9713Z" fill="#DDC479"/>
<path d="M111.249 126.92C106.025 122.262 98.82 100.609 102.274 107.019C104.976 112.036 111.945 118.414 116.834 120.699C120.66 126.626 120.707 127.736 119.322 128.405C118.343 128.878 113.355 128.797 111.249 126.92Z" fill="#DDC479"/>
<path d="M127.212 112.287C128.182 114.657 123.196 117.184 120.582 118.151C119.886 117.828 119.237 117.444 118.633 117.007C119.159 115.085 115.055 110.603 112.937 108.603C110.731 102.162 110.811 94.3523 111.419 89.7513C112.495 102.007 122.396 109.882 127.212 112.287Z" fill="#DDC479"/>
<path d="M134.143 101.931C135.139 104.364 130.154 106.893 127.537 107.854C126.835 107.516 126.18 107.117 125.57 106.664C126.081 104.705 121.918 100.082 119.773 98.0147C117.499 91.4091 117.51 83.4284 118.079 78.7327C119.27 91.2691 129.285 99.4218 134.143 101.931Z" fill="#DDC479"/>
<path d="M143.098 90.6708C144.094 93.1035 139.109 95.6331 136.492 96.5938C135.79 96.2557 135.135 95.8565 134.524 95.4039C135.035 93.4448 130.873 88.8213 128.728 86.7545C126.454 80.1488 126.464 72.1681 127.033 67.4724C128.225 80.0089 138.24 88.1615 143.098 90.6708Z" fill="#DDC479"/>
<path d="M153.114 78.1042C154.084 80.4745 148.784 83.1533 146.013 84.1964C145.287 83.887 144.613 83.5155 143.987 83.0896C144.581 81.134 140.358 76.7098 138.173 74.7421C135.989 68.2905 136.24 60.398 136.978 55.7342C137.849 68.0892 148.098 75.7955 153.114 78.1042Z" fill="#DDC479"/>
<path d="M158.454 68.1287C148.747 63.4857 148.242 47.9367 149.182 40.3035C150.34 52.6657 160.438 62.3844 165.242 64.8496C166.223 67.247 161.476 67.5661 158.454 68.1287Z" fill="#DDC479"/>
<path fill-rule="evenodd" clip-rule="evenodd" d="M158.522 33.5415C159.143 32.7828 159.953 32.4255 160.712 32.345L160.857 33.9828C160.422 34.0289 159.986 34.2286 159.656 34.6327C159.328 35.0333 159.043 35.7101 159.036 36.8318C159.023 39.1244 160.181 43.0635 164.101 49.4104L162.841 50.3279C158.882 43.9186 157.503 39.6316 157.519 36.8241C157.527 35.3956 157.898 34.3038 158.522 33.5415ZM147.82 50.8104C147.662 47.745 147.88 44.6655 148.088 42.4517L149.597 42.6158C149.392 44.8022 149.183 47.7801 149.335 50.7154C149.489 53.6762 150.005 56.4677 151.161 58.3686C151.816 59.4448 152.649 60.3849 153.543 61.3816L153.622 61.4701C154.477 62.4226 155.384 63.4336 156.123 64.6037C156.894 65.8262 157.492 67.2357 157.701 68.983C157.909 70.7237 157.725 72.7477 157.005 75.1947L155.56 74.6968C156.229 72.4222 156.37 70.6454 156.196 69.197C156.024 67.7552 155.535 66.5872 154.871 65.5348C154.207 64.483 153.379 63.5605 152.497 62.5775L152.455 62.5302C151.573 61.5477 150.64 60.5019 149.894 59.2765C148.511 57.0031 147.978 53.8504 147.82 50.8104ZM136.025 64.61C135.866 61.5445 136.085 58.4651 136.293 56.2512L137.802 56.4153C137.597 58.6018 137.388 61.5796 137.54 64.5149C137.694 67.4757 138.21 70.2673 139.366 72.1682C140.021 73.2443 140.854 74.1842 141.748 75.1806C141.775 75.2106 141.802 75.2406 141.829 75.2707C142.684 76.2225 143.591 77.2328 144.33 78.4019C145.102 79.6241 145.7 81.0334 145.909 82.7806C146.118 84.5213 145.934 86.5452 145.214 88.9923L143.769 88.4944C144.438 86.2198 144.578 84.4432 144.405 82.9951C144.232 81.5536 143.743 80.3859 143.078 79.3336C142.414 78.2827 141.586 77.3609 140.705 76.3787L140.661 76.3296C139.779 75.3473 138.845 74.3016 138.099 73.076C136.716 70.8027 136.183 67.65 136.025 64.61ZM126.003 76.6529C125.844 73.5874 126.063 70.508 126.271 68.2941L127.78 68.4582C127.574 70.6447 127.366 73.6225 127.518 76.5578C127.671 79.5186 128.187 82.3102 129.344 84.2111C129.981 85.2582 130.819 86.2582 131.737 87.3541C131.772 87.3954 131.807 87.4368 131.842 87.4783C132.785 88.6043 133.795 89.8227 134.629 91.2098C136.334 94.0446 137.281 97.5536 135.816 102.534L134.371 102.036C135.683 97.5732 134.839 94.5738 133.358 92.1103C132.599 90.8482 131.668 89.72 130.718 88.5861C130.673 88.5324 130.628 88.4787 130.583 88.4249C129.691 87.3615 128.781 86.2755 128.077 85.1189C126.694 82.8456 126.161 79.6929 126.003 76.6529ZM117.677 88.7767C117.518 85.7113 117.736 82.6318 117.944 80.418L119.453 80.5821C119.248 82.7685 119.039 85.7463 119.192 88.6817C119.345 91.6425 119.861 94.434 121.017 96.3349C121.654 97.3821 122.493 98.382 123.411 99.4779C123.446 99.5192 123.48 99.5606 123.515 99.6021C124.459 100.728 125.469 101.947 126.303 103.334C128.007 106.168 128.955 109.677 127.49 114.658L126.044 114.16C127.357 109.697 126.513 106.698 125.032 104.234C124.273 102.972 123.342 101.844 122.392 100.71C122.347 100.656 122.302 100.603 122.257 100.549C121.365 99.4853 120.454 98.3993 119.751 97.2428C118.368 94.9694 117.835 91.8167 117.677 88.7767ZM110.428 99.4797C110.27 96.4143 110.488 93.3348 110.696 91.1209L112.205 91.285C112 93.4715 111.791 96.4493 111.943 99.3847C112.097 102.345 112.613 105.137 113.769 107.038C114.406 108.085 115.244 109.085 116.163 110.181C116.197 110.222 116.232 110.264 116.267 110.305C117.21 111.431 118.22 112.65 119.054 114.037C120.759 116.871 121.706 120.38 120.241 125.361L118.796 124.863C120.109 120.4 119.265 117.401 117.783 114.937C117.024 113.675 116.093 112.547 115.143 111.413C115.098 111.359 115.053 111.305 115.008 111.252C114.116 110.188 113.206 109.102 112.502 107.946C111.119 105.672 110.586 102.52 110.428 99.4797Z" fill="#FFEDBA"/>
</svg>
