<svg width="235" height="170" viewBox="0 0 235 170" fill="none" xmlns="http://www.w3.org/2000/svg">
<path d="M124.38 36C56.3799 16.8 15.0461 28.5 2.8794 42.5C2.87943 113.5 -8.12061 186 12.8794 150.5C49.0613 89.3354 186.38 181.5 219.88 168.5C246.68 158.1 231.046 51.8333 219.88 0C216.38 20 192.38 55.2 124.38 36Z" fill="white"/>
<path d="M53.7645 79.8098C54.9691 76.7981 64.8073 58.9789 69.5758 50.4458C74.2908 51.2316 81.1971 53.0401 88.3989 56.0698C99.5978 60.7811 111.511 68.4455 117.01 79.8098C128.304 103.15 110.234 134.02 110.987 132.514C111.589 131.31 93.1674 127.495 83.8814 125.738C37.2002 112.185 52.2586 83.5744 53.7645 79.8098Z" fill="#F8DC85"/>
<path fill-rule="evenodd" clip-rule="evenodd" d="M88.3979 55.6746C88.421 56.0897 88.1031 56.445 87.6879 56.4681C85.459 56.5919 81.8826 56.9645 78.4242 57.6772C76.6954 58.0335 75.0103 58.472 73.5444 59.001C72.0684 59.5336 70.8638 60.1408 70.058 60.8123C69.7386 61.0785 69.2638 61.0353 68.9976 60.7159C68.7314 60.3964 68.7745 59.9217 69.094 59.6554C70.0952 58.8211 71.4882 58.142 73.0333 57.5845C74.5885 57.0233 76.348 56.5677 78.1203 56.2024C81.6641 55.472 85.3157 55.0917 87.6044 54.9646C88.0196 54.9415 88.3748 55.2594 88.3979 55.6746ZM77.2477 65.2567C71.9696 67.4869 66.9779 70.6528 64.0044 72.883C63.6717 73.1325 63.1998 73.065 62.9503 72.7324C62.7008 72.3997 62.7682 71.9278 63.1009 71.6783C66.1507 69.3909 71.2482 66.157 76.6616 63.8696C79.3693 62.7255 82.1773 61.8091 84.8619 61.373C87.5419 60.9376 90.1472 60.973 92.4169 61.7836C92.8085 61.9234 93.0126 62.3543 92.8727 62.7459C92.7329 63.1375 92.3021 63.3415 91.9104 63.2017C89.9638 62.5065 87.6375 62.4477 85.1034 62.8593C82.5741 63.2702 79.8857 64.142 77.2477 65.2567ZM67.795 77.5509C61.2305 81.1875 54.9896 86.0448 51.2566 89.4046C50.9475 89.6827 50.4715 89.6577 50.1933 89.3486C49.9151 89.0395 49.9402 88.5635 50.2493 88.2853C54.0454 84.8687 60.3784 79.938 67.0653 76.2337C70.409 74.3813 73.8638 72.8229 77.1503 71.9193C80.4284 71.0181 83.6051 70.7502 86.3528 71.5583C86.7517 71.6756 86.98 72.0941 86.8626 72.4931C86.7453 72.892 86.3268 73.1203 85.9279 73.003C83.5557 72.3053 80.6901 72.5079 77.5495 73.3713C74.4173 74.2324 71.0771 75.7327 67.795 77.5509ZM78.509 78.8935C90.934 74.4669 104.927 73.4078 114.03 73.7871C114.445 73.8044 114.768 74.1553 114.751 74.5707C114.733 74.9862 114.383 75.309 113.967 75.2917C105 74.918 91.2099 75.9672 79.0143 80.3121C66.8055 84.6617 56.38 92.2387 53.7487 104.811C53.6635 105.218 53.2645 105.478 52.8575 105.393C52.4504 105.308 52.1896 104.909 52.2747 104.502C55.0645 91.1734 66.0972 83.3155 78.509 78.8935ZM74.6497 92.6159C66.1664 98.7933 61.4738 107.266 59.7579 113.149C59.6415 113.548 59.2235 113.778 58.8243 113.661C58.4251 113.545 58.1958 113.127 58.3123 112.728C60.11 106.564 64.9795 97.7949 73.7633 91.3986C82.5728 84.9835 95.2727 80.9903 112.635 84.341C113.044 84.4198 113.311 84.8147 113.232 85.223C113.153 85.6313 112.758 85.8984 112.35 85.8196C95.3793 82.5446 83.1072 86.4571 74.6497 92.6159ZM99.0261 89.3818C107.687 87.9717 115.721 91.4221 120.476 95.0208C120.808 95.2718 120.873 95.744 120.622 96.0756C120.371 96.4072 119.899 96.4725 119.567 96.2216C115.037 92.7931 107.41 89.5425 99.268 90.868C91.1805 92.1847 82.386 98.0517 75.5328 113.248C75.3619 113.627 74.916 113.796 74.5369 113.625C74.1579 113.454 73.9892 113.008 74.1601 112.629C81.1607 97.1059 90.3109 90.8007 99.0261 89.3818ZM97.352 104.333C90.6688 108.1 85.2154 114.177 82.2492 118.627C82.0186 118.973 81.5511 119.066 81.2051 118.835C80.8591 118.605 80.7656 118.137 80.9963 117.791C84.0535 113.205 89.6681 106.935 96.6127 103.022C103.579 99.0956 111.972 97.5048 120.406 102.503C120.763 102.715 120.882 103.177 120.67 103.534C120.458 103.892 119.996 104.01 119.638 103.798C111.809 99.1587 104.013 100.58 97.352 104.333ZM101.603 112.745C96.9681 115.697 93.2795 120.409 91.3116 123.853C91.1053 124.214 90.6453 124.339 90.2843 124.133C89.9232 123.927 89.7978 123.467 90.0041 123.106C92.0517 119.522 95.8924 114.597 100.794 111.475C105.727 108.334 111.813 106.985 118.15 110.787C118.507 111.001 118.623 111.463 118.409 111.82C118.195 112.177 117.732 112.292 117.376 112.078C111.666 108.653 106.208 109.813 101.603 112.745ZM105.901 120.997C103.832 122.532 102.915 124.539 102.694 125.862C102.626 126.272 102.238 126.549 101.828 126.481C101.418 126.412 101.141 126.025 101.209 125.614C101.491 123.925 102.607 121.566 105.004 119.788C107.419 117.997 111.071 116.841 116.345 117.461C116.758 117.51 117.054 117.884 117.005 118.297C116.956 118.71 116.582 119.005 116.169 118.957C111.204 118.373 107.954 119.475 105.901 120.997Z" fill="#FFEDBA"/>
<path d="M153.888 78.1006C157.106 77.6936 176.829 72.662 186.288 70.1971C186.716 65.4363 186.706 58.2971 185.588 50.5643C183.85 38.5397 179.435 25.0798 169.822 16.8952C150.08 0.0852466 115.653 9.79524 117.3 9.44598C118.618 9.16657 117.668 27.955 117.029 37.3841C118.384 85.9739 149.866 78.6094 153.888 78.1006Z" fill="#F8DC85"/>
<path d="M120.022 12.0469C117.512 38.3992 126.648 86.7368 183.267 69.269C172.425 36.7427 136.586 17.5683 120.022 12.0469Z" fill="#C6B273" fill-opacity="0.5"/>
<path fill-rule="evenodd" clip-rule="evenodd" d="M138.089 7.46681C138.124 7.8812 137.816 8.24512 137.401 8.27965C131.43 8.77729 127.945 11.4247 126.509 13.1381C128.41 13.7376 130.531 14.502 132.81 15.4343C135.573 12.4562 142.052 7.70276 150.192 8.28417C150.607 8.31379 150.919 8.67405 150.89 9.08882C150.86 9.50359 150.5 9.81581 150.085 9.78619C142.901 9.27304 137.045 13.2908 134.298 16.0574C136.396 16.9562 138.611 17.9899 140.899 19.1606C142.533 17.1762 145.275 14.6896 148.69 13.0912C152.414 11.348 156.982 10.6453 161.751 12.8706C162.128 13.0464 162.291 13.4944 162.115 13.8713C161.939 14.2481 161.491 14.411 161.114 14.2351C156.847 12.2441 152.757 12.8498 149.328 14.455C146.288 15.8782 143.803 18.0746 142.267 19.8726C144.538 21.0746 146.872 22.4095 149.228 23.8796C152.487 20.1706 160.789 14.8688 171.526 19.641C171.906 19.8099 172.077 20.2548 171.908 20.6348C171.74 21.0148 171.295 21.1859 170.915 21.017C161.123 16.665 153.573 21.3418 150.518 24.6962C152.832 26.1849 155.162 27.804 157.466 29.5557C159.629 26.6608 166.06 24.2505 178.315 29.9771C178.692 30.1532 178.855 30.6013 178.679 30.978C178.503 31.3547 178.055 31.5174 177.678 31.3414C165.577 25.6868 160.2 28.4567 158.663 30.4796C160.691 32.0687 162.695 33.7619 164.647 35.5608C167.831 34.7424 175.038 34.3583 182.141 38.5017C182.5 38.7113 182.621 39.1723 182.412 39.5315C182.202 39.8907 181.741 40.012 181.382 39.8024C175.331 36.2725 169.214 36.249 165.981 36.8146C167.864 38.6192 169.692 40.5252 171.44 42.5339C172.348 42.2545 173.727 42.1731 175.508 42.4808C177.754 42.8687 180.725 43.8873 184.399 46.031C184.759 46.2405 184.88 46.7015 184.67 47.0607C184.461 47.4199 184 47.5412 183.641 47.3317C180.088 45.259 177.286 44.316 175.252 43.9647C174.074 43.7612 173.179 43.76 172.55 43.8376C174.516 46.1935 176.368 48.6853 178.07 51.3152C178.93 51.5928 180.177 52.061 181.442 52.6653C182.83 53.3285 184.31 54.1884 185.305 55.184C185.599 55.478 185.599 55.9548 185.305 56.2488C185.011 56.5428 184.535 56.5428 184.241 56.2488C183.429 55.4374 182.136 54.6659 180.793 54.0241C180.307 53.7918 179.823 53.5807 179.367 53.3947C182.236 58.1783 184.602 63.3961 186.249 69.0587C186.365 69.458 186.136 69.8758 185.736 69.992C185.337 70.1081 184.919 69.8786 184.803 69.4793C182.985 63.2299 180.269 57.5284 176.951 52.3585C175.033 49.3698 172.913 46.5586 170.649 43.9222C168.521 41.4444 166.266 39.1212 163.931 36.9504C161.746 34.9187 159.492 33.0209 157.207 31.255C154.486 29.1514 151.722 27.2355 148.983 25.5039C146.192 23.739 143.426 22.1661 140.757 20.7815C138.115 19.4108 135.569 18.2256 133.189 17.222C132.927 17.3683 132.591 17.3488 132.345 17.1473C132.221 17.0458 132.137 16.913 132.097 16.7696C129.508 15.7158 127.137 14.8859 125.078 14.2746L124.895 14.2203L124.76 14.0853C122.666 11.9916 121.197 10.9331 120.212 10.5266C119.726 10.326 119.427 10.3134 119.26 10.347C119.119 10.3752 119.009 10.4467 118.905 10.6089C118.649 11.0073 118.529 11.812 118.61 12.9486C118.688 14.0367 118.936 15.2652 119.241 16.363C119.353 16.7637 119.118 17.1787 118.717 17.29C118.317 17.4013 117.902 17.1667 117.79 16.7661C117.468 15.6052 117.195 14.2737 117.108 13.0559C117.025 11.8868 117.096 10.6397 117.637 9.79585C117.932 9.3368 118.371 8.98951 118.963 8.87065C119.528 8.75726 120.144 8.86934 120.787 9.13464C121.927 9.60532 123.365 10.6484 125.179 12.3879C126.804 10.3195 130.724 7.32507 137.276 6.77901C137.691 6.74448 138.055 7.05241 138.089 7.46681Z" fill="#FFEDBA"/>
</svg>
