<svg width="235" height="170" viewBox="0 0 235 170" fill="none" xmlns="http://www.w3.org/2000/svg">
<path d="M124.38 36C56.3799 16.8 15.0461 28.5 2.8794 42.5C2.87943 113.5 -8.12061 186 12.8794 150.5C49.0613 89.3354 186.38 181.5 219.88 168.5C246.68 158.1 231.046 51.8333 219.88 0C216.38 20 192.38 55.2 124.38 36Z" fill="white"/>
<path d="M122.656 68.1059C117.67 69.6357 113.396 68.9443 111.59 68.2197C110.497 68.2469 109.239 67.8971 107.764 67.1606C106.139 66.3493 104.153 65.0191 101.688 63.0125C96.7746 59.0135 89.8347 52.2246 79.9013 41.1846C76.0954 39.1309 68.973 35.8597 62.7744 33.5542C59.6235 32.3823 56.7717 31.483 54.7362 31.1073C53.6964 30.9154 52.9916 30.8847 52.5953 30.954C52.5584 30.9604 52.5281 30.9671 52.5035 30.9734C52.5305 33.2794 53.4715 35.4688 54.4556 37.1256C54.9506 37.9589 55.4459 38.6397 55.8158 39.1102C56.0005 39.3451 56.1531 39.5266 56.2577 39.6473C56.31 39.7077 56.3502 39.7528 56.3764 39.7818L56.4048 39.813L56.4106 39.8192L57.6203 41.109L55.7942 41.3891C53.7481 41.7029 50.6894 42.3142 48.1631 43.1203C46.893 43.5255 45.8153 43.9621 45.0747 44.406C44.7045 44.6279 44.4619 44.8262 44.3205 44.9893C44.3109 45.0003 44.302 45.0109 44.2938 45.0211C44.4217 45.213 44.4843 45.3887 44.5247 45.5375C44.5427 45.6035 44.5563 45.6614 44.5697 45.7183C44.607 45.8771 44.6427 46.0289 44.7659 46.3311C45.1113 47.1789 46.0938 49.0167 49.2079 53.316L50.1559 54.6248L48.4574 54.7985C46.9278 54.9549 44.6446 55.283 42.764 55.7523C41.8157 55.9889 41.0291 56.2472 40.5008 56.5106C40.2544 56.6335 40.1093 56.7357 40.034 56.805C40.0368 56.8192 40.0403 56.8351 40.0445 56.8526C40.065 56.9386 40.0988 57.0492 40.1492 57.1859C40.2504 57.4605 40.4042 57.8023 40.6068 58.2024C41.0113 59.0014 41.5798 59.9739 42.2235 61.0046C43.5089 63.0632 45.056 65.2943 46.0876 66.7185L46.5094 67.3009L46.0343 67.8476C45.5627 68.3902 44.8609 68.8413 44.1107 69.2336C43.3447 69.6342 42.4357 70.0198 41.4739 70.402C40.8925 70.6331 40.292 70.8632 39.6815 71.0971C38.232 71.6525 36.7259 72.2296 35.286 72.8922C34.8349 73.0998 34.6335 73.2905 34.546 73.418C34.4719 73.5257 34.442 73.6396 34.4695 73.8082C34.5387 74.2339 34.955 74.8797 35.8463 75.733C37.1822 77.0118 39.1494 78.3679 41.0435 79.6735C41.6211 80.0717 42.1919 80.4652 42.7359 80.8503L43.8591 81.6455L42.6982 82.3934C40.9897 83.4941 38.5449 85.2307 36.7473 86.862C35.8389 87.6863 35.156 88.4305 34.7977 89.0162C34.6192 89.3081 34.5641 89.4927 34.5551 89.5835C35.3457 90.3013 36.9971 91.52 38.8062 92.7905C40.6247 94.0676 42.5399 95.3539 43.7464 96.1471L44.8157 96.8501L43.8268 97.6465C42.4673 98.7414 40.5443 100.467 39.1786 102.085C38.4888 102.901 37.992 103.632 37.7567 104.203C37.6398 104.487 37.6118 104.675 37.6169 104.782C37.6192 104.83 37.6278 104.852 37.6299 104.856C37.6299 104.856 37.6317 104.86 37.6366 104.865C38.3665 105.537 39.8222 106.441 41.4386 107.329C43.0252 108.2 44.6663 109.002 45.6873 109.472L46.6176 109.9L46.1524 110.757C45.4725 112.008 44.5042 113.979 43.8124 115.812C43.4655 116.731 43.1995 117.585 43.0681 118.282C43.0024 118.631 42.975 118.916 42.98 119.135C42.9841 119.319 43.0101 119.416 43.0242 119.455C43.039 119.466 43.0698 119.486 43.1257 119.512C43.2636 119.575 43.487 119.642 43.8151 119.694C44.4713 119.798 45.3621 119.814 46.3844 119.76C48.4165 119.652 50.7502 119.279 52.2774 118.967L54.4106 118.531L53.4333 120.33C52.7494 121.589 51.778 123.519 51.0842 125.217C50.7353 126.07 50.4714 126.83 50.3426 127.402C50.2971 127.603 50.2735 127.76 50.2646 127.877C50.2969 127.886 50.3344 127.897 50.3775 127.908C50.6426 127.977 51.0166 128.04 51.4965 128.089C52.4523 128.187 53.7289 128.218 55.1881 128.159C58.1104 128.042 61.6504 127.574 64.6556 126.652C65.3201 126.448 66.4711 125.913 68.0449 125.057C69.5951 124.214 71.4899 123.096 73.6163 121.771C77.8681 119.123 83.0165 115.666 88.1351 111.969C93.2551 108.27 98.3313 104.342 102.444 100.749C106.593 97.1251 109.651 93.9371 110.86 91.7114L110.935 91.5725L111.055 91.4626C112.026 90.5687 114.001 89.2709 116.334 88.7014C118.7 88.1236 121.517 88.2878 123.913 90.4562L127.184 92.7141L127.814 93.5364C129.248 95.658 131.98 98.3815 135.524 101.39C139.537 104.797 144.48 108.48 149.469 111.932C154.456 115.384 159.474 118.595 163.628 121.06C165.706 122.293 167.56 123.335 169.083 124.126C170.626 124.927 171.769 125.438 172.446 125.646C175.451 126.568 178.991 127.036 181.913 127.153C183.372 127.212 184.649 127.181 185.605 127.084C186.085 127.034 186.459 126.971 186.724 126.902C186.762 126.892 186.795 126.883 186.825 126.874L186.837 126.871C186.828 126.754 186.804 126.597 186.759 126.396C186.63 125.824 186.366 125.065 186.017 124.211C185.323 122.513 184.352 120.583 183.668 119.324L182.691 117.525L184.824 117.961C186.351 118.273 188.685 118.646 190.717 118.754C191.739 118.808 192.63 118.792 193.286 118.688C193.614 118.636 193.838 118.569 193.976 118.506C194.032 118.48 194.062 118.46 194.077 118.449C194.091 118.41 194.117 118.313 194.121 118.129C194.126 117.91 194.099 117.625 194.033 117.276C193.902 116.579 193.636 115.725 193.289 114.806C192.597 112.973 191.629 111.002 190.949 109.751L190.484 108.894L191.414 108.466C192.435 107.996 194.076 107.194 195.663 106.323C197.279 105.435 198.735 104.531 199.465 103.859C199.47 103.854 199.471 103.851 199.471 103.851C199.473 103.846 199.482 103.824 199.484 103.776C199.49 103.669 199.461 103.481 199.345 103.197C199.109 102.626 198.612 101.896 197.923 101.079C196.557 99.4615 194.634 97.7354 193.275 96.6406L192.286 95.8442L193.355 95.1412C194.561 94.348 196.477 93.0617 198.295 91.7846C200.104 90.5141 201.756 89.2954 202.546 88.5776C202.537 88.4868 202.482 88.3022 202.304 88.0103C201.945 87.4245 201.262 86.6804 200.354 85.856C198.556 84.2247 196.112 82.4882 194.403 81.3874L193.242 80.6396L194.365 79.8444C194.909 79.4592 195.48 79.0658 196.058 78.6676C197.952 77.362 199.919 76.0058 201.255 74.7271C202.146 73.8738 202.563 73.2279 202.632 72.8023C202.659 72.6337 202.629 72.5198 202.555 72.412C202.468 72.2845 202.266 72.0939 201.815 71.8863C200.375 71.2237 198.87 70.6467 197.42 70.0913C196.81 69.8574 196.209 69.6271 195.627 69.3961C194.666 69.0139 193.757 68.6283 192.991 68.2277C192.24 67.8354 191.539 67.3842 191.067 66.8416L190.592 66.295L191.014 65.7126C192.045 64.2883 193.592 62.0573 194.878 59.9987C195.521 58.9679 196.09 57.9955 196.495 57.1965C196.697 56.7963 196.851 56.4546 196.952 56.18C197.002 56.0433 197.036 55.9327 197.057 55.8467C197.061 55.8292 197.064 55.8133 197.067 55.799C196.992 55.7298 196.847 55.6276 196.601 55.5047C196.072 55.2412 195.286 54.983 194.337 54.7463C192.457 54.2771 190.174 53.949 188.644 53.7926L186.945 53.6189L187.893 52.3101C191.008 48.0108 191.99 46.173 192.335 45.3251C192.459 45.023 192.494 44.8712 192.532 44.7124C192.545 44.6555 192.559 44.5976 192.577 44.5316C192.617 44.3828 192.679 44.2082 192.807 44.0163C192.799 44.0061 192.79 43.9944 192.781 43.9834C192.639 43.8203 192.397 43.6219 192.027 43.4001C191.286 42.9561 190.208 42.5196 188.938 42.1143C186.412 41.3083 183.353 40.697 181.307 40.3831L179.481 40.103L180.69 38.8141L180.697 38.807L180.725 38.7759C180.751 38.7469 180.791 38.7018 180.844 38.6414C180.948 38.5206 181.101 38.3392 181.286 38.1043C181.655 37.6338 182.151 36.953 182.646 36.1196C183.63 34.4628 184.571 32.2735 184.598 29.9675C184.573 29.9612 184.543 29.9545 184.506 29.948C184.11 29.8788 183.405 29.9095 182.365 30.1014C180.33 30.477 177.478 31.3764 174.327 32.5483C168.128 34.8538 161.006 38.125 157.2 40.1787C147.262 51.2214 140.747 57.2347 136.169 60.734C132.128 63.8232 129.594 64.9512 127.636 65.8223C127.352 65.949 127.08 66.0702 126.817 66.1913L122.656 68.1059Z" fill="#F8DC85"/>
<path d="M113.509 88.3108L84.3854 87.3544C97.907 89.2681 99.3424 100.756 90.6261 108.414L113.509 88.3108Z" fill="#C1AC6E" fill-opacity="0.5"/>
<path d="M123.911 88.3098L153.034 87.3534C139.512 89.2671 138.077 100.755 146.793 108.413L123.911 88.3098Z" fill="#C1AC6E" fill-opacity="0.5"/>
<path d="M110.389 69.1645H83.3459C88.3385 67.6328 95.8274 64.3779 88.5466 52.8901C93.4005 56.7194 109.557 69.1645 110.389 69.1645Z" fill="#C1AC6E" fill-opacity="0.5"/>
<path d="M123.933 69.1645H150.976C145.983 67.6328 138.495 64.3779 145.775 52.8901C140.922 56.7194 124.765 69.1645 123.933 69.1645Z" fill="#C1AC6E" fill-opacity="0.5"/>
<path fill-rule="evenodd" clip-rule="evenodd" d="M142.721 71.5243H93.33V69.5898H142.721V71.5243Z" fill="#FFF1C9"/>
<path fill-rule="evenodd" clip-rule="evenodd" d="M142.721 88.9338H93.33V86.9994H142.721V88.9338Z" fill="#FFF1C9"/>
</svg>
