<svg width="235" height="217" viewBox="0 0 235 217" fill="none" xmlns="http://www.w3.org/2000/svg">
<path d="M124.38 83C56.3799 63.8 15.0461 75.5 2.8794 89.5C2.87943 160.5 -8.12061 233 12.8794 197.5C49.0613 136.335 186.38 228.5 219.88 215.5C246.68 205.1 231.046 98.8333 219.88 47C216.38 67 192.38 102.2 124.38 83Z" fill="white"/>
<path d="M123.21 61.1535C125.661 57.7636 127.379 53.9519 128.268 49.936C129.156 45.9201 129.196 41.7787 128.385 37.7482C127.575 33.7177 125.931 29.8771 123.545 26.4456C121.16 23.0141 118.081 20.059 114.484 17.749C110.887 15.4389 106.843 13.8192 102.581 12.9823C98.3201 12.1453 93.9257 12.1076 89.649 12.8712C85.3723 13.6347 81.297 15.1847 77.6559 17.4326C74.0148 19.6804 68.8902 23.5867 68.428 25.9721C68.428 25.9721 66.9091 31.8832 68.8878 34.7772C70.4677 37.088 72.2491 38.1116 75.1027 38.6819C78.7555 39.4119 84.28 36.1525 84.28 36.1525C85.4607 35.7534 86.6336 33.502 88.1674 32.5551C89.7013 31.6081 91.4181 30.9552 93.2197 30.6335C95.0213 30.3118 96.8725 30.3277 98.6676 30.6803C100.463 31.0329 102.167 31.7152 103.682 32.6884C105.197 33.6615 106.494 34.9064 107.499 36.3519C108.504 37.7975 109.197 39.4154 109.538 41.1133C109.879 42.8112 109.862 44.5558 109.488 46.2476C109.114 47.9394 108.249 49.4198 107.358 50.9731C107.358 50.9731 106.181 56.8338 108.253 59.7623C110.17 62.4724 113.079 63.1183 116.535 63.0862C119.262 63.061 123.21 61.1535 123.21 61.1535Z" fill="#F8DC85"/>
<path fill-rule="evenodd" clip-rule="evenodd" d="M86.9646 17.5778C80.424 19.1404 74.525 22.2736 70.7203 26.492L70.0248 25.9349C73.9787 21.551 80.0599 18.34 86.7403 16.7439C93.423 15.1474 100.746 15.1569 107.204 17.2584C113.671 19.3628 119.267 23.5658 122.454 30.3333C125.638 37.0924 126.397 46.3619 123.301 58.5719L122.413 58.372C125.479 46.2806 124.698 37.2165 121.62 30.6824C118.547 24.1567 113.161 20.1069 106.906 18.0715C100.642 16.0331 93.503 16.0157 86.9646 17.5778ZM105.026 22.2694C95.6949 19.5422 84.0109 22.8127 76.0549 26.5974L75.6435 25.8295C83.6611 22.0155 95.6182 18.6192 105.296 21.4477C110.16 22.8693 114.433 25.8601 117.317 31.1168C120.193 36.3598 121.673 43.8288 121.031 54.1959L120.12 54.1458C120.756 43.8674 119.28 36.5692 116.506 31.5119C113.739 26.4682 109.666 23.6256 105.026 22.2694Z" fill="#FFEDBA"/>
<path fill-rule="evenodd" clip-rule="evenodd" d="M103.633 25.5488C96.3689 23.4149 87.518 26.0362 81.5479 29.1699L81.1038 28.4184C87.1519 25.2437 96.2828 22.4886 103.905 24.7275C107.738 25.8535 111.167 28.2376 113.606 32.4176C116.038 36.586 117.472 42.5182 117.381 50.7345L116.468 50.7254C116.559 42.5973 115.137 36.8269 112.806 32.8321C110.482 28.8489 107.243 26.6093 103.633 25.5488Z" fill="#FFEDBA"/>
<path fill-rule="evenodd" clip-rule="evenodd" d="M92.4068 29.2885C89.1038 30.0037 85.9285 31.2649 83.3737 32.6104L82.9285 31.8595C85.5461 30.4809 88.8021 29.1864 92.2024 28.4501C95.5996 27.7144 99.1707 27.5295 102.4 28.4021C105.644 29.2788 108.518 31.2174 110.5 34.6757C112.474 38.1204 113.548 43.046 113.272 49.8859L112.36 49.8533C112.632 43.1016 111.566 38.346 109.696 35.0845C107.835 31.8367 105.164 30.0441 102.148 29.229C99.1168 28.4098 95.7128 28.5725 92.4068 29.2885Z" fill="#FFEDBA"/>
<path d="M69.3699 26.6177C68.1529 32.0658 69.2787 41.4996 83.518 35.65C83.0618 31.2055 79.5934 23.1767 69.3699 26.6177Z" fill="#DDC479"/>
<path d="M108.619 50.7041C107.402 56.1522 108.528 65.586 122.768 59.7365C122.311 55.292 118.843 47.2632 108.619 50.7041Z" fill="#DDC479"/>
<path d="M139.217 104.126C142.938 106.254 147.067 107.67 151.37 108.294C155.672 108.918 160.062 108.738 164.29 107.763C168.518 106.787 172.501 105.037 176.011 102.611C179.521 100.186 182.49 97.1321 184.748 93.6251C187.006 90.1181 188.509 86.2262 189.172 82.1718C189.834 78.1173 189.642 73.9797 188.607 69.9951C187.573 66.0105 185.715 62.257 183.141 58.9488C180.567 55.6407 176.158 51.0238 173.606 50.7147C173.606 50.7147 167.263 49.597 164.3 51.6118C161.935 53.2206 160.944 54.951 160.491 57.6666C159.91 61.1429 163.655 66.1702 163.655 66.1702C164.14 67.2603 166.587 68.2453 167.672 69.6389C168.756 71.0325 169.538 72.6138 169.974 74.2923C170.41 75.9709 170.491 77.714 170.212 79.4219C169.933 81.1299 169.3 82.7694 168.349 84.2468C167.398 85.7242 166.147 87.0106 164.668 88.0324C163.189 89.0543 161.512 89.7917 159.73 90.2024C157.949 90.6132 156.1 90.6893 154.287 90.4265C152.475 90.1636 150.861 89.427 149.168 88.6705C149.168 88.6705 142.896 87.8723 139.902 89.9764C137.131 91.9235 136.6 94.6956 136.817 97.9463C136.987 100.511 139.217 104.126 139.217 104.126Z" fill="#F8DC85"/>
<path fill-rule="evenodd" clip-rule="evenodd" d="M183.478 67.7171C181.478 61.6441 177.847 56.2577 173.176 52.8995L173.73 52.2156C178.583 55.7055 182.307 61.2592 184.35 67.4621C186.394 73.667 186.77 80.5593 184.884 86.7477C182.996 92.9447 178.837 98.4331 171.834 101.79C164.84 105.142 155.058 106.346 141.957 104.076L142.122 103.23C155.096 105.477 164.659 104.264 171.42 101.023C178.173 97.7864 182.18 92.5042 184.007 86.5102C185.837 80.5075 185.478 73.7881 183.478 67.7171ZM179.46 84.9621C181.857 76.0369 177.776 65.2135 173.346 57.9255L174.138 57.4979C178.602 64.8422 182.831 75.916 180.345 85.1732C179.095 89.8258 176.151 94.0049 170.733 96.9961C165.329 99.9796 157.493 101.766 146.474 101.709L146.479 100.849C157.404 100.905 165.059 99.1317 170.272 96.2539C175.47 93.3839 178.267 89.4007 179.46 84.9621Z" fill="#FFEDBA"/>
<path fill-rule="evenodd" clip-rule="evenodd" d="M175.912 83.824C177.789 76.8751 174.545 68.6837 170.91 63.2304L171.683 62.7728C175.366 68.2973 178.767 76.7452 176.796 84.0363C175.805 87.7029 173.46 91.0564 169.159 93.572C164.871 96.0806 158.66 97.7434 149.95 98.0904L149.911 97.2309C158.528 96.8877 164.568 95.2453 168.678 92.8411C172.776 90.444 174.978 87.2774 175.912 83.824Z" fill="#FFEDBA"/>
<path fill-rule="evenodd" clip-rule="evenodd" d="M171.357 73.4561C170.425 70.3854 168.921 67.4636 167.36 65.1302L168.133 64.6715C169.731 67.0623 171.275 70.0583 172.234 73.2195C173.193 76.3779 173.577 79.729 172.823 82.8138C172.065 85.9131 170.162 88.7201 166.602 90.7677C163.057 92.8072 157.894 94.0781 150.632 94.1795L150.618 93.3194C157.787 93.2193 162.77 91.9645 166.127 90.0334C169.47 88.1105 171.229 85.5021 171.933 82.6206C172.642 79.7247 172.29 76.5297 171.357 73.4561Z" fill="#FFEDBA"/>
<path d="M172.972 51.6353C167.135 50.7772 157.198 52.3343 164.147 65.4266C168.832 64.7628 177.157 61.0753 172.972 51.6353Z" fill="#DDC479"/>
<path d="M149.52 89.8438C143.682 88.9857 133.746 90.5428 140.695 103.635C145.38 102.971 153.705 99.2837 149.52 89.8438Z" fill="#DDC479"/>
<path d="M82.7855 92.7194C78.9814 94.7132 75.6313 97.3936 72.9264 100.608C70.2215 103.822 68.2148 107.506 67.0209 111.451C65.827 115.396 65.4693 119.524 65.9681 123.599C66.4669 127.674 67.8125 131.617 69.9281 135.202C72.0438 138.787 74.8879 141.944 78.2982 144.493C81.7086 147.042 85.6183 148.933 89.8041 150.059C93.99 151.184 98.37 151.521 102.694 151.051C107.018 150.581 113.457 149.256 115.006 147.319C115.006 147.319 119.176 142.678 118.785 139.255C118.473 136.521 117.368 134.854 115.089 133.138C112.171 130.941 105.682 131.52 105.682 131.52C104.437 131.377 102.317 132.894 100.496 133.092C98.6742 133.29 96.829 133.148 95.0657 132.674C93.3023 132.2 91.6553 131.403 90.2187 130.329C88.782 129.255 87.5839 127.925 86.6926 126.415C85.8014 124.905 85.2345 123.244 85.0244 121.527C84.8143 119.81 84.965 118.072 85.4679 116.41C85.9709 114.748 86.8162 113.196 87.9557 111.842C89.0952 110.488 90.5734 109.53 92.109 108.519C92.109 108.519 95.9496 103.778 95.4917 100.285C95.0679 97.0522 92.775 95.2452 89.6709 93.8131C87.2218 92.6832 82.7855 92.7194 82.7855 92.7194Z" fill="#F8DC85"/>
<path fill-rule="evenodd" clip-rule="evenodd" d="M94.4432 146.987C101.033 148.354 107.796 148.048 113.204 145.885L113.561 146.677C107.941 148.924 100.977 149.224 94.2469 147.827C87.5142 146.429 80.9736 143.325 76.2018 138.717C71.4232 134.103 68.4216 127.981 68.7933 120.585C69.1646 113.198 72.8975 104.593 81.4751 94.9881L82.1734 95.542C73.6792 105.053 70.064 113.485 69.7051 120.626C69.3467 127.758 72.233 133.654 76.855 138.117C81.4836 142.586 87.856 145.619 94.4432 146.987ZM80.5333 135.159C87.5751 141.541 99.5745 143.556 108.487 143.536L108.489 144.397C99.5078 144.417 87.2044 142.398 79.9006 135.779C76.2298 132.453 73.8339 127.974 73.758 122.057C73.6824 116.155 75.9145 108.854 81.4216 99.8589L82.2122 100.289C76.7522 109.207 74.5978 116.353 74.6708 122.046C74.7435 127.724 77.0313 131.986 80.5333 135.159Z" fill="#FFEDBA"/>
<path fill-rule="evenodd" clip-rule="evenodd" d="M83.3388 132.817C88.8158 137.794 97.9741 139.193 104.801 138.915L104.841 139.775C97.9242 140.056 88.452 138.659 82.7052 133.436C79.8152 130.81 77.8844 127.229 77.6939 122.462C77.504 117.709 79.0451 111.8 83.0372 104.495L83.8486 104.889C79.8994 112.116 78.424 117.874 78.606 122.43C78.7875 126.972 80.6169 130.343 83.3388 132.817Z" fill="#FFEDBA"/>
<path fill-rule="evenodd" clip-rule="evenodd" d="M95.1524 134.219C98.4449 134.976 101.883 135.191 104.807 135.068L104.847 135.928C101.852 136.053 98.3257 135.834 94.9361 135.055C91.5496 134.277 88.2698 132.932 85.7991 130.788C83.3168 128.633 81.6707 125.685 81.5451 121.757C81.42 117.844 82.8038 112.987 86.3052 106.99L87.1049 107.405C83.6486 113.324 82.339 118.026 82.4574 121.731C82.5754 125.42 84.1097 128.152 86.4175 130.155C88.7369 132.168 91.8568 133.462 95.1524 134.219Z" fill="#FFEDBA"/>
<path d="M114.471 146.344C118.152 141.989 121.635 133.081 106.124 132.291C104.417 136.456 103.696 145.098 114.471 146.344Z" fill="#DDC479"/>
<path d="M90.8532 108.226C94.5337 103.871 98.0171 94.963 82.5064 94.1726C80.799 98.3379 80.0781 106.98 90.8532 108.226Z" fill="#DDC479"/>
</svg>
