<svg width="235" height="170" viewBox="0 0 235 170" fill="none" xmlns="http://www.w3.org/2000/svg">
<path d="M124.38 36C56.3799 16.8 15.0461 28.5 2.8794 42.5C2.87943 113.5 -8.12061 186 12.8794 150.5C49.0613 89.3354 186.38 181.5 219.88 168.5C246.68 158.1 231.046 51.8333 219.88 0C216.38 20 192.38 55.2 124.38 36Z" fill="white"/>
<path d="M137.075 67.1084L100.986 113.424C97.1421 118.459 97.7051 125.003 98.7987 133.562C99.6736 140.408 105.36 136.414 108.094 133.562L139.809 92.7835C142.543 89.2595 143.089 86.2389 143.089 85.7354C143.089 82.0436 144.558 74.4056 143.636 67.6118C142.543 59.5569 138.351 65.9337 137.075 67.1084Z" fill="#F8DC85"/>
<path d="M108.641 120.472C105.579 105.168 101.533 114.095 99.8923 120.472C99.1615 122.889 99.5878 128.527 99.8923 131.044C101.205 138.697 104.814 134.233 107.001 131.044C107.692 130.038 108.823 123.996 108.641 120.472Z" fill="#DDC479"/>
<path fill-rule="evenodd" clip-rule="evenodd" d="M141.772 66.7019C142.015 66.8659 142.069 67.1808 141.891 67.4054L106.349 112.211C106.171 112.436 105.829 112.485 105.585 112.321C105.341 112.157 105.288 111.842 105.466 111.617L141.007 66.8115C141.186 66.587 141.528 66.5379 141.772 66.7019Z" fill="#FFEDBA"/>
<path fill-rule="evenodd" clip-rule="evenodd" d="M143.411 70.7286C143.656 70.8922 143.71 71.207 143.532 71.4319L108.537 115.734C108.359 115.959 108.017 116.009 107.773 115.845C107.529 115.682 107.475 115.367 107.652 115.142L142.648 70.8397C142.825 70.6148 143.167 70.5651 143.411 70.7286Z" fill="#FFEDBA"/>
<path fill-rule="evenodd" clip-rule="evenodd" d="M143.412 76.7701C143.656 76.9339 143.709 77.2489 143.531 77.4735L109.63 120.265C109.452 120.49 109.11 120.539 108.866 120.375C108.622 120.212 108.568 119.897 108.746 119.672L142.648 76.8801C142.826 76.6555 143.168 76.6062 143.412 76.7701Z" fill="#FFEDBA"/>
<path fill-rule="evenodd" clip-rule="evenodd" d="M142.862 83.3127C143.107 83.4748 143.163 83.7894 142.987 84.0153L109.632 126.807C109.456 127.033 109.115 127.085 108.869 126.923C108.624 126.761 108.568 126.446 108.744 126.22L142.099 83.4282C142.275 83.2023 142.616 83.1506 142.862 83.3127Z" fill="#FFEDBA"/>
<path d="M157.134 3.50538L121.045 49.8213C117.202 54.8556 117.765 61.4003 118.858 69.9587C119.733 76.8054 125.42 72.8115 128.154 69.9587L159.868 29.1805C162.602 25.6565 163.149 22.6358 163.149 22.1324C163.149 18.4406 164.618 10.8026 163.696 4.00875C162.602 -4.04614 158.41 2.3307 157.134 3.50538Z" fill="#F8DC85"/>
<path d="M128.701 56.8693C125.639 41.5649 121.592 50.4925 119.952 56.8693C119.221 59.2858 119.647 64.9242 119.952 67.4414C121.264 75.0936 124.873 70.6298 127.06 67.4414C127.751 66.4345 128.883 60.3933 128.701 56.8693Z" fill="#DDC479"/>
<path fill-rule="evenodd" clip-rule="evenodd" d="M161.831 3.09887C162.075 3.26285 162.128 3.57781 161.95 3.80234L126.408 48.608C126.23 48.8325 125.888 48.8816 125.644 48.7176C125.4 48.5536 125.347 48.2387 125.525 48.0141L161.067 3.2085C161.245 2.98397 161.587 2.93489 161.831 3.09887Z" fill="#FFEDBA"/>
<path fill-rule="evenodd" clip-rule="evenodd" d="M163.471 7.12562C163.715 7.28916 163.769 7.60401 163.591 7.82887L128.596 52.1311C128.419 52.3559 128.077 52.4057 127.833 52.2421C127.588 52.0786 127.534 51.7637 127.712 51.5389L162.707 7.23666C162.885 7.0118 163.227 6.96209 163.471 7.12562Z" fill="#FFEDBA"/>
<path fill-rule="evenodd" clip-rule="evenodd" d="M163.471 13.1671C163.715 13.3309 163.769 13.6458 163.591 13.8705L129.689 56.6624C129.511 56.887 129.169 56.9363 128.925 56.7724C128.681 56.6086 128.628 56.2937 128.806 56.069L162.707 13.2771C162.885 13.0525 163.227 13.0032 163.471 13.1671Z" fill="#FFEDBA"/>
<path fill-rule="evenodd" clip-rule="evenodd" d="M162.921 19.7097C163.166 19.8718 163.223 20.1863 163.046 20.4122L129.692 63.2041C129.516 63.43 129.174 63.4817 128.929 63.3196C128.683 63.1575 128.627 62.843 128.803 62.6171L162.158 19.8252C162.334 19.5993 162.676 19.5476 162.921 19.7097Z" fill="#FFEDBA"/>
<path d="M89.068 16.1617L99.0254 72.4212C100.037 78.504 96.3721 84.1357 91.2594 91.3539C87.1692 97.1284 84.0044 91.223 82.9333 87.5485L74.2198 38.04C73.4727 33.7641 74.4417 30.8347 74.6848 30.3838C76.4677 27.0769 78.8407 19.6342 82.9478 13.9264C87.8172 7.15923 88.4925 14.5872 89.068 16.1617Z" fill="#F8DC85"/>
<path d="M88.7649 75.6002C98.8987 63.1454 98.2116 72.7984 96.6013 79.1817C96.0888 81.6453 92.984 86.5213 91.4956 88.6513C86.6246 94.9682 85.5477 89.4925 85.1284 85.7412C84.996 84.5566 86.8998 78.6821 88.7649 75.6002Z" fill="#DDC479"/>
<path fill-rule="evenodd" clip-rule="evenodd" d="M85.0575 13.8747C84.7598 13.9218 84.56 14.1821 84.6111 14.4561L94.8079 69.139C94.859 69.413 95.1417 69.597 95.4394 69.55C95.737 69.5029 95.9368 69.2427 95.8857 68.9686L85.6889 14.2857C85.6378 14.0117 85.3551 13.8277 85.0575 13.8747Z" fill="#FFEDBA"/>
<path fill-rule="evenodd" clip-rule="evenodd" d="M81.6441 16.8103C81.3464 16.8568 81.146 17.1168 81.1965 17.3909L91.1467 71.399C91.1972 71.6731 91.4795 71.8576 91.7772 71.8111C92.075 71.7646 92.2754 71.5047 92.2249 71.2306L82.2747 17.2225C82.2242 16.9484 81.9419 16.7638 81.6441 16.8103Z" fill="#FFEDBA"/>
<path fill-rule="evenodd" clip-rule="evenodd" d="M78.7258 22.2215C78.4282 22.2684 78.2281 22.5286 78.2791 22.8026L87.9791 75.0103C88.03 75.2843 88.3126 75.4685 88.6103 75.4216C88.9079 75.3747 89.108 75.1146 89.057 74.8405L79.357 22.6329C79.3061 22.3588 79.0235 22.1747 78.7258 22.2215Z" fill="#FFEDBA"/>
<path fill-rule="evenodd" clip-rule="evenodd" d="M76.0591 28.307C75.7611 28.3518 75.5589 28.6106 75.6075 28.885L84.8178 80.8687C84.8664 81.1432 85.1474 81.3293 85.4454 81.2846C85.7435 81.2398 85.9457 80.9811 85.8971 80.7066L76.6868 28.7229C76.6382 28.4484 76.3572 28.2623 76.0591 28.307Z" fill="#FFEDBA"/>
</svg>
