<svg width="235" height="170" viewBox="0 0 235 170" fill="none" xmlns="http://www.w3.org/2000/svg">
<path d="M124.38 36C56.3799 16.8 15.0461 28.5 2.8794 42.5C2.87943 113.5 -8.12061 186 12.8794 150.5C49.0613 89.3354 186.38 181.5 219.88 168.5C246.68 158.1 231.046 51.8333 219.88 0C216.38 20 192.38 55.2 124.38 36Z" fill="white"/>
<path d="M143.738 23.5053C143.75 23.511 143.761 23.5168 143.772 23.5226C148.193 25.8066 154.216 29.9407 156.07 34.4103C158.215 36.5331 158.962 38.7739 158.614 41C159.858 41.2572 170.627 36.9157 171.042 45.1549C177.752 48.9563 185.232 55.0087 183.81 59.8668C185.32 61.6315 186.537 63.9629 186.515 66.3333C197.548 73.6463 207.855 88.6885 188.4 98.409C184.987 105.855 171.321 118.11 143.959 107.559C141.815 107.777 139.441 107.93 136.907 108.027C114.439 122.617 90.2325 111.353 80.9376 103.897C75.9644 102.859 71.5194 101.726 67.5557 100.522C31.6248 102.212 34.3451 90.2933 40.1966 84.123C35.6214 76.7058 38.77 69.5714 43.3351 65.5484C44.5945 65.0536 47.1619 64.0639 47.3569 64.0639C46.5223 60.9368 50.6685 57.4142 54.3521 55.0719C54.2992 53.0857 55.6461 51.2504 57.5908 49.7434C59.5794 48.6375 64.5376 45.5958 65.3814 46.4258C61.6947 40.2392 62.8555 37.417 65.4815 37.3108C66.8358 37.2365 69.771 37.2955 70.6764 38.1255C68.1936 31.1395 70.3283 29.2175 72.6092 29.4084L74.6303 29.8252C74.8254 28.2452 76.2353 27.8902 78.0237 28.1872C78.0237 26.3026 79.3976 22.8131 84.8934 23.9314C83.7483 22.5837 83.0775 21.3312 82.7841 20.3444C82.8713 19.2392 84.8662 17.5822 92.1478 19.7957C90.7059 18.1562 90.0954 16.6558 90.0246 15.5522C89.7317 14.4451 90.5854 12.6414 96.3429 14.284C94.8629 12.9169 94.3866 11.7127 94.4888 10.8724C94.1254 9.37546 95.7541 6.47795 105.175 6.8634C113.626 4.1228 127.316 3.02557 133.554 14.83C134.265 16.1751 134.682 17.3026 134.843 18.2366C137.615 17.3587 143.319 16.6101 143.959 20.639C143.98 21.6644 143.903 22.619 143.738 23.5053Z" fill="#F8DC85"/>
<path fill-rule="evenodd" clip-rule="evenodd" d="M119.945 7.10107C115.009 6.29518 109.735 7.19313 105.655 8.51638C104.454 8.90591 103.371 9.32779 102.445 9.74453C101.614 10.1188 100.654 9.70996 100.3 8.83133C100.288 8.80321 100.278 8.77494 100.268 8.74656C98.6425 8.95867 97.5856 9.32145 96.9295 9.6894C96.2468 10.0723 96.106 10.3709 96.0824 10.48L96.1512 10.7636L96.1112 11.0926C96.1114 11.0914 96.1114 11.0922 96.1116 11.0951C96.1148 11.1456 96.157 11.8156 97.4192 12.9816C99.4468 14.8545 103.954 17.3315 112.835 19.4854C113.846 19.7305 114.911 19.971 116.034 20.2056C112.112 18.7248 108.213 16.996 105.035 15.45L104.733 15.3034L104.51 15.0442C103.983 14.4339 103.199 13.2732 103.472 11.8883C103.785 10.299 105.186 9.61702 106.459 9.34603C107.822 9.0559 109.754 9.05053 112.387 9.37139C115.049 9.69563 118.536 10.3677 123.063 11.5109C123.942 11.7328 124.484 12.6657 124.274 13.5946C124.065 14.5235 123.182 15.0966 122.304 14.8748C117.852 13.7507 114.501 13.1103 112.013 12.8071C109.621 12.5157 108.12 12.5487 107.237 12.7103C112.633 15.2853 119.711 18.1995 125.339 19.5663C128.354 20.2987 130.699 20.5198 132.12 20.1971C132.803 20.0419 133.057 19.8092 133.148 19.6781C133.218 19.5779 133.364 19.2963 133.234 18.5472C133.117 17.8689 132.789 16.9272 132.127 15.6732C129.308 10.3398 124.829 7.89853 119.945 7.10107ZM124.663 22.9507C124.687 23.1162 124.689 23.2882 124.665 23.4625C124.552 24.2883 123.905 24.893 123.146 24.9414C125.46 25.9535 127.612 26.6757 129.406 26.9258C131.65 27.2385 132.782 26.7571 133.316 25.9715C133.66 25.4663 133.931 24.6071 133.927 23.2149C133.563 23.3746 133.185 23.4925 132.807 23.5783C130.644 24.0698 127.711 23.6869 124.663 22.9507ZM136.804 19.5163C137.499 23.1603 137.307 26.0266 135.973 27.9897C134.347 30.3813 131.569 30.7156 128.979 30.3546C126.323 29.9845 123.272 28.8204 120.302 27.4088C117.387 26.0233 114.443 24.3473 111.868 22.7989C103.282 20.6936 98.2626 18.1931 95.5697 15.8569C93.2563 15.2337 92.12 15.3113 91.6572 15.4446C91.6978 16.026 92.0679 17.165 93.3458 18.6179C96.087 21.7346 102.606 25.8046 116.12 28.0261C117.291 28.2186 118.514 28.3971 119.791 28.5598C120.555 28.6573 121.133 29.298 121.219 30.0725C124.922 31.1924 128.959 31.5817 132.516 31.0434C137.647 30.2671 141.293 27.6918 142.134 23.1714C142.164 23.0071 142.191 22.8392 142.215 22.6677C142.216 22.6621 142.217 22.6565 142.217 22.6509C142.295 22.0798 142.333 21.4688 142.326 20.8156C142.23 20.3535 142.022 20.0775 141.731 19.8679C141.368 19.6054 140.804 19.4037 140.029 19.3172C139.006 19.2031 137.842 19.3135 136.804 19.5163ZM140.232 31.7653C138.136 33.2034 135.607 34.0695 132.98 34.467C127.246 35.3346 120.573 34.0971 115.367 31.402C113.306 31.0577 111.389 30.6691 109.609 30.244C115.514 34.9449 122.97 39.1735 129.222 39.4656C132.449 39.6164 135.249 38.7177 137.431 36.3877C138.486 35.2601 139.443 33.7496 140.232 31.7653ZM106.52 29.4325C98.7063 27.1803 93.9501 24.1882 91.2765 21.3325C87.9944 20.3769 86.0794 20.3289 85.0637 20.5261C84.8987 20.5582 84.7675 20.593 84.6639 20.627C84.9575 21.2313 85.4214 21.9649 86.1103 22.7756C86.6365 23.3949 87.286 24.0496 88.0749 24.7153C91.3725 27.498 97.0844 30.4522 106.256 31.8007C105.822 31.1896 105.811 30.3241 106.279 29.6947C106.352 29.5967 106.433 29.5092 106.52 29.4325ZM111.411 35.7965C111.324 35.8052 111.236 35.8066 111.146 35.8003C108.39 35.6054 105.86 35.28 103.542 34.8508C105.291 36.2936 107.562 37.9317 110 39.2653C113.497 41.1779 117.01 42.2824 119.755 41.7123C120.641 41.5283 121.501 42.1387 121.675 43.0758C121.849 44.0129 121.272 44.9219 120.385 45.1059C116.508 45.9112 112.149 44.3346 108.497 42.337C104.78 40.3035 101.454 37.6439 99.5032 35.793C98.9705 35.2876 98.8247 34.4963 99.0873 33.8359C98.374 33.6403 97.6854 33.4343 97.021 33.2189C97.3864 34.9346 98.5807 37.9179 101.339 41.6959C104.47 45.983 109.544 51.1924 117.452 56.571C125.923 57.4184 135.533 55.6074 143.237 52.4009C147.143 50.7754 150.488 48.8202 152.918 46.7364C154.996 44.9545 156.269 43.1993 156.788 41.598C156.397 42.1561 155.93 42.6943 155.388 43.2114C152.545 45.9268 147.448 48.2557 139.439 50.1175C138.637 50.6933 137.776 51.2339 136.854 51.727C130.997 54.8594 122.834 55.9914 112.1 52.2763C111.241 51.9792 110.773 51.0025 111.054 50.0949C111.267 49.4076 111.848 48.957 112.491 48.9077C111.978 48.5324 111.693 47.8625 111.813 47.1721C111.976 46.2329 112.829 45.6116 113.718 45.7845C131.024 49.1522 138.669 42.9472 140.214 40.2563C140.682 39.4399 141.688 39.1797 142.461 39.6752C142.924 39.9724 143.198 40.4741 143.242 41.0041C143.714 40.1688 144.077 39.3669 144.338 38.6386C144.658 37.7454 145.602 37.2955 146.447 37.6337C147.292 37.9718 147.717 38.97 147.398 39.8632C146.818 41.4815 145.862 43.3266 144.499 45.1511C148.87 43.7142 151.61 42.1589 153.195 40.6451C154.274 39.6153 154.757 38.6632 154.925 37.8288C155.093 36.9935 154.983 36.0947 154.572 35.1046C153.809 33.2655 152.097 31.3302 149.881 29.5131C148.357 28.2637 146.674 27.1333 145.069 26.1893C144.151 31.9286 142.331 36.0697 139.755 38.8208C136.783 41.9956 133.006 43.1043 129.077 42.9207C123.244 42.6481 116.852 39.5269 111.411 35.7965ZM145.527 22.522C147.568 23.6467 149.841 25.1035 151.886 26.7802C154.152 28.6381 156.291 30.8893 157.426 33.3892C159.082 35.1095 160.042 37.0045 160.276 38.9911C160.412 38.9626 160.558 38.9324 160.714 38.9008C161.922 38.655 163.52 38.3677 165.127 38.3548C166.705 38.3421 168.514 38.5894 169.999 39.6207C171.369 40.5733 172.274 42.0595 172.577 44.0702C175.78 45.9493 179.131 48.3262 181.614 50.8731C182.953 52.2463 184.108 53.7367 184.828 55.2931C185.418 56.5691 185.749 57.9673 185.576 59.3914C186.816 61.0222 187.873 63.0977 188.104 65.3565C193.516 69.1148 198.856 74.7797 200.468 81.0118C201.332 84.3482 201.123 87.8557 199.277 91.1966C197.519 94.3789 194.365 97.2512 189.607 99.7141C185.408 108.036 170.924 119.65 143.747 109.316C141.785 109.508 139.65 109.645 137.394 109.738C125.86 117.082 113.909 117.893 103.69 115.931C93.6066 113.995 85.1401 109.35 80.2541 105.516C75.4952 104.513 71.2108 103.422 67.3613 102.261C58.4442 102.666 51.8188 102.239 46.9849 101.237C42.1388 100.232 38.8888 98.6064 37.0041 96.4404C35.0232 94.1638 34.7306 91.5037 35.3746 89.0615C35.8764 87.1585 36.9373 85.3849 38.1604 83.896C36.2186 80.1726 35.9388 76.4665 36.7548 73.1298C37.6434 69.4963 39.7998 66.4126 42.288 64.2199L42.503 64.0304L42.7655 63.9272C43.3995 63.6781 44.3642 63.3039 45.1979 62.9909C45.3441 62.936 45.4874 62.8825 45.6251 62.8317C45.7629 60.9966 46.8479 59.3477 47.9692 58.0882C49.3152 56.5763 51.0893 55.194 52.7794 54.0654C53.1257 51.6836 54.8194 49.747 56.624 48.3485L56.722 48.2726L56.8295 48.2128C57.071 48.0785 57.3737 47.9053 57.7182 47.7082C58.6954 47.149 60.009 46.3974 61.2176 45.7945C61.7352 45.5363 62.2683 45.2873 62.7787 45.0821C61.7335 42.8815 61.272 40.9746 61.4388 39.3961C61.5564 38.2829 61.9949 37.2948 62.7831 36.5896C63.5483 35.9051 64.4914 35.6222 65.4074 35.5831C66.1117 35.545 67.1886 35.5394 68.2491 35.6418C67.7955 33.5137 67.8231 31.7796 68.3401 30.4274C68.7359 29.3921 69.4043 28.6288 70.247 28.17C71.0623 27.726 71.9438 27.6178 72.7384 27.6843L72.8311 27.6921L73.6548 27.8619C74.0264 27.3361 74.5329 26.9411 75.132 26.6924C75.6176 26.491 76.1368 26.3954 76.658 26.3696C76.9351 25.4309 77.45 24.4496 78.3112 23.6405C79.1816 22.8226 80.3054 22.2728 81.6893 22.0717C81.4942 21.655 81.3392 21.2505 81.2239 20.8626L81.1276 20.5387L81.1543 20.2004C81.2881 18.505 82.7355 17.4619 84.4727 17.1246C85.553 16.9148 86.9357 16.9122 88.6913 17.1963C88.5419 16.7279 88.4465 16.2703 88.4053 15.8285C88.2925 15.2709 88.3054 14.6004 88.5901 13.9393C88.9198 13.1738 89.5304 12.614 90.3008 12.284C91.0015 11.9839 91.8684 11.8558 92.9204 11.9039C92.8584 11.5959 92.831 11.2868 92.8414 10.9779C92.5968 9.32383 93.5404 7.67508 95.3965 6.63419C97.2768 5.5797 100.301 4.96225 104.962 5.12476C109.3 3.75226 114.975 2.79007 120.444 3.68314C126.078 4.60301 131.563 7.51528 134.982 13.9864C135.384 14.7469 135.715 15.4729 135.968 16.1644C137.301 15.8845 138.886 15.712 140.372 15.8779C141.45 15.9981 142.605 16.3098 143.577 17.0126C144.601 17.7523 145.336 18.8669 145.572 20.3525L145.591 20.4756L145.594 20.6004C145.608 21.2614 145.585 21.902 145.527 22.522ZM84.0735 25.538C82.0127 25.2239 80.9888 25.7516 80.4843 26.2256C80.2728 26.4243 80.1082 26.6547 79.9836 26.8946C80.4924 27.0538 81.001 27.2411 81.4971 27.4458C82.6814 27.8674 84.4164 28.4925 85.9195 29.0497C85.7527 28.2762 85.6269 27.5649 85.5354 26.9847C84.9963 26.5019 84.5099 26.0179 84.0735 25.538ZM89.5001 29.8736C89.6329 30.3484 89.7817 30.8223 89.9478 31.2772C92.1343 37.2644 97.1848 46.4 107.047 55.068C108.165 55.2699 109.299 55.4621 110.447 55.6428C105.127 51.4316 101.354 47.3764 98.7497 43.8093C95.3494 39.1524 93.8625 35.2174 93.6483 32.8063C93.6234 32.526 93.6632 32.2551 93.7548 32.0101C92.1699 31.3443 90.756 30.6243 89.5001 29.8736ZM100.826 53.8116C93.4737 46.2842 89.2751 38.7278 87.1482 33.1953C87.1017 33.1765 87.0522 33.1567 86.9998 33.1358C86.5059 32.9391 85.8175 32.6778 85.043 32.3898C83.4973 31.815 81.6477 31.1486 80.4159 30.7102L80.3777 30.6966L80.3401 30.681C79.4159 30.2974 78.527 30.021 77.77 29.8952C76.988 29.7654 76.5298 29.8277 76.3272 29.9118C76.3018 29.9224 76.2853 29.9312 76.2753 29.9373C76.269 29.9556 76.2596 29.9905 76.2524 30.0488C76.2159 30.3437 76.2671 31.0082 76.7385 32.2116C77.1974 33.3832 77.9946 34.9158 79.2503 36.8791C81.6016 40.5556 85.4611 45.5896 91.4101 52.3698C91.8088 51.8952 92.4408 51.6713 93.0599 51.8478C95.4143 52.519 98.0286 53.1864 100.826 53.8116ZM93.0254 55.4169C92.9477 55.7106 92.7956 55.9862 92.57 56.2102C91.9115 56.8639 90.8764 56.8296 90.258 56.1334C83.5538 48.5859 79.1913 42.9613 76.5403 38.8163C75.2155 36.7448 74.2897 34.9993 73.7161 33.5348C73.406 32.743 73.1783 31.9827 73.0612 31.2632L72.3997 31.1267C72.0967 31.1128 71.8818 31.17 71.7449 31.2446C71.6234 31.3108 71.4856 31.4288 71.373 31.7234C71.1043 32.4263 71.0017 34.1238 72.2077 37.5171C73.668 41.6262 76.8728 47.7396 82.9659 56.5846C92.1412 59.1144 104.132 61.6322 116.289 62.9081C128.722 64.2129 141.195 64.2035 150.984 61.6673C153.41 61.0388 155.656 60.2587 157.687 59.3138C162.456 57.0944 165.974 53.9985 167.923 49.8618C168.604 48.4166 169.105 46.8234 169.397 45.0645C169.286 43.5913 168.766 42.9031 168.202 42.5108C167.511 42.0308 166.472 41.8026 165.151 41.8132C163.858 41.8236 162.505 42.0585 161.331 42.297C161.118 42.3404 160.9 42.3861 160.688 42.4306C160.415 42.4879 160.153 42.543 159.925 42.5878C159.145 45.1172 157.31 47.4236 154.979 49.4226C152.216 51.7914 148.552 53.9057 144.435 55.619C136.212 59.0417 125.899 60.9792 116.731 59.9707C113.078 59.5689 109.485 59.0264 106.061 58.3977C101.302 57.524 96.8606 56.4824 93.0254 55.4169ZM172.16 47.8007C171.966 48.5355 171.736 49.2477 171.474 49.9375C172.535 50.6721 173.563 51.5586 174.376 52.5681C175.511 53.9775 176.412 55.8761 175.971 58.0197C175.535 60.1375 173.907 61.903 171.324 63.3597C170.242 63.9699 168.947 64.5535 167.413 65.106C171.496 64.6401 174.616 63.9756 176.939 63.1795C180.687 61.8948 181.935 60.4223 182.248 59.3554C182.443 58.6868 182.375 57.863 181.889 56.8128C181.397 55.7492 180.529 54.578 179.337 53.3556C177.412 51.3818 174.819 49.4511 172.16 47.8007ZM160.465 63.4968C164.843 62.5131 167.829 61.4114 169.784 60.3084C172.003 59.0567 172.636 57.9579 172.775 57.2844C172.908 56.6367 172.697 55.8172 171.886 54.8105C171.384 54.1874 170.722 53.5871 169.984 53.046C167.724 56.8875 164.318 59.7735 160.196 61.8961C160.291 62.4369 160.381 62.9705 160.465 63.4968ZM157.112 63.2946C155.949 63.7578 154.74 64.1736 153.493 64.5453C155.862 72.1695 156.208 78.0452 154.894 82.4644C153.441 87.3497 150.055 90.1515 145.917 91.497C141.851 92.8191 137.006 92.7675 132.297 92.0431C129.013 91.5379 125.727 90.6948 122.711 89.7022C125.898 91.0877 129.282 92.2897 132.649 93.1164C138.902 94.6518 144.856 94.8341 149.379 92.7803C150.971 92.0574 152.388 91.0571 153.594 89.7332C155.996 87.0959 157.703 83.0069 158.064 76.8136C158.22 74.1475 158.125 71.1029 157.73 67.6385C157.661 67.0377 157.584 66.4245 157.497 65.7987C157.384 64.9853 157.256 64.1508 157.112 63.2946ZM125.017 86.8226C127.508 87.582 130.146 88.2174 132.768 88.6207C137.252 89.3104 141.548 89.2992 144.955 88.1914C148.29 87.107 150.708 85.0086 151.773 81.427C152.81 77.9406 152.644 72.7948 150.309 65.3815C140.246 67.6942 127.957 67.608 115.966 66.3496C103.364 65.0271 90.9592 62.3948 81.5705 59.773L81.0109 59.6168L80.6689 59.1232C74.5616 50.3114 71.0952 43.9251 69.3691 39.3444C69.3328 39.3324 69.2921 39.3197 69.2464 39.3067C68.939 39.2188 68.5402 39.1484 68.082 39.0992C67.167 39.0009 66.1806 39.0038 65.5663 39.0375L65.5552 39.0381L65.5441 39.0386C65.1508 39.0545 64.9688 39.1648 64.8963 39.2297C64.8435 39.2769 64.7299 39.4009 64.6899 39.7799C64.5962 40.6665 64.9714 42.4933 66.7654 45.5038C67.2546 46.3246 67.8399 47.218 68.5328 48.186C71.3948 52.1843 76.0361 57.3775 83.147 63.8917C83.7048 64.1628 84.3162 64.4453 84.9785 64.7359C87.806 65.9766 91.534 67.3528 95.9414 68.6204C107.757 72.0186 124.311 74.5952 141.361 71.7972C143.143 71.5047 144.93 71.1537 146.718 70.7388C147.6 70.534 148.472 71.1242 148.666 72.057C148.86 72.9898 148.301 73.912 147.419 74.1168C146.986 74.2173 146.553 74.3142 146.12 74.4076C146.362 74.6036 146.587 74.7983 146.795 74.9919C147.81 75.9381 148.606 77.0276 148.805 78.2861C149.027 79.6809 148.457 80.8301 147.651 81.6459C146.889 82.4159 145.843 82.9833 144.746 83.4222C142.531 84.3085 139.541 84.888 136.496 85.2602C133.527 85.6232 130.4 85.801 127.688 85.8475C126.788 86.195 125.898 86.5198 125.017 86.8226ZM133.915 82.0577C134.655 81.9909 135.393 81.9135 136.12 81.8247C139.088 81.4618 141.757 80.9205 143.588 80.1876C144.515 79.8168 145.09 79.45 145.389 79.1471C145.528 79.0066 145.568 78.9189 145.577 78.8948C145.581 78.8853 145.583 78.8851 145.579 78.8581C145.562 78.7521 145.424 78.3246 144.632 77.5867C143.985 76.9841 143.017 76.2816 141.643 75.4828C141.448 75.7513 141.178 75.9624 140.85 76.0748C126.53 80.995 114.808 82.39 105.937 82.1082C97.1122 81.8279 91.0092 79.8833 88.0001 78.0021C87.2225 77.516 86.9649 76.4555 87.4247 75.6335C87.8845 74.8114 88.8876 74.5391 89.6652 75.0252C92.0291 76.503 97.5249 78.381 106.035 78.6513C111.738 78.8325 118.752 78.2892 127.003 76.4438C114.955 76.5181 103.834 74.4644 95.1972 71.9904C88.0622 71.0694 82.0423 70.047 76.9915 68.9543C82.9742 77.5116 95.0591 89.4629 114.606 85.9974C116.062 85.7394 117.555 85.415 119.085 85.0187C121.565 84.3764 124.143 83.545 126.819 82.5006C128.385 81.8892 129.985 81.2048 131.619 80.4426C132.445 80.0569 133.411 80.4525 133.775 81.3262C133.875 81.5644 133.919 81.8135 133.915 82.0577ZM77.252 62.9731C72.6731 58.5358 69.2775 54.7296 66.8348 51.5079C66.0855 52.0683 65.4316 52.723 64.9916 53.4109C64.3711 54.3812 64.2381 55.2802 64.6508 56.2089C65.1257 57.2776 66.473 58.7423 69.6914 60.2906C71.5938 61.2058 74.0722 62.1127 77.252 62.9731ZM64.8714 48.7405C64.7339 48.5312 64.6009 48.3248 64.4724 48.1211C63.9945 48.2729 63.3543 48.5528 62.6135 48.9223C61.4943 49.4806 60.3262 50.149 59.3636 50.6998C59.0368 50.8868 58.7337 51.0602 58.4642 51.2112C56.7062 52.5995 55.9583 53.9383 55.9873 55.023C56.0123 55.9602 56.6433 57.4514 59.4225 59.2537C61.1291 60.3605 63.523 61.4981 66.7732 62.6217C64.1828 61.147 62.5008 59.504 61.69 57.6795C60.664 55.3707 61.1957 53.1718 62.2817 51.4737C62.9661 50.4036 63.8909 49.4845 64.8714 48.7405ZM65.9699 65.9824C62.4359 64.7744 59.7255 63.5075 57.712 62.2017C55.6543 60.8673 54.182 59.3924 53.3897 57.7838C52.2427 58.6241 51.1731 59.5356 50.3514 60.4586C49.0247 61.9487 48.7663 62.9761 48.9312 63.5942C49.1253 64.3215 49.9763 65.5097 52.9427 66.6318C54.5106 67.2248 56.8039 67.4312 60.055 67.4802C60.6871 67.4898 61.4717 67.3525 62.4472 67.0882C63.2249 66.8775 64.0437 66.6099 64.9409 66.3166C65.1688 66.2421 65.4018 66.1659 65.6404 66.0886C65.7493 66.0534 65.8591 66.0179 65.9699 65.9824ZM72.1691 68.0921C70.3654 68.231 68.5016 68.779 66.5987 69.3954C66.3824 69.4654 66.1644 69.5367 65.9456 69.6083C65.0405 69.9043 64.1227 70.2045 63.2591 70.4385C62.5563 70.6289 61.8351 70.7914 61.1218 70.8762C61.1092 70.9756 61.1058 71.0788 61.113 71.1852C61.1377 71.5492 61.2972 72.0992 61.9034 72.7769C63.1022 74.1168 65.9079 75.7858 71.8212 77.0008C72.1964 75.922 72.4577 74.3692 72.5205 72.6247C72.5831 70.8865 72.4384 69.2586 72.1691 68.0921ZM68.7309 79.8236C64.0523 78.6002 61.1559 76.9744 59.5267 75.1533C58.4828 73.9863 57.9366 72.7095 57.8501 71.4323C57.8373 71.2434 57.8348 71.0577 57.8416 70.8757C56.1629 70.7977 54.6304 70.6412 53.2871 70.3238C53.2079 70.8429 53.2446 71.5345 53.5304 72.431C54.0612 74.0959 55.4407 76.3793 58.3776 79.1813C62.5755 80.2629 65.5577 80.428 67.627 80.0806C68.0316 80.0126 68.3983 79.9259 68.7309 79.8236ZM63.8717 83.6409C68.2315 86.7347 74.2109 90.1923 82.306 93.933C83.9152 94.302 85.5905 94.6607 87.3344 95.0078C89.2277 95.3846 91.2017 95.7477 93.2594 96.0957C93.5463 96.1442 93.8038 96.2689 94.0164 96.4471C104.837 98.6848 117.527 100.863 126.426 101.388C129.124 101.548 131.419 101.551 133.182 101.373C134.063 101.284 134.772 101.153 135.312 100.99C135.763 100.855 136.026 100.719 136.164 100.623C136.128 100.534 136.059 100.398 135.933 100.21C135.357 99.3538 134.038 98.1002 131.623 96.4142C125.56 94.8899 119.527 92.2516 114.595 89.5028C95.0869 92.716 82.5179 81.7414 75.7819 72.9457C75.6747 75.4181 75.198 78.1595 74.0884 79.9011C72.8974 81.7706 70.92 83.0294 68.1401 83.4962C66.8974 83.7049 65.4807 83.759 63.8717 83.6409ZM138.133 97.5807C138.305 97.7924 138.461 98.0007 138.599 98.206C139.09 98.9366 139.48 99.7994 139.478 100.749C139.476 101.787 139.009 102.619 138.356 103.203C137.751 103.744 136.98 104.085 136.205 104.318C135.412 104.556 134.493 104.714 133.494 104.816C131.496 105.018 129.016 105.005 126.244 104.842C115.177 104.188 98.5864 101.067 86.7104 98.4028C84.887 98.0397 83.135 97.6637 81.4518 97.2759C63.4198 93.1219 53.1664 87.5941 47.8057 82.0825C42.818 76.9543 41.9871 71.7012 43.3901 67.833C41.7732 69.5365 40.4927 71.6618 39.922 73.9955C39.2517 76.7362 39.5289 79.8745 41.5668 83.1782C44.7778 88.3839 52.4568 94.132 68.0078 98.8594C71.9215 100.049 76.3209 101.17 81.2547 102.201C86.1842 103.23 91.6446 104.168 97.6838 104.993C109.271 105.962 124.876 106.758 136.848 106.299C139.358 106.203 141.698 106.052 143.802 105.837C146.085 105.604 148.064 105.299 149.664 104.916C151.154 104.56 152.397 103.421 153.134 102.087C153.498 101.428 153.701 100.785 153.762 100.26C153.825 99.7184 153.726 99.4406 153.667 99.3434C153.252 98.661 152.148 97.6308 149.911 96.2813C146.353 97.7 142.291 97.9958 138.133 97.5807ZM153.326 94.4449C154.313 95.1462 155.12 95.8422 155.729 96.5412C156.725 96.37 157.692 96.1965 158.63 96.0208C158.102 95.8468 157.67 95.3937 157.528 94.7845C157.311 93.8574 157.846 92.9199 158.723 92.6906C159.241 92.5551 159.747 92.4196 160.242 92.284C158.785 92.4396 157.199 92.5574 155.473 92.6342C154.8 93.3124 154.082 93.9143 153.326 94.4449ZM158.206 89.002C162.419 88.6639 165.452 88.0419 167.574 87.2678C170.275 86.2821 171.205 85.1645 171.485 84.3927C171.754 83.6521 171.624 82.6686 170.857 81.3975C170.194 80.2997 169.174 79.2018 168.043 78.2522C165.968 78.4454 163.694 78.573 161.205 78.6264C160.794 82.8113 159.766 86.248 158.206 89.002ZM161.399 75.1628C163.972 75.1016 166.29 74.9589 168.373 74.747C171.139 74.4657 173.484 74.0633 175.461 73.572C176.806 73.2378 177.975 72.8638 178.988 72.4615C183.777 70.5592 184.863 68.1563 184.88 66.3164C184.89 65.2141 184.53 64.0475 183.924 62.9371C182.614 64.4051 180.584 65.5658 177.947 66.4694C174.145 67.7724 168.687 68.6826 161.165 69.0784C161.356 71.2463 161.432 73.272 161.399 75.1628ZM172.294 77.7244C172.784 78.2985 173.234 78.9056 173.615 79.5371C174.647 81.2478 175.34 83.4284 174.539 85.6333C174.298 86.2957 173.941 86.9058 173.475 87.4655C173.722 87.3376 173.961 87.2101 174.192 87.083C177.524 85.2467 178.904 83.6364 179.361 82.4839C179.748 81.5058 179.568 80.593 178.816 79.5975C178.105 78.6567 176.957 77.7784 175.641 77.0756C174.604 77.3171 173.49 77.5342 172.294 77.7244ZM180.742 76.6917C180.965 76.9312 181.176 77.1802 181.371 77.4386C182.654 79.1356 183.348 81.3724 182.378 83.8206C181.476 86.0944 179.266 88.187 175.704 90.1498C172.555 91.8854 168.164 93.6202 162.211 95.3114C169.178 93.8503 174.346 92.2629 178.084 90.6391C183.118 88.4529 185.25 86.3347 185.944 84.6978C186.547 83.276 186.216 81.7876 184.86 80.1186C183.854 78.8807 182.394 77.7077 180.742 76.6917ZM183.167 74.2003C184.75 75.2522 186.219 76.4841 187.341 77.8651C189.15 80.0914 190.25 82.999 188.929 86.1131C187.699 89.0122 184.551 91.5697 179.327 93.8382C174.318 96.0138 167.106 98.0488 157.052 99.8161C157.058 100.11 157.042 100.4 157.009 100.682C156.885 101.746 156.509 102.834 155.959 103.831C155.858 104.015 155.749 104.198 155.633 104.379C170.887 102.849 181.131 100.128 187.701 96.8454C192.386 94.5046 195.078 91.9411 196.452 89.4524C197.801 87.0104 197.974 84.4777 197.313 81.9244C196.118 77.3075 192.195 72.6777 187.623 69.2024C186.907 71.0877 185.451 72.7904 183.167 74.2003ZM151.506 108.222C165.638 107.085 176.119 104.992 183.696 102.261C178.618 107.57 168.371 112.713 151.506 108.222ZM46.2566 66.2634C46.8793 66.7644 47.0886 67.6812 46.7142 68.4391C45.5919 70.7106 45.4404 74.8263 50.0864 79.6032C53.074 82.6749 58.0012 85.9461 65.7382 88.9739C61.8232 86.5086 58.8037 84.194 56.5088 82.0533C53.129 78.9008 51.2289 76.0399 50.4305 73.5357C49.9183 71.9291 49.8576 70.4399 50.1782 69.1669C48.54 68.3501 47.2933 67.3593 46.5153 66.1666C46.4428 66.1936 46.3685 66.2214 46.2927 66.2499C46.2807 66.2544 46.2687 66.2589 46.2566 66.2634ZM40.0817 86.8757C39.351 87.8906 38.7978 88.9584 38.5257 89.9902C38.1368 91.4652 38.3127 92.836 39.4116 94.099C40.6068 95.4725 43.0481 96.8957 47.6146 97.8428C50.3129 98.4025 53.6831 98.7815 57.8508 98.908C49.0447 95.2686 43.3836 91.1444 40.0817 86.8757ZM89.1975 107.2C93.3913 109.407 98.5565 111.43 104.275 112.528C112.158 114.041 121.045 113.791 129.897 109.89C119.108 109.917 106.876 109.232 97.3851 108.437L97.3449 108.434L97.305 108.428C94.4821 108.043 91.7812 107.633 89.1975 107.2ZM137.862 47.0653C138.372 46.6865 138.851 46.292 139.302 45.8867C134.805 49.0489 126.737 51.5456 114.45 49.4289C123.801 52.3564 130.629 51.1804 135.378 48.6409C136.254 48.1721 137.065 47.6543 137.812 47.1028C137.828 47.09 137.845 47.0775 137.862 47.0653ZM84.3033 20.8183C84.301 20.817 84.3092 20.804 84.3349 20.7833C84.3185 20.8093 84.3057 20.8196 84.3033 20.8183ZM96.0803 10.5248C96.0782 10.5242 96.0764 10.5104 96.0814 10.4848C96.085 10.5125 96.0825 10.5253 96.0803 10.5248Z" fill="#FFEDBA"/>
</svg>
