<svg width="235" height="186" viewBox="0 0 235 186" fill="none" xmlns="http://www.w3.org/2000/svg">
<path d="M124.38 52C56.3799 32.8 15.0461 44.5 2.8794 58.5C2.87943 129.5 -8.12061 202 12.8794 166.5C49.0613 105.335 186.38 197.5 219.88 184.5C246.68 174.1 231.046 67.8333 219.88 16C216.38 36 192.38 71.2 124.38 52Z" fill="white"/>
<path d="M134.907 42.8644C134.083 39.8243 133.728 37.101 133.733 34.6696C131.418 35.0898 123.924 35.4576 112.462 33.5665C112.107 33.5079 111.749 33.4564 111.387 33.4115C110.052 33.2459 108.672 33.1719 107.268 33.1778C106.734 33.18 106.196 33.1938 105.656 33.2185C94.8471 33.7126 83.0356 38.572 78.7907 42.5928C77.8563 43.4779 77.2885 44.3223 77.1788 45.0706C76.5364 49.4509 75.6061 51.8041 75.8079 58.1507C75.8312 58.8825 75.6904 60.4686 75.7459 61.3158L76.8206 61.6853C77.7979 60.5619 80.1809 58.2539 83.4473 56.7615C87.0155 55.1312 92.0653 53.4534 98.85 52.105C107.055 50.4744 117.798 49.3256 131.526 49.3256C132.764 47.1529 133.892 44.9827 134.907 42.8644Z" fill="#F8DC85"/>
<path d="M107.268 33.1778C108.672 33.1719 110.052 33.2459 111.387 33.4115C111.341 32.4154 111.357 31.2948 111.454 30.0994C111.611 28.175 111.978 26.0569 112.638 23.9534C113.264 21.9543 114.156 19.9682 115.381 18.1738C116.574 16.4274 118.083 14.8624 119.974 13.6436C119.977 13.6414 119.981 13.6391 119.984 13.6369C122.746 11.8596 126.32 10.8202 130.909 11.0309C131.527 11.0989 132.134 11.2489 132.709 11.49C131.225 10.7146 120.621 4.13482 119.447 2.36335C118.444 0.850468 116.88 0.68237 116.223 0.787431C108.417 2.32184 104.423 8.12485 103.08 14.4979C102.685 16.371 102.52 18.2934 102.554 20.1712C102.609 23.2036 103.184 26.1196 104.156 28.5235C104.951 30.4896 106.01 32.1131 107.268 33.1778Z" fill="#F8DC85"/>
<path d="M139.056 32.9361C137.983 35.9492 136.6 39.3348 134.907 42.8644C133.892 44.9827 132.764 47.1529 131.526 49.3256C129.67 52.5795 127.565 55.8392 125.211 58.9387C119.423 66.5579 112.127 73.2097 103.328 76.4313C98.6022 78.1615 94.1014 79.2542 89.8949 79.8048C80.2461 81.0679 72.1453 79.479 66.4327 76.1891C63.7069 74.6193 61.5248 72.6622 59.9777 70.4429C58.5693 68.4225 57.6872 66.1847 57.4002 63.824C57.3245 63.2016 57.2902 62.5707 57.2985 61.9329C57.364 56.9263 58.8747 52.4078 60.8327 48.6952C58.2815 53.4755 53.2507 64.8011 53.5373 71.8612C53.7271 76.5394 57.2303 81.0146 60.7015 84.2048C62.4688 85.8291 64.2278 87.1203 65.537 87.9355C66.0779 88.2259 66.7974 88.5498 67.6864 88.8831C70.4573 89.9221 74.8754 91.0531 80.6698 91.5504C82.5743 91.5886 84.5059 91.6722 86.4472 91.8085C89.4827 91.8244 92.7898 91.6599 96.3424 91.2449C100.107 90.8052 103.849 89.732 107.447 88.2611C112.639 86.1387 117.534 83.1881 121.775 80.1182C127.233 76.1671 131.606 72.0181 134.133 69.1821C135.983 66.1354 139.363 59.443 138.073 57.0476C137.664 56.2871 137.526 54.2885 137.557 51.6895C137.565 50.9457 137.588 50.1528 137.622 49.3256C137.832 44.2028 138.477 37.7668 138.979 33.5665C139.005 33.3503 139.031 33.14 139.056 32.9361Z" fill="#F8DC85"/>
<path d="M72.5221 59.569C68.8444 56.0389 68.0634 52.9707 68.8369 50.4287C68.194 51.4686 67.2316 56.0091 68.2034 66.0303C68.2625 66.6402 68.3288 67.2704 68.4028 67.9214C68.5914 68.8213 69.3358 70.1402 70.9102 71.6182C73.8219 74.3515 79.5723 77.6287 89.8949 79.8048C94.1014 79.2542 98.6022 78.1615 103.328 76.4313C112.127 73.2097 119.423 66.5579 125.211 58.9387C124.044 59.2142 122.899 59.4751 121.775 59.7219C115.954 61.0004 110.713 61.9013 106.014 62.5016C104.333 62.7163 102.722 62.8926 101.178 63.0339C89.2765 64.1236 81.4085 63.1356 76.8206 61.6853C76.4399 61.565 76.0819 61.4415 75.7459 61.3158C74.8872 60.9943 74.1732 60.658 73.5967 60.3224C73.161 60.0687 72.8038 59.8154 72.5221 59.569Z" fill="#F8DC85"/>
<path d="M138.073 57.0476C139.363 59.443 135.983 66.1354 134.133 69.1821C131.606 72.0181 127.233 76.1671 121.775 80.1182C131.464 79.4784 149.459 75.3118 162.61 71.9197C166.573 70.8976 170.096 69.9459 172.819 69.1821C176.582 68.1758 182.589 63.7067 186.764 57.1363C189.345 53.0748 191.226 48.2103 191.445 42.8644L172.819 48.6952L138.073 57.0476Z" fill="#F8DC85"/>
<path d="M132.521 89.1962C131.327 88.7125 127.506 86.2196 121.775 80.1182C117.534 83.1881 112.639 86.1387 107.447 88.2611C107.828 90.2013 109.068 94.7119 110.974 97.2334C115.036 99.0066 118.716 101.271 121.775 104.128C124.927 105.862 129.417 106.874 131.267 107.164C141.642 104.773 151.889 101.526 158.132 97.391L155.568 107.319C166.887 102.655 172.102 96.2353 172.819 93.7664C154.049 99.0615 138.133 92.9259 132.521 89.1962Z" fill="#F8DC85"/>
<path d="M57.1194 93.2936C61.7761 97.6011 71.1251 107.256 71.2684 111.417C71.7929 111.776 75.2528 112.275 84.8801 111.477C85.1152 111.458 85.354 111.438 85.5965 111.417C95.7695 110.534 101.298 111.364 102.79 111.889C104.028 111.766 105.41 111.612 106.91 111.427C112.096 110.788 118.686 109.782 125.536 108.4C124.426 106.847 123.164 105.427 121.775 104.128C118.716 101.271 115.036 99.0066 110.974 97.2334C103.58 94.0052 94.9215 92.4038 86.4472 91.8085C84.3945 91.7978 82.466 91.7045 80.6698 91.5504C77.622 91.4892 74.6435 91.5441 71.8057 91.6845C66.1689 91.9634 61.0871 92.5797 57.1194 93.2936Z" fill="#F8DC85"/>
<path d="M129.118 115.514C132.414 116.775 135.984 119.506 137.357 120.715C138.657 121.287 139.988 121.686 141.297 121.952C145.759 122.86 149.971 122.229 151.864 121.66L152.759 118.193L155.568 107.319L158.132 97.391C151.889 101.526 141.642 104.773 131.267 107.164C129.353 107.605 127.435 108.017 125.536 108.4C118.686 109.782 112.096 110.788 106.91 111.427C120.521 110.964 124.999 113.938 129.118 115.514Z" fill="#F8DC85"/>
<path d="M103.08 14.4979C98.3268 15.7061 88.2061 19.4127 85.6271 24.8339C85.6919 24.8481 85.7568 24.8626 85.8217 24.8772C88.0331 25.3757 90.3066 26.0913 92.5098 26.9103C94.0858 23.5063 99.8864 20.9591 102.554 20.1712C102.52 18.2934 102.685 16.371 103.08 14.4979Z" fill="#F8DC85"/>
<path d="M140.76 19.8891C139.747 19.4017 138.387 18.7986 136.819 18.1738C132.1 16.2927 125.357 14.0251 119.984 13.6369C119.981 13.6391 119.977 13.6414 119.974 13.6436C118.083 14.8624 116.574 16.4274 115.381 18.1738C116.69 18.1218 117.992 18.2264 119.268 18.4521C126.861 18.6747 133.799 22.7377 136.319 24.7413C137.56 22.6847 139.129 21.0879 140.76 19.8891Z" fill="#F8DC85"/>
<path d="M143.526 21.2743C142.479 23.0875 141.546 25.1774 140.76 27.578C142.622 28.3689 144.879 30.4475 145.774 31.3879C148.968 30.378 152.564 29.2885 155.983 28.3247C155.227 27.8266 154.301 27.2265 153.297 26.5893C149.459 24.1532 144.485 21.1744 143.526 21.2743Z" fill="#F8DC85"/>
<path d="M168.684 38.6951C168.541 38.2619 167.415 36.7611 163.742 33.5665C161.255 35.8691 158.567 38.2025 155.838 40.3429L157.953 42.2134C161.649 40.6378 165.537 39.4668 168.684 38.6951Z" fill="#F8DC85"/>
<path d="M112.462 33.5665C123.924 35.4576 131.418 35.0898 133.733 34.6696C133.739 31.8104 134.244 29.3549 135.072 27.2628C133.646 25.7676 131.075 23.5858 127.864 21.7332C127.582 21.5724 120.943 21.772 116.044 22.8689C114.656 24.281 111.794 27.7041 111.454 30.0994C111.357 31.2948 111.341 32.4154 111.387 33.4115C111.749 33.4564 112.107 33.5079 112.462 33.5665Z" fill="#F8DC85"/>
<path d="M140.76 27.578C141.546 25.1774 142.479 23.0875 143.526 21.2743C144.429 19.7098 145.417 18.3513 146.469 17.1769C144.793 17.5711 142.732 18.4388 140.76 19.8891C139.129 21.0879 137.56 22.6847 136.319 24.7413C135.852 25.5156 135.431 26.355 135.072 27.2628C134.244 29.3549 133.739 31.8104 133.733 34.6696C133.728 37.101 134.083 39.8243 134.907 42.8644C136.6 39.3348 137.983 35.9492 139.056 32.9361C139.307 32.2319 139.54 31.548 139.757 30.8874C140.146 29.7041 140.48 28.5953 140.76 27.578Z" fill="#F8DC85"/>
<path d="M125.211 58.9387C127.565 55.8392 129.67 52.5795 131.526 49.3256C117.798 49.3256 107.055 50.4744 98.85 52.105C100.35 52.9075 102.983 53.9128 106.014 54.9458C111.382 56.7751 117.998 58.6913 121.775 59.7219C122.899 59.4751 124.044 59.2142 125.211 58.9387Z" fill="#F8DC85"/>
<path d="M121.775 59.7219C117.998 58.6913 111.382 56.7751 106.014 54.9458V62.5016C110.713 61.9013 115.954 61.0004 121.775 59.7219Z" fill="#F8DC85"/>
<path d="M138.979 33.5665C138.477 37.7668 137.832 44.2028 137.622 49.3256C140.291 49.4285 143.548 48.2583 147.028 46.3299C149.881 44.7492 152.884 42.659 155.838 40.3429C158.567 38.2025 161.255 35.8691 163.742 33.5665C165.308 32.1169 166.794 30.6796 168.162 29.3102C168.942 28.5296 169.683 27.771 170.379 27.0448C169.867 26.3146 169.307 25.5821 168.7 24.8648C166.014 25.5711 162.857 26.4175 159.565 27.3259C158.383 27.6521 157.184 27.9862 155.983 28.3247C152.564 29.2885 148.968 30.378 145.774 31.3879C144.225 31.878 142.77 32.3493 141.476 32.7785C140.439 33.1226 139.838 33.2541 138.979 33.5665Z" fill="#F8DC85"/>
<path d="M137.622 49.3256C137.588 50.1528 137.565 50.9457 137.557 51.6895C138.983 52.2148 143.446 51.9731 149.894 46.8041C149.297 46.8032 147.888 46.7069 147.028 46.3299C143.548 48.2583 140.291 49.4285 137.622 49.3256Z" fill="#F8DC85"/>
<path d="M147.028 46.3299C147.888 46.7069 149.297 46.8032 149.894 46.8041C152.131 45.0103 154.98 43.4809 157.953 42.2134L155.838 40.3429C152.884 42.659 149.881 44.7492 147.028 46.3299Z" fill="#F8DC85"/>
<path d="M152.043 81.0015C149.607 83.0187 138.013 87.3051 132.521 89.1962C138.133 92.9259 154.049 99.0615 172.819 93.7664C173.716 93.5547 174.787 93.0535 175.931 92.1905C180.711 88.584 186.764 78.6587 186.764 57.1363C183.168 66.7889 175.969 72.1305 172.819 73.5947C172.324 73.731 171.783 73.8823 171.207 74.0463C164.897 75.8407 154.275 79.1532 152.043 81.0015Z" fill="#F8DC85"/>
<path d="M172.819 12.922C166.653 10.045 154.633 8.06203 146.469 17.1769C145.417 18.3513 144.429 19.7098 143.526 21.2743C154.489 13.4592 163.381 18.5776 168.7 24.8648C169.307 25.5821 169.867 26.3146 170.379 27.0448C171.387 28.4841 172.206 29.9146 172.819 31.2026V37.8214C174.98 37.5062 180.515 37.065 185.373 37.8214C185.868 38.1465 186.332 38.4621 186.764 38.767C185.741 25.8239 177.041 16.144 172.819 12.922Z" fill="#F8DC85"/>
<path d="M60.8327 48.6952C58.8747 52.4078 57.364 56.9263 57.2985 61.9329C57.2902 62.5707 57.3245 63.2016 57.4002 63.824C60.4541 56.89 63.7391 54.1059 64.9999 53.5806C65.4297 50.0505 66.8528 46.9617 67.5105 45.8586C65.0162 37.3535 73.6806 39.9487 78.7907 42.5928C83.0356 38.572 94.8471 33.7126 105.656 33.2185C104.803 32.6979 103.669 32.0499 102.33 31.3413C99.6622 29.9291 96.1839 28.276 92.5098 26.9103C90.3066 26.0913 88.0331 25.3757 85.8217 24.8772C85.7568 24.8626 85.6919 24.8481 85.6271 24.8339C84.8915 24.6721 84.1633 24.5348 83.4473 24.4261C80.9399 24.2686 75.7459 25.025 75.0295 29.3115C73.5967 31.7804 70.5878 36.9074 70.0147 37.6638C69.4416 38.4203 68.4624 39.1347 68.0444 39.3973C66.13 40.9963 63.1643 44.2744 60.8327 48.6952Z" fill="#F8DC85"/>
<path d="M138.073 57.0476L172.819 48.6952L191.445 42.8644C190.864 42.0613 189.376 40.6088 186.764 38.767C186.332 38.4621 185.868 38.1465 185.373 37.8214C180.515 37.065 174.98 37.5062 172.819 37.8214C171.721 38.0077 170.3 38.2987 168.684 38.6951C165.537 39.4668 161.649 40.6378 157.953 42.2134C154.98 43.4809 152.131 45.0103 149.894 46.8041C143.446 51.9731 138.983 52.2148 137.557 51.6895C137.526 54.2885 137.664 56.2871 138.073 57.0476Z" fill="#F8DC85"/>
<path d="M98.8617 51.8155C92.077 53.1638 87.0272 54.8417 83.459 56.4719C83.2599 57.7215 86.5273 60.7255 101.19 62.7444C102.734 62.603 104.345 62.4268 106.026 62.212V54.6563C102.995 53.6233 100.361 52.618 98.8617 51.8155Z" fill="#DDC479"/>
<path d="M102.342 31.0517C101.912 30.0431 103.414 28.6542 104.167 28.234C103.196 25.8301 102.62 22.9141 102.565 19.8816C99.8981 20.6696 94.0976 23.2167 92.5215 26.6207C96.1956 27.9865 99.6739 29.6395 102.342 31.0517Z" fill="#DDC479"/>
<path d="M115.393 17.8842C114.167 19.6787 113.276 21.6647 112.649 23.6638C113.556 23.2311 114.744 22.8731 116.055 22.5794C120.955 21.4824 127.594 21.2829 127.876 21.4436C125.329 19.9736 122.379 18.7107 119.279 18.1625C118.003 17.9369 116.702 17.8323 115.393 17.8842Z" fill="#DDC479"/>
<path d="M119.996 13.3474C125.369 13.7356 132.112 16.0032 136.831 17.8842C136.503 14.2606 134.903 12.192 132.891 11.2749C132.88 11.2787 132.821 11.2528 132.721 11.2005C132.145 10.9593 131.539 10.8093 130.921 10.7413C126.332 10.5307 122.758 11.57 119.996 13.3474Z" fill="#DDC479"/>
<path d="M172.83 30.913C172.233 30.6496 170.466 29.9022 168.174 29.0207C166.806 30.39 165.32 31.8274 163.754 33.2769C167.426 36.4716 168.552 37.9724 168.695 38.4056C170.312 38.0091 171.732 37.7181 172.83 37.5319V30.913Z" fill="#DDC479"/>
<path d="M155.995 28.0352C157.196 27.6967 158.395 27.3625 159.577 27.0364C158.741 26.7239 156.317 26.1392 153.308 26.2998C154.312 26.937 155.239 27.537 155.995 28.0352Z" fill="#DDC479"/>
<path d="M140.771 27.2884C140.492 28.3058 140.158 29.4145 139.769 30.5978C140.391 30.7239 141.055 31.9775 141.488 32.4889C142.782 32.0598 144.237 31.5884 145.786 31.0984C144.891 30.158 142.634 28.0794 140.771 27.2884Z" fill="#DDC479"/>
<path d="M127.876 21.4436C131.086 23.2963 133.658 25.478 135.084 26.9732C135.443 26.0654 135.864 25.226 136.331 24.4518C133.811 22.4481 126.873 18.3852 119.279 18.1625C122.379 18.7107 125.329 19.9736 127.876 21.4436Z" fill="#DDC479"/>
<path d="M139.068 32.6465C139.043 32.8504 139.017 33.0607 138.991 33.2769C139.85 32.9646 140.45 32.833 141.488 32.4889C141.055 31.9775 140.391 30.7239 139.769 30.5978C139.552 31.2585 139.318 31.9423 139.068 32.6465Z" fill="#DDC479"/>
<path d="M83.459 56.4719C80.1926 57.9643 77.8097 60.2724 76.8323 61.3958C81.4202 62.846 89.2882 63.8341 101.19 62.7444C86.5273 60.7255 83.2599 57.7215 83.459 56.4719Z" fill="#DDC479"/>
<path d="M77.1905 44.7811C77.3002 44.0328 77.868 43.1883 78.8024 42.3033C75.5782 43.3067 71.306 45.4954 69.4741 48.7028C69.3821 48.8638 69.2963 49.0275 69.2171 49.1936C69.0709 49.5002 68.9471 49.8154 68.8486 50.1392C68.0751 52.6811 68.8561 55.7493 72.5338 59.2795C72.8155 59.5258 73.1727 59.7791 73.6085 60.0328C73.6085 58.9966 75.0826 58.1533 75.8196 57.8612C75.6178 51.5146 76.5481 49.1614 77.1905 44.7811Z" fill="#DDC479"/>
<path d="M68.8486 50.1392C67.1468 52.4505 62.9924 59.6892 59.9894 70.1533C61.5365 72.3726 63.7186 74.3297 66.4444 75.8995C66.1578 71.9236 67.5055 67.4704 68.2151 65.7407C67.2433 55.7196 68.2057 51.179 68.8486 50.1392Z" fill="#DDC479"/>
<path d="M66.4444 75.8995C72.157 79.1894 80.2578 80.7783 89.9067 79.5153C79.584 77.3392 73.8336 74.062 70.9219 71.3286L66.4444 75.8995Z" fill="#DDC479"/>
<path d="M65.5487 87.646C64.2396 86.8307 62.4805 85.5396 60.7132 83.9153C58.9819 86.5771 55.8416 92.1216 57.1311 93.0041C61.0988 92.2901 66.1806 91.6738 71.8174 91.3949L67.6981 88.5936C66.8091 88.2602 66.0897 87.9364 65.5487 87.646Z" fill="#DDC479"/>
<path d="M107.459 87.9716C103.86 89.4424 100.119 90.5156 96.3541 90.9554C92.8016 91.3703 89.4944 91.5349 86.4589 91.519C94.9332 92.1143 103.592 93.7156 110.986 96.9439C109.08 94.4224 107.84 89.9117 107.459 87.9716Z" fill="#DDC479"/>
<path d="M67.6981 88.5936L71.8174 91.3949C74.6552 91.2545 77.6337 91.1996 80.6815 91.2608C74.8871 90.7635 70.469 89.6325 67.6981 88.5936Z" fill="#DDC479"/>
<path d="M132.533 88.9067C138.025 87.0156 149.619 82.7291 152.055 80.7119C154.287 78.8637 164.909 75.5512 171.219 73.7567C168.783 72.353 164.472 71.7541 162.622 71.6302C149.471 75.0222 131.476 79.1888 121.787 79.8287C127.518 85.93 131.339 88.4229 132.533 88.9067Z" fill="#DDC479"/>
<path d="M172.83 68.8926C170.107 69.6563 166.584 70.6081 162.622 71.6302C164.472 71.7541 168.783 72.353 171.219 73.7567C171.795 73.5928 172.336 73.4415 172.83 73.3051C175.98 71.8409 183.179 66.4993 186.776 56.8468C182.6 63.4172 176.594 67.8862 172.83 68.8926Z" fill="#DDC479"/>
<path d="M172.83 93.4768C172.114 95.9458 166.899 102.365 155.58 107.03L152.771 117.904C157.667 116.275 168.496 112.293 172.651 109.394C174.607 107.082 178.003 100.348 175.943 91.9009C174.799 92.7639 173.728 93.2651 172.83 93.4768Z" fill="#DDC479"/>
<path d="M137.368 120.425C135.995 119.217 132.425 116.485 129.13 115.224C125.01 113.649 120.533 110.675 106.921 111.137C114.145 114.969 128.7 122.915 129.13 124.05C129.56 125.184 137.428 122.931 141.309 121.662C139.999 121.396 138.669 120.997 137.368 120.425Z" fill="#DDC479"/>
<path d="M125.548 108.11C127.446 107.727 129.365 107.315 131.279 106.874C129.428 106.585 124.939 105.573 121.787 103.839C123.176 105.137 124.437 106.558 125.548 108.11Z" fill="#DDC479"/>
<path d="M102.802 111.6C101.309 111.075 95.7812 110.245 85.6082 111.127C85.3657 111.148 85.1269 111.168 84.8918 111.188C86.1455 112.323 88.7962 114.909 89.3693 116.17C89.9425 117.431 101.309 113.34 106.921 111.137C105.422 111.322 104.039 111.476 102.802 111.6Z" fill="#DDC479"/>
<path d="M68.1204 46.9668C68.4937 47.7301 68.9407 48.5759 69.2171 49.1936C69.2963 49.0275 69.3821 48.8638 69.4741 48.7028C71.306 45.4954 75.5782 43.3067 78.8024 42.3033C76.4453 40.9145 70.8253 38.4837 67.2013 39.8705C67.1766 39.8939 67.1517 39.9175 67.1268 39.9413C65.973 41.1233 66.9776 44.3817 68.1204 46.9668Z" fill="#DDC479"/>
<path d="M60.8445 48.4057C58.8865 52.1183 57.3757 56.6367 57.3103 61.6434C57.3019 62.2811 57.3362 62.9121 57.4119 63.5345C60.4659 56.6004 63.7508 53.8163 65.0116 53.291C65.4414 49.761 66.8645 46.6722 67.5223 45.569C67.6244 45.9172 67.8535 46.4209 68.1204 46.9668C66.9776 44.3817 65.973 41.1233 67.1268 39.9413C65.264 41.7186 62.8253 44.6497 60.8445 48.4057Z" fill="#DDC479"/>
<path d="M107.279 32.8882C106.022 31.8236 104.962 30.2 104.167 28.234C103.414 28.6542 101.912 30.0431 102.342 31.0517C103.68 31.7604 104.815 32.4084 105.668 32.929C106.208 32.9043 106.745 32.8905 107.279 32.8882Z" fill="#DDC479"/>
<path d="M116.055 22.5794C114.744 22.8731 113.556 23.2311 112.649 23.6638C111.99 25.7674 111.622 27.8854 111.466 29.8099C111.806 27.4145 114.667 23.9915 116.055 22.5794Z" fill="#DDC479"/>
<path d="M147.04 46.0403C147.9 46.4174 149.309 46.5136 149.906 46.5146C152.143 44.7208 154.992 43.1914 157.965 41.9238L155.85 40.0533C152.896 42.3695 149.893 44.4596 147.04 46.0403Z" fill="#DDC479"/>
<path fill-rule="evenodd" clip-rule="evenodd" d="M116.34 0.961337C108.836 2.44143 104.942 8.02303 103.62 14.2943C103.232 16.1343 103.069 18.0252 103.103 19.8739C103.157 22.8618 103.724 25.726 104.674 28.0753C105.419 29.9183 106.388 31.4166 107.5 32.415C108.632 32.417 109.75 32.4706 110.843 32.5823C110.824 31.715 110.849 30.7704 110.93 29.7759C111.089 27.8247 111.461 25.6754 112.131 23.5378C112.768 21.5067 113.677 19.4792 114.932 17.6405C116.155 15.8504 117.71 14.2348 119.668 12.9724C119.668 12.9724 119.668 12.9724 119.668 12.9724C120.027 12.7412 120.398 12.5221 120.783 12.3162C123.301 10.9704 126.388 10.1879 130.141 10.2443C128.867 9.46184 127.251 8.44128 125.652 7.38904C124.156 6.40488 122.665 5.38585 121.471 4.49922C120.874 4.05616 120.346 3.64219 119.928 3.27949C119.519 2.92567 119.18 2.59172 118.994 2.3118C118.128 1.00467 116.817 0.889317 116.34 0.961337ZM130.873 11.2123C127.063 11.0404 123.996 11.7521 121.53 13.0251C126.374 13.635 131.971 15.477 136.198 17.117C135.737 14.1414 134.328 12.4823 132.694 11.7174C132.655 11.7053 132.621 11.6911 132.6 11.6817C132.56 11.6642 132.515 11.642 132.469 11.6183C131.96 11.4076 131.423 11.2745 130.873 11.2123ZM132.975 10.7832C132.226 10.3873 129.252 8.57769 126.295 6.63185C124.807 5.65271 123.335 4.64617 122.164 3.77662C121.578 3.3416 121.073 2.94483 120.681 2.6056C120.28 2.25748 120.031 1.9983 119.922 1.83536C118.789 0.125508 116.983 -0.102615 116.138 0.0325157L116.128 0.0342049L116.117 0.0362637C108.137 1.60499 104.049 7.47383 102.626 13.8361C100.211 14.474 96.6226 15.6852 93.2809 17.3871C89.9606 19.078 86.791 21.2995 85.3313 23.9918C84.7325 23.8675 84.1379 23.7596 83.5504 23.6705L83.524 23.6665L83.4973 23.6648C82.1761 23.5818 80.154 23.7369 78.3496 24.4848C76.5439 25.2332 74.9362 26.5887 74.5233 28.8747C73.8066 30.1092 72.7192 31.9683 71.7355 33.6207C70.7236 35.3206 69.8457 36.7603 69.5794 37.1118C69.0584 37.7994 68.1391 38.4745 67.7439 38.7228L67.7135 38.742L67.6863 38.7647C67.4131 38.9928 67.1209 39.2527 66.8142 39.5424C66.7836 39.5696 66.7542 39.5976 66.7259 39.6263C64.8277 41.4386 62.3607 44.4078 60.3577 48.2053C59.073 50.6127 57.1686 54.6585 55.62 58.9917C54.0756 63.3132 52.8654 67.9738 53.0121 71.5883C53.204 76.318 56.6414 80.7881 60.0497 83.9863C59.1961 85.3241 58.0814 87.2295 57.2912 88.9495C56.8665 89.8742 56.5245 90.7686 56.3746 91.5021C56.2999 91.8674 56.2671 92.2195 56.3107 92.5276C56.3522 92.8208 56.4727 93.1337 56.7652 93.3512C59.0828 95.4968 62.5558 98.9611 65.4672 102.403C66.9282 104.13 68.2398 105.842 69.1925 107.373C70.1564 108.922 70.7114 110.221 70.7431 111.141L70.7508 111.364L70.9503 111.5C71.0901 111.596 71.2724 111.663 71.4558 111.715C71.6501 111.77 71.8915 111.821 72.1815 111.866C72.762 111.955 73.5706 112.028 74.6525 112.063C76.7789 112.133 79.9969 112.061 84.6845 111.679C85.3014 112.246 86.1723 113.084 86.9722 113.933C87.8707 114.887 88.6201 115.795 88.8705 116.345C88.9798 116.586 89.2034 116.719 89.4087 116.787C89.6077 116.854 89.8324 116.876 90.0507 116.879C90.4904 116.884 91.0517 116.809 91.6808 116.687C92.9487 116.439 94.6244 115.969 96.4372 115.397C99.9607 114.286 104.073 112.767 106.884 111.669C110.491 113.585 115.793 116.455 120.282 119.002C122.578 120.304 124.655 121.519 126.182 122.477C126.947 122.957 127.566 123.367 128.004 123.689C128.223 123.85 128.388 123.983 128.501 124.086C128.598 124.176 128.625 124.216 128.626 124.215C128.626 124.215 128.626 124.215 128.626 124.215C128.783 124.601 129.211 124.737 129.516 124.789C129.855 124.846 130.272 124.841 130.719 124.804C131.622 124.729 132.802 124.506 134.062 124.214C136.527 123.644 139.397 122.787 141.346 122.154C145.861 123.039 150.099 122.404 152.049 121.818L152.333 121.732L153.231 118.255C155.702 117.427 159.5 116.065 163.214 114.554C167.051 112.994 170.852 111.253 172.985 109.764L173.04 109.725L173.082 109.676C175.097 107.294 178.491 100.542 176.533 92.0739C181.434 88.1983 187.29 78.1117 187.313 56.9694C189.893 52.876 191.773 47.9776 191.994 42.5916L192 42.4447L191.91 42.3208C191.298 41.4739 189.814 40.0324 187.295 38.238C186.185 25.2423 177.46 15.5393 173.183 12.275L173.136 12.2398L173.082 12.2145C169.929 10.743 165.283 9.50008 160.369 9.79104C155.479 10.0806 150.335 11.8901 146.169 16.4724C144.532 16.8819 142.588 17.7081 140.71 19.0325C139.793 18.6 138.641 18.0934 137.339 17.568C136.945 14.0049 135.31 11.8445 133.138 10.8548C133.084 10.8302 133.03 10.8063 132.975 10.7832ZM139.832 19.6933C138.933 19.2785 137.836 18.8036 136.609 18.3147C131.957 16.46 125.394 14.2558 120.152 13.8337C118.66 14.8219 117.412 16.0395 116.377 17.4011C117.377 17.4191 118.368 17.5211 119.342 17.6912C126.628 17.9188 133.279 21.5797 136.181 23.712C137.243 22.0868 138.506 20.7577 139.832 19.6933ZM135.661 24.5626C133.765 23.1341 129.948 20.8857 125.371 19.6049C126.348 20.0484 127.285 20.5367 128.171 21.0481C131.02 22.6921 133.374 24.5917 134.895 26.0648C135.131 25.5408 135.387 25.0403 135.661 24.5626ZM134.477 27.0751C133.061 25.6344 130.645 23.6178 127.66 21.8844C127.616 21.8804 127.552 21.8765 127.466 21.8734C127.263 21.8662 126.974 21.8649 126.61 21.8715C125.884 21.8845 124.886 21.928 123.741 22.0108C121.5 22.1729 118.726 22.4836 116.352 23.0011C115.675 23.7028 114.692 24.8347 113.825 26.0735C112.904 27.3903 112.16 28.7668 112.001 29.8562C111.918 30.8757 111.896 31.8386 111.921 32.7127C112.139 32.7433 112.357 32.7764 112.572 32.812C123.353 34.5905 130.566 34.3554 133.211 33.9843C133.259 31.3573 133.724 29.0637 134.477 27.0751ZM133.212 34.9406C130.267 35.3216 122.998 35.494 112.374 33.7414C112.028 33.6842 111.678 33.6338 111.324 33.5899C110.017 33.4278 108.663 33.355 107.282 33.3608C106.757 33.363 106.228 33.3766 105.695 33.4009C100.366 33.6445 94.772 34.9663 89.9809 36.7295C85.1783 38.497 81.2439 40.6851 79.1961 42.6248C78.2886 43.4844 77.8117 44.2392 77.7234 44.8414C77.552 46.0104 77.362 47.0294 77.1788 48.0119C76.6675 50.7543 76.2094 53.2115 76.3568 57.8477C76.3675 58.1838 76.3456 58.6838 76.3233 59.1917C76.32 59.2671 76.3167 59.3427 76.3135 59.4179C76.2938 59.8804 76.2775 60.3338 76.283 60.699L76.6568 60.8276C77.7833 59.6015 80.1036 57.4721 83.2115 56.0521C86.8279 54.3998 91.9227 52.7096 98.7434 51.3541C106.927 49.7278 117.602 48.5817 131.205 48.5633C132.353 46.5361 133.403 44.5125 134.356 42.533C133.613 39.7513 133.258 37.2264 133.212 34.9406ZM135.076 41.0049C136.468 37.9909 137.628 35.1079 138.555 32.505C138.805 31.8041 139.037 31.1236 139.253 30.4664C139.639 29.2892 139.971 28.1872 140.249 27.177L140.252 27.1671L140.255 27.1572C141.05 24.7314 141.995 22.6132 143.059 20.7705C143.676 19.7002 144.334 18.7228 145.026 17.832C143.789 18.2952 142.434 18.9928 141.116 19.9621C139.536 21.124 138.012 22.6737 136.805 24.6732C136.351 25.4262 135.942 26.2435 135.591 27.1286C134.784 29.1676 134.288 31.5706 134.282 34.3807C134.278 36.3772 134.521 38.5803 135.076 41.0049ZM130.662 49.5102C118.148 49.5551 108.171 50.5631 100.379 52.0079C101.868 52.6694 103.917 53.4303 106.22 54.2152C111.505 56.0161 118.009 57.9036 121.802 58.9413C122.813 58.7185 123.842 58.4843 124.888 58.2383C127.018 55.4197 128.943 52.4685 130.662 49.5102ZM123.968 59.4299C123.277 59.5887 122.593 59.7423 121.917 59.8908C116.08 61.1728 110.821 62.0769 106.103 62.6797C104.415 62.8953 102.797 63.0724 101.246 63.2144C98.3011 63.484 95.5982 63.6273 93.1263 63.668C90.7314 63.7074 88.5533 63.6504 86.5824 63.5184C82.3468 63.2348 79.0681 62.6047 76.6507 61.8405C76.6392 61.8369 76.6279 61.8332 76.6165 61.8296C76.4636 61.7811 76.3142 61.732 76.1682 61.6824C75.954 61.6096 75.747 61.5358 75.5474 61.461C75.1056 61.2957 74.6988 61.1256 74.3265 60.9527C73.9541 60.7798 73.6161 60.6039 73.312 60.4269C72.8525 60.1594 72.4665 59.8868 72.1551 59.6146L72.1463 59.6068L72.1378 59.5987C70.2241 57.7617 69.0555 56.0233 68.4795 54.3971C68.4737 54.4654 68.468 54.5345 68.4624 54.6046C68.2653 57.0924 68.2664 60.7077 68.7505 65.7003C68.8088 66.3016 68.8741 66.9228 68.9469 67.5643C69.1172 68.3463 69.7939 69.5781 71.314 71.0051C74.1247 73.6436 79.7418 76.8725 89.9305 79.0338C94.0605 78.485 98.4837 77.4073 103.133 75.7051C111.393 72.6807 118.346 66.5677 123.968 59.4299ZM87.0104 79.3388C78.7525 77.2803 73.7586 74.4972 70.9454 72.0286L67.2571 75.7938C72.2369 78.5013 78.9963 79.9432 87.0104 79.3388ZM66.9427 74.6666L70.2043 71.3369C68.9735 70.1112 68.2696 68.9775 67.982 68.0774C67.4616 69.884 66.9571 72.3061 66.9427 74.6666ZM67.6699 65.6783C67.1921 60.7024 67.1899 57.0693 67.3904 54.5389C67.4291 54.0503 67.4754 53.6022 67.5275 53.1928C65.5453 56.6564 62.7581 62.5027 60.5665 70.0743C61.8905 71.9223 63.6755 73.5836 65.869 74.9775C65.8248 71.2537 66.9958 67.3605 67.6699 65.6783ZM59.8027 68.9013C62.7579 59.0955 66.6518 52.2804 68.3521 49.9442C68.4313 49.6941 68.5244 49.4492 68.6302 49.2096C68.3165 48.6267 67.9637 47.9155 67.6232 47.1457C67.5684 47.0337 67.5146 46.922 67.4625 46.8119C66.7753 48.2632 65.8706 50.6746 65.5459 53.3412L65.5138 53.6047L65.2416 53.7181C64.7308 53.9309 63.6585 54.6838 62.3172 56.2893C61.0028 57.8624 59.4583 60.2206 57.9605 63.5975C58.2031 65.4616 58.8288 67.2458 59.8027 68.9013ZM57.8529 61.3626C59.094 58.8974 60.3405 57.0587 61.4514 55.7292C62.6745 54.2653 63.7568 53.3904 64.5092 52.993C64.9615 49.6482 66.2603 46.7301 66.9568 45.5035C66.6484 44.6631 66.3879 43.8057 66.2328 43.0074C66.1488 42.5753 66.0941 42.1526 66.0814 41.7539C64.5366 43.4784 62.8064 45.8087 61.3319 48.6045C59.4362 52.1988 57.9698 56.5499 57.8529 61.3626ZM67.5186 40.2658C67.3414 40.4572 67.214 40.7652 67.1699 41.2146C67.1251 41.6718 67.1714 42.2271 67.292 42.848C67.3824 43.3132 67.5124 43.8046 67.6694 44.3046L67.6942 44.2629L67.9459 45.1211C68.1504 45.6861 68.3803 46.2498 68.6178 46.7874C68.7476 47.0526 68.8898 47.3347 69.0318 47.6162C69.1072 47.7658 69.1826 47.9152 69.2559 48.0619C71.0829 45.2592 74.633 43.2847 77.604 42.2019C76.4633 41.614 74.932 40.9533 73.3128 40.496C71.2393 39.9104 69.1334 39.6902 67.5186 40.2658ZM77.2002 43.3902C74.4064 44.532 71.3813 46.4163 69.9543 48.9148C69.9466 48.9283 69.9389 48.9418 69.9313 48.9553C69.8533 49.0939 69.7803 49.2342 69.7126 49.3763C69.7076 49.3868 69.7027 49.3972 69.6978 49.4076C69.567 49.6854 69.4563 49.97 69.3677 50.2612C68.6563 52.599 69.3334 55.5038 72.9213 58.9515C73.0277 59.044 73.1475 59.139 73.2813 59.2357C73.4738 58.8741 73.7733 58.5657 74.0718 58.3215C74.4607 58.0033 74.9034 57.7478 75.2737 57.572C75.1526 53.0313 75.6207 50.5213 76.1254 47.8152C76.3066 46.8433 76.4926 45.846 76.6576 44.7204C76.7216 44.284 76.9112 43.8381 77.2002 43.3902ZM75.2693 58.6844C75.1105 58.7826 74.9511 58.8932 74.8036 59.014C74.4829 59.2763 74.2701 59.5425 74.1861 59.7958C74.3752 59.8977 74.5787 60 74.7969 60.102C74.9291 60.1638 75.0666 60.2255 75.2097 60.2869C75.2147 59.994 75.2269 59.6825 75.2397 59.3825C75.243 59.3054 75.2463 59.2292 75.2495 59.1541C75.2567 58.9911 75.2635 58.8334 75.2693 58.6844ZM78.723 41.6939C77.4889 41.0084 75.6339 40.1585 73.6412 39.5957C72.1649 39.1788 70.5598 38.9043 69.0586 39.0046C69.5265 38.6433 70.0814 38.1539 70.4735 37.6363C70.7804 37.2314 71.6934 35.7293 72.6875 34.0594C73.6916 32.3726 74.8029 30.4721 75.5198 29.2367L75.56 29.1675L75.5729 29.0905C75.8993 27.1374 77.2308 25.9937 78.8075 25.3402C80.3943 24.6825 82.2077 24.5356 83.3944 24.6063C84.0874 24.7121 84.7936 24.8455 85.5085 25.0028C85.5085 25.0028 85.5085 25.0028 85.5085 25.0028C85.5723 25.0168 85.6362 25.031 85.7001 25.0454C85.9725 25.1068 86.2459 25.1716 86.5202 25.2395C88.44 25.715 90.3999 26.3451 92.3124 27.056C93.3292 27.434 94.3312 27.8342 95.3051 28.2454C97.7381 29.2727 99.9958 30.3682 101.87 31.3538C101.935 31.3882 102 31.4225 102.065 31.4566C102.798 31.845 103.473 32.2169 104.071 32.5575C99.0807 32.9688 93.9804 34.2328 89.5663 35.8572C84.9229 37.566 80.983 39.6945 78.723 41.6939ZM104.071 32.5575C104.071 32.5575 104.071 32.5575 104.071 32.5575ZM105.823 32.4486C105.913 32.4449 106.003 32.4415 106.093 32.4384C105.247 31.5073 104.52 30.337 103.924 29.0096C103.696 29.2001 103.454 29.4359 103.252 29.6921C102.916 30.1171 102.775 30.4817 102.808 30.7471C104.001 31.3823 105.024 31.9657 105.823 32.4486ZM101.793 30.215C101.901 29.8208 102.133 29.4515 102.37 29.1519C102.713 28.7184 103.147 28.3285 103.53 28.0576C102.685 25.8464 102.164 23.2519 102.048 20.5497C100.774 20.985 99.0557 21.7119 97.4321 22.6634C95.6561 23.7043 94.0611 24.975 93.2404 26.3768C94.2481 26.7603 95.2386 27.1636 96.1992 27.5756C98.2381 28.4502 100.143 29.3646 101.793 30.215ZM92.2482 26.0077C93.1862 24.3612 94.9884 22.9595 96.8364 21.8765C98.6855 20.7927 100.65 19.988 102.024 19.5474C102.016 18.0029 102.141 16.4314 102.416 14.8827C100.087 15.5332 96.8447 16.6646 93.8192 18.2054C90.6204 19.8345 87.7528 21.877 86.3964 24.2288C86.7347 24.3089 87.074 24.3938 87.414 24.4831C89.028 24.907 90.6557 25.4295 92.2482 26.0077ZM101.204 62.2675C102.577 62.141 104.005 61.9866 105.488 61.802V54.9795C102.72 54.0282 100.278 53.0947 98.7711 52.3182C92.3259 53.6124 87.4859 55.2018 84.022 56.7489C84.0751 56.8979 84.2024 57.1084 84.4803 57.3762C84.9283 57.8078 85.7145 58.3323 86.9925 58.8969C89.5387 60.0218 93.9399 61.2633 101.204 62.2675ZM83.0668 57.1998C80.6467 58.4282 78.7808 60.0756 77.7331 61.166C80.0056 61.8107 83.0223 62.3435 86.8679 62.589C88.7729 62.7106 90.8813 62.7618 93.2034 62.7211C94.421 62.6997 95.6995 62.653 97.0361 62.5781C92.012 61.6968 88.6685 60.6953 86.5103 59.7419C85.1635 59.147 84.2537 58.56 83.6868 58.0139C83.4081 57.7453 83.1974 57.4711 83.0668 57.1998ZM106.563 55.3441V61.6641C110.572 61.1348 114.974 60.3874 119.79 59.3747C116.128 58.3466 110.999 56.8318 106.563 55.3441ZM112.557 26.0981C112.673 25.9222 112.791 25.7486 112.91 25.5779C113.449 24.8073 114.031 24.0777 114.562 23.4587C114.024 23.6214 113.533 23.7974 113.106 23.9869C112.891 24.6921 112.709 25.3985 112.557 26.0981ZM113.502 22.7961C114.236 22.5377 115.06 22.3143 115.923 22.121C118.414 21.5633 121.331 21.2364 123.653 21.0685C124.502 21.0071 125.275 20.9666 125.922 20.944C123.831 19.8954 121.541 19.0446 119.173 18.6258C118.03 18.4235 116.869 18.3223 115.705 18.3475C114.783 19.7419 114.059 21.2529 113.502 22.7961ZM186.137 37.4383C184.754 25.2362 176.569 16.1324 172.525 13.0247C169.514 11.6304 165.092 10.4591 160.441 10.7345C155.782 11.0104 150.882 12.7373 146.902 17.1798C146.322 17.8276 145.761 18.5339 145.222 19.3029C150.035 16.4791 154.478 16.0371 158.391 17.0374C162.685 18.1352 166.246 20.9463 168.916 24.0279C170.326 23.6579 171.598 23.3286 172.681 23.052L174.302 22.6379L173.251 23.8003C172.944 24.1399 172.614 24.6232 172.241 25.1691C172.205 25.2209 172.17 25.2732 172.133 25.326C171.798 25.8153 171.433 26.3409 171.045 26.7912C171.978 28.1553 172.743 29.5048 173.326 30.7303L173.368 30.8179V36.9824C175.877 36.6782 180.956 36.3618 185.479 37.0661L185.604 37.0857L185.706 37.1527C185.852 37.2487 185.996 37.3439 186.137 37.4383ZM172.293 37.1438V31.2065C171.57 30.8954 170.129 30.2945 168.318 29.5922C167.124 30.781 165.845 32.0177 164.505 33.2668C166.143 34.708 167.245 35.7916 167.967 36.58C168.354 37.0033 168.635 37.3456 168.832 37.6156C168.89 37.6953 168.943 37.7715 168.989 37.8438C170.237 37.5459 171.359 37.3126 172.293 37.1438ZM167.915 38.1089C167.745 37.8776 167.492 37.569 167.13 37.1731C166.442 36.4214 165.373 35.3689 163.764 33.9523C161.505 36.0293 159.089 38.1238 156.63 40.0728L158.077 41.3521C161.457 39.938 164.967 38.8588 167.915 38.1089ZM157.057 41.7909L155.827 40.703C153.309 42.6577 150.754 44.447 148.284 45.8941C148.405 45.9154 148.528 45.9343 148.652 45.9508C149.049 46.0039 149.427 46.0293 149.704 46.038C151.793 44.3949 154.368 42.9814 157.057 41.7909ZM148.597 46.8994C148.562 46.895 148.526 46.8904 148.491 46.8857C148.036 46.825 147.529 46.7285 147.083 46.5737C143.89 48.3163 140.809 49.4604 138.153 49.513C138.133 50.0438 138.119 50.5583 138.111 51.0524C138.545 51.134 139.212 51.1581 140.109 51.0153C141.27 50.8304 142.783 50.3706 144.6 49.4366C145.805 48.8174 147.142 47.9905 148.597 46.8994ZM138.102 52.012C138.1 53.0541 138.13 53.9753 138.197 54.7313C138.253 55.3634 138.334 55.8482 138.429 56.1848L172.669 47.9541L190.603 42.34C189.887 41.5412 188.545 40.3301 186.44 38.8462C186.042 38.5658 185.618 38.2761 185.166 37.978C180.425 37.2618 175.038 37.6896 172.925 37.9971C171.844 38.1806 170.441 38.4681 168.84 38.8608C165.715 39.627 161.859 40.7889 158.199 42.3491C155.253 43.6052 152.454 45.1113 150.267 46.8638C148.393 48.3662 146.677 49.4642 145.142 50.2531C143.235 51.2331 141.605 51.738 140.3 51.9457C139.43 52.0842 138.688 52.0929 138.102 52.012ZM190.882 43.2565L172.992 48.8568L138.779 57.0811C138.959 57.7277 138.936 58.5002 138.805 59.3028C138.634 60.3554 138.264 61.5428 137.801 62.7338C136.874 65.1175 135.553 67.576 134.618 69.1152L134.596 69.1516L134.567 69.1841C132.225 71.813 128.323 75.5474 123.451 79.2168C133.376 78.256 150.05 74.3798 162.471 71.1763C166.43 70.1551 169.948 69.2045 172.667 68.4419L172.671 68.4409L172.674 68.44C174.444 67.9667 176.816 66.6518 179.28 64.6116C181.735 62.5798 184.246 59.8581 186.307 56.6158C188.741 52.7862 190.539 48.2408 190.882 43.2565ZM121.714 80.4914C124.443 83.3665 126.731 85.4192 128.501 86.825C130.283 88.2405 131.565 89.0212 132.254 89.3133C136.511 92.1257 146.397 96.2175 158.906 96.0049L157.821 96.7235C151.691 100.784 141.585 104.004 131.258 106.39C129.382 106.084 125.131 105.103 122.13 103.47C119.063 100.617 115.392 98.3535 111.356 96.5775C110.479 95.3804 109.738 93.7233 109.164 92.0991C108.643 90.6265 108.27 89.2102 108.061 88.2447C112.998 86.1839 117.649 83.3977 121.714 80.4914ZM107.057 88.6524C103.613 90.0093 100.036 91.0021 96.4249 91.4238C95.3323 91.5514 94.2626 91.6556 93.2165 91.7382C98.9274 92.5237 104.562 93.8386 109.679 95.8754C109.069 94.7913 108.554 93.559 108.137 92.3799C107.644 90.9843 107.279 89.6377 107.057 88.6524ZM80.6493 91.7328C82.4502 91.8869 84.3817 91.9801 86.4359 91.9914C94.8626 92.5849 103.44 94.177 110.747 97.3671C114.762 99.1198 118.387 101.352 121.396 104.163C122.592 105.281 123.692 106.491 124.679 107.799C118.116 109.101 111.831 110.055 106.847 110.669C105.404 110.847 104.07 110.996 102.871 111.117C101.991 110.836 100.21 110.519 97.4952 110.364C94.6221 110.199 90.6672 110.213 85.5556 110.656C85.3138 110.677 85.0758 110.698 84.8415 110.717C80.042 111.114 76.7952 111.187 74.6925 111.118C73.6404 111.084 72.884 111.014 72.3674 110.934C72.1145 110.895 71.9271 110.855 71.7945 110.818C71.6645 109.709 71.0291 108.355 70.1351 106.919C69.1491 105.334 67.8055 103.583 66.3292 101.838C63.645 98.665 60.4956 95.4803 58.1879 93.3018C61.9775 92.6636 66.6764 92.1226 71.8477 91.8667C74.6662 91.7273 77.6237 91.6726 80.6493 91.7328ZM86.4819 91.0461C84.5434 90.9103 82.615 90.8268 80.714 90.7884C74.9788 90.2944 70.6216 89.1756 67.9088 88.1584C67.0463 87.835 66.3563 87.5242 65.8441 87.2504C64.5655 86.4527 62.8391 85.1852 61.1013 83.5881C57.6552 80.4208 54.2686 76.0538 54.086 71.5545C53.9461 68.1089 55.108 63.5767 56.6452 59.2753C56.7753 58.9112 56.9079 58.5492 57.0426 58.19C56.8825 59.3096 56.7884 60.4602 56.7731 61.6377C56.7645 62.294 56.7998 62.9435 56.8777 63.5845C57.1734 66.0168 58.0824 68.3215 59.5315 70.4003C61.123 72.6834 63.363 74.6897 66.1502 76.2949C71.9919 79.6591 80.2308 81.2596 89.9858 79.9827C94.2394 79.4258 98.7828 78.3219 103.546 76.5781C112.484 73.3056 119.853 66.5678 125.669 58.9116C128.038 55.7934 130.154 52.5164 132.018 49.2478C133.262 47.0651 134.394 44.8855 135.414 42.7584C136.4 40.7028 137.281 38.6958 138.058 36.782C137.655 40.6031 137.254 45.177 137.097 49.0188C137.063 49.8492 137.04 50.6462 137.031 51.3948C137.016 52.7008 137.042 53.8658 137.126 54.8051C137.207 55.7214 137.347 56.4922 137.599 56.9602C137.851 57.4287 137.902 58.1794 137.741 59.169C137.584 60.1402 137.236 61.2655 136.784 62.4278C135.888 64.7323 134.607 67.1233 133.693 68.6331C131.185 71.4415 126.852 75.5493 121.445 79.4634C117.229 82.516 112.372 85.4416 107.232 87.5426C103.671 88.9983 99.9826 90.0544 96.2835 90.4865C92.7634 90.8976 89.4876 91.061 86.4819 91.0461ZM139.492 33.6097C139.011 37.672 138.415 43.6585 138.192 48.5662C140.597 48.5013 143.536 47.423 146.754 45.6401C149.573 44.0781 152.551 42.0061 155.492 39.7002C158.208 37.5703 160.885 35.2464 163.364 32.951C164.925 31.5062 166.407 30.0734 167.77 28.7084C168.548 27.9301 169.287 27.174 169.98 26.4504C170.395 26.0166 170.802 25.4376 171.213 24.8381C171.251 24.7825 171.289 24.7267 171.327 24.6708C171.406 24.5551 171.486 24.4389 171.565 24.3238C170.737 24.5379 169.832 24.7739 168.865 25.028C166.182 25.7337 163.027 26.5796 159.738 27.4873C158.557 27.8131 157.359 28.147 156.159 28.4852C152.747 29.447 149.157 30.5346 145.968 31.5431C144.421 32.0324 142.969 32.5029 141.677 32.9311C141.208 33.0869 140.825 33.2003 140.476 33.3036C140.431 33.3167 140.388 33.3297 140.344 33.3426C140.055 33.4286 139.784 33.5105 139.492 33.6097ZM139.666 32.5474C139.778 32.5131 139.889 32.4799 140.001 32.4467C140.045 32.4336 140.089 32.4205 140.133 32.4073C140.305 32.3564 140.481 32.3044 140.669 32.2468C140.668 32.245 140.667 32.2433 140.666 32.2415L140.622 32.1786C140.501 32.0039 140.379 31.8276 140.252 31.6609C140.185 31.5721 140.12 31.4901 140.056 31.4163C139.931 31.7869 139.801 32.1641 139.666 32.5474ZM140.403 30.3664C140.487 30.4246 140.561 30.487 140.627 30.5468C140.816 30.7199 140.991 30.9314 141.147 31.1364C141.286 31.3201 141.42 31.5134 141.539 31.686C141.554 31.7073 141.568 31.7283 141.583 31.7489C141.624 31.8077 141.662 31.8628 141.698 31.914C142.678 31.5907 143.742 31.2458 144.863 30.8887C144.436 30.4759 143.884 29.9761 143.278 29.485C142.579 28.9191 141.828 28.3822 141.125 28.0001C140.912 28.7472 140.671 29.5379 140.403 30.3664ZM141.411 27.0501C142.294 27.4904 143.208 28.1438 144.005 28.7893C144.785 29.4208 145.478 30.0658 145.953 30.5432C148.752 29.6609 151.84 28.7241 154.837 27.8669C154.274 27.5004 153.651 27.0997 152.994 26.683C151.078 25.467 148.885 24.1191 147.054 23.0894C146.137 22.5738 145.321 22.1433 144.681 21.8495C144.36 21.7022 144.094 21.5946 143.889 21.5277C143.871 21.5219 143.854 21.5167 143.839 21.5118C142.934 23.1277 142.116 24.9655 141.411 27.0501ZM144.684 20.7968C144.84 20.8598 145.005 20.9318 145.178 21.0111C145.859 21.3238 146.706 21.7716 147.633 22.2927C149.439 23.3086 151.583 24.6238 153.469 25.8183C156.281 25.6958 158.584 26.1964 159.599 26.5347C162.528 25.7271 165.345 24.9699 167.813 24.3183C165.249 21.4383 161.952 18.9324 158.091 17.9454C154.235 16.9595 149.726 17.4665 144.684 20.7968ZM157.732 27.052C156.97 26.9098 156.015 26.7879 154.932 26.7542C155.347 27.0218 155.737 27.2759 156.095 27.5104C156.642 27.3566 157.188 27.2036 157.732 27.052ZM74.0894 90.829C73.3813 90.8516 72.6804 90.8797 71.9877 90.9129L70.7257 90.0547C71.7408 90.3276 72.8637 90.5901 74.0894 90.829ZM67.4238 89.0043C66.5459 88.6726 65.8237 88.3472 65.2689 88.0493L65.2533 88.0409L65.2384 88.0316C64.026 87.2767 62.447 86.1296 60.8297 84.6972C60.0147 85.993 59.0082 87.7352 58.2875 89.3039C57.872 90.2084 57.5625 91.0319 57.4322 91.6694C57.3668 91.9896 57.3523 92.2362 57.377 92.4107C57.3805 92.4348 57.3845 92.4564 57.3888 92.4758C60.983 91.8452 65.436 91.2983 70.36 91.0011L67.4238 89.0043ZM125.797 107.575C126.855 107.359 127.918 107.135 128.983 106.902C127.53 106.565 125.739 106.065 124.028 105.4C124.651 106.094 125.242 106.819 125.797 107.575ZM158.979 96.0036L156.351 106.178C161.443 103.963 165.203 101.405 167.799 99.0971C169.986 97.1536 171.322 95.4095 171.951 94.2105C167.418 95.3956 163.059 95.9288 158.979 96.0036ZM173.265 93.8558C172.76 95.2324 171.223 97.3978 168.563 99.7622C165.75 102.263 161.641 105.024 156.046 107.359L153.518 117.145C155.956 116.313 159.396 115.066 162.763 113.696C166.569 112.148 170.229 110.465 172.262 109.062C174.086 106.868 177.226 100.636 175.588 92.7543C174.769 93.2865 173.983 93.6484 173.265 93.8558ZM157.307 98.2111C150.916 102.056 141.186 105.08 131.415 107.331C129.495 107.774 127.571 108.187 125.668 108.571C121.4 109.432 117.232 110.148 113.44 110.72C116.886 110.918 119.556 111.386 121.74 111.963C124.15 112.601 125.984 113.383 127.56 114.055C128.189 114.323 128.777 114.574 129.344 114.791C132.683 116.068 136.253 118.787 137.686 120.035C138.92 120.571 140.183 120.948 141.43 121.202C145.567 122.044 149.487 121.524 151.419 121.003L157.307 98.2111ZM103.215 112.034C103.096 112.046 102.979 112.058 102.863 112.069L102.728 112.083L102.602 112.039C101.936 111.804 100.249 111.469 97.4254 111.307C94.6881 111.15 90.916 111.158 86.0376 111.565C86.579 112.08 87.2074 112.701 87.7996 113.33C88.65 114.233 89.4811 115.208 89.8299 115.913C89.8755 115.923 89.9509 115.932 90.0653 115.933C90.3788 115.937 90.8433 115.881 91.4482 115.764C92.6482 115.529 94.2725 115.076 96.0745 114.507C98.3756 113.781 100.936 112.878 103.215 112.034ZM108.767 111.567C112.278 113.444 116.888 115.951 120.864 118.207C123.164 119.512 125.258 120.736 126.806 121.707C127.579 122.192 128.224 122.618 128.693 122.963C128.927 123.135 129.126 123.293 129.277 123.433C129.393 123.54 129.533 123.68 129.611 123.836C129.633 123.843 129.667 123.852 129.719 123.86C129.908 123.892 130.206 123.897 130.618 123.863C131.432 123.795 132.543 123.588 133.789 123.3C135.662 122.866 137.784 122.261 139.543 121.72C138.735 121.486 137.926 121.199 137.128 120.848L137.05 120.813L136.989 120.759C135.631 119.565 132.118 116.883 128.916 115.658C128.286 115.417 127.663 115.151 127.013 114.874C125.461 114.212 123.755 113.484 121.43 112.869C118.465 112.084 114.518 111.498 108.767 111.567ZM129.581 123.823C129.581 123.823 129.584 123.824 129.588 123.827C129.583 123.825 129.581 123.824 129.581 123.823ZM133.647 89.028C139.758 92.7023 154.918 98.0333 172.666 93.0264L172.679 93.0229L172.691 93.02C173.492 92.831 174.493 92.3715 175.593 91.5418C179.997 88.2191 185.72 79.147 186.205 59.5585C182.349 67.7251 176.053 72.3418 173.082 73.7229L173.038 73.7432L172.991 73.7561C172.498 73.892 171.959 74.0428 171.384 74.2064C168.235 75.1019 164.013 76.3753 160.303 77.6541C158.448 78.2937 156.728 78.9322 155.337 79.5233C153.927 80.1226 152.914 80.6493 152.423 81.056C151.756 81.6082 150.516 82.28 149.003 82.9938C147.474 83.7157 145.613 84.5044 143.663 85.2865C140.173 86.6864 136.379 88.0727 133.647 89.028ZM184.172 61.211C180.427 67.8742 175.153 71.6757 172.622 72.8669C172.208 72.981 171.763 73.1054 171.293 73.2387C170.023 72.5577 168.369 72.0794 166.826 71.7536C166.266 71.6354 165.715 71.536 165.194 71.4539C168.174 70.6718 170.832 69.949 172.99 69.3438C174.983 68.81 177.495 67.3876 180.017 65.3003C181.417 64.1417 182.831 62.769 184.172 61.211ZM162.678 72.1082C149.998 75.3766 132.79 79.3718 122.859 80.2213C125.419 82.8913 127.563 84.8059 129.221 86.1231C130.833 87.4035 131.964 88.1021 132.561 88.389C135.305 87.4402 139.443 85.9401 143.217 84.4262C145.157 83.6482 146.994 82.8689 148.495 82.1606C150.013 81.4442 151.135 80.8238 151.687 80.3674C152.311 79.85 153.463 79.2696 154.87 78.6718C156.295 78.066 158.044 77.4176 159.912 76.7737C163.202 75.6395 166.886 74.5115 169.877 73.6445C168.89 73.2371 167.727 72.9162 166.575 72.673C165.047 72.3503 163.586 72.1742 162.678 72.1082ZM169.06 28.8472C170.114 29.2584 171.031 29.6306 171.74 29.9248C171.329 29.1629 170.853 28.3677 170.316 27.5636C169.911 27.9825 169.492 28.411 169.06 28.8472Z" fill="#FFEDBA"/>
</svg>
