<svg width="235" height="197" viewBox="0 0 235 197" fill="none" xmlns="http://www.w3.org/2000/svg">
<path d="M124.38 63C56.3799 43.8 15.0461 55.5 2.8794 69.5C2.87943 140.5 -8.12061 213 12.8794 177.5C49.0613 116.335 186.38 208.5 219.88 195.5C246.68 185.1 231.046 78.8333 219.88 27C216.38 47 192.38 82.2 124.38 63Z" fill="white"/>
<path d="M95.3714 1.65281C90.0591 2.17128 93.158 5.75733 95.3714 7.48555L110.463 19.151C110.463 21.7433 113.683 22.8235 115.293 23.0395C115.776 25.6318 118.713 26.2799 120.122 26.2799C120.605 29.3907 123.543 30.1684 124.951 30.1684C124.951 32.7607 128.171 34.2729 129.781 34.705C131.229 38.3343 133.604 38.8095 134.61 38.5935C134.61 41.1858 137.83 42.698 139.439 43.1301C139.922 46.2409 142.86 47.0186 144.269 47.0186C143.786 49.6109 147.287 51.1231 149.098 51.5551C149.581 54.6659 152.519 55.8757 153.927 56.0917L166.604 66.461C171.635 70.7816 181.696 77.7377 181.696 70.9976C181.696 62.5725 175.659 47.0186 173.245 43.1301C171.313 40.0193 164.391 34.921 161.171 32.7607C161.654 30.1684 159.36 29.0883 158.153 28.8723C157.187 24.7245 154.933 24.1196 153.927 24.3357C153.927 21.7433 151.513 20.2312 150.305 19.7991C149.822 17.7252 147.287 16.7747 146.08 16.5587C145.114 13.9664 142.055 12.8862 140.647 12.6702C139.681 10.0779 136.22 9.86184 134.61 10.0779C134.61 8.00401 131.793 7.48555 130.384 7.48555C127.366 2.94899 121.329 1.65281 118.311 0.356647C115.896 -0.680285 102.012 0.788702 95.3714 1.65281Z" fill="#F8DC85"/>
<path fill-rule="evenodd" clip-rule="evenodd" d="M129.781 18.4211C131.748 15.6136 133.264 12.4862 134.053 10.4744L135.166 10.9774C134.345 13.0701 132.782 16.2938 130.746 19.2003C128.726 22.0827 126.158 24.7718 123.299 25.6089L122.981 24.3584C125.434 23.6401 127.796 21.2526 129.781 18.4211ZM135.076 21.4006C137.298 18.4511 139.116 15.1545 140.106 13.0284L141.186 13.608C140.164 15.8024 138.3 19.1811 136.015 22.2156C133.75 25.2219 130.981 28.014 128.128 28.8493L127.81 27.5988C130.27 26.8788 132.833 24.3782 135.076 21.4006ZM140.646 25.1421C142.921 22.1347 144.647 18.9391 145.534 16.9292L146.625 17.4841C145.701 19.5788 143.925 22.864 141.583 25.9594C139.249 29.0436 136.3 32.0092 133.015 33.3655L132.582 32.1558C135.575 30.9198 138.361 28.1607 140.646 25.1421ZM144.974 28.667C147.168 25.4567 148.869 22.1873 149.759 20.1697L150.85 20.7245C149.93 22.8114 148.19 26.1525 145.947 29.4338C143.711 32.7049 140.936 35.9757 137.932 37.857L137.324 36.7374C140.115 34.9895 142.773 31.8875 144.974 28.667ZM142.699 40.6673C148.366 36.1044 152.58 27.7202 153.972 24.0888L155.089 24.5823C153.664 28.2959 149.347 36.9347 143.423 41.7042L142.699 40.6673ZM153.176 36.2929C155.108 33.341 156.724 30.3832 157.619 28.5689L158.686 29.1754C157.77 31.0336 156.127 34.0381 154.164 37.0378C152.209 40.0267 149.904 43.062 147.657 44.9377L146.916 43.9146C149.016 42.161 151.238 39.2556 153.176 36.2929Z" fill="#FFEDBA"/>
<path d="M126.762 12.022C117.104 16.6882 101.408 8.34957 94.7681 3.59697C95.7339 1.5231 110.866 1.00464 118.311 1.00464C127.487 5.67083 127.769 10.2938 126.762 12.022Z" fill="#DDC479"/>
<path d="M161.904 41.6629C161.328 53.0169 174.226 65.7335 180.747 70.6726C182.202 68.9584 177.203 53.6164 174.522 46.1597C167.162 38.6502 163.044 40.0329 161.904 41.6629Z" fill="#DDC479"/>
<path fill-rule="evenodd" clip-rule="evenodd" d="M122.072 13.0097C117.543 12.786 113.068 11.9028 110.354 11.3631L110.574 10.0886C113.292 10.6291 117.691 11.4958 122.127 11.7149C126.599 11.9358 130.949 11.4871 133.672 9.53857L134.342 10.617C131.269 12.8163 126.565 13.2317 122.072 13.0097ZM162.372 33.5073C161.43 40.0776 163.356 46.3848 164.154 48.7413L163.019 49.1842C162.207 46.7881 160.189 40.2201 161.179 33.3102L162.372 33.5073Z" fill="#DDC479"/>
<path d="M130.391 51.6274C130.535 45.9028 126.854 48.7859 124.996 50.943L112.434 65.6647C110.036 65.3605 108.659 68.6664 108.271 70.3573C105.816 70.568 104.872 73.6242 104.706 75.1259C101.772 75.2758 100.708 78.3168 100.543 79.8185C98.1448 79.5144 96.3682 82.7695 95.7796 84.4351C92.2525 85.5539 91.5342 88.0296 91.616 89.1277C89.218 88.8235 87.4414 92.0786 86.8529 93.7442C83.9187 93.8941 82.8546 96.9351 82.6893 98.4368C80.348 97.6178 78.5383 101.173 77.9262 103.053C74.9919 103.203 73.5281 106.194 73.163 107.67L62.0837 119.969C57.4968 124.825 49.8816 134.736 56.1164 135.527C63.9099 136.515 79.0061 131.904 82.8864 129.786C85.9906 128.092 91.5189 121.31 93.895 118.131C96.2363 118.95 97.5046 116.631 97.8461 115.369C101.796 114.826 102.62 112.494 102.538 111.396C104.936 111.7 106.619 109.303 107.16 108.067C109.135 107.795 110.312 105.203 110.653 103.942C113.164 103.216 114.522 100.082 114.888 98.6054C117.399 97.8798 118.005 94.2151 117.994 92.4735C119.912 92.7168 120.722 89.7742 120.888 88.2724C125.438 85.5867 127.346 79.3027 128.899 76.2368C130.141 73.784 130.412 58.8085 130.391 51.6274Z" fill="#F8DC85"/>
<path fill-rule="evenodd" clip-rule="evenodd" d="M110.843 86.346C113.209 88.773 115.924 90.7562 117.693 91.8335L117.097 92.9608C115.257 91.8402 112.458 89.7958 110.009 87.2832C107.58 84.7913 105.393 81.738 104.954 78.5917L106.149 78.3997C106.525 81.0997 108.456 83.8981 110.843 86.346ZM107.465 91.6418C109.933 94.3565 112.769 96.6822 114.62 97.9874L113.957 99.0707C112.047 97.7236 109.14 95.3401 106.601 92.5471C104.086 89.78 101.828 86.5002 101.39 83.3603L102.584 83.1684C102.962 85.8747 104.974 88.9011 107.465 91.6418ZM103.351 97.141C105.866 99.9201 108.619 102.135 110.375 103.316L109.733 104.414C107.904 103.183 105.073 100.905 102.485 98.0441C99.9058 95.194 97.5085 91.7024 96.6393 88.041L97.8092 87.7208C98.6013 91.0571 100.827 94.3515 103.351 97.141ZM99.5825 101.342C102.295 104.058 105.119 106.255 106.881 107.441L106.24 108.539C104.418 107.313 101.531 105.066 98.7589 102.29C95.9954 99.5223 93.2954 96.1796 91.9076 92.7561L93.0146 92.2389C94.3041 95.4197 96.8617 98.6173 99.5825 101.342ZM88.7488 97.5083C92.3046 104.085 99.5659 109.562 102.762 111.473L102.174 112.605C98.906 110.651 91.4215 105.034 87.7046 98.159L88.7488 97.5083ZM91.5658 109.192C94.0698 111.598 96.6161 113.669 98.1894 114.835L97.5033 115.902C95.8919 114.707 93.3054 112.603 90.7608 110.158C88.2255 107.723 85.6882 104.909 84.2167 102.294L85.2501 101.624C86.6258 104.068 89.0526 106.778 91.5658 109.192Z" fill="#FFEDBA"/>
<path d="M117.116 83.8784C113.933 73.0333 123.488 57.2779 128.664 50.7559C130.469 52.029 129.173 68.2229 128.299 76.1607C122.906 85.396 118.597 85.1539 117.116 83.8784Z" fill="#DDC479"/>
<path d="M85.5741 117.868C75.1389 115.921 61.8622 128.18 56.5283 134.553C57.9434 136.305 72.7217 132.776 79.934 130.792C87.744 123.827 86.9482 119.274 85.5741 117.868Z" fill="#DDC479"/>
<path fill-rule="evenodd" clip-rule="evenodd" d="M116.753 78.7614C117.491 73.9593 118.833 69.2924 119.651 66.4615L120.804 66.8454C119.985 69.6801 118.667 74.2689 117.944 78.9725C117.215 83.7139 117.12 88.4052 118.603 91.5363L117.527 92.1238C115.853 88.5897 116.02 83.5255 116.753 78.7614ZM93.0634 119.323C87.0962 117.548 81.0359 118.861 78.7625 119.435L78.4858 118.173C80.7976 117.589 87.1101 116.207 93.3857 118.074L93.0634 119.323Z" fill="#DDC479"/>
</svg>
