<svg width="235" height="192" viewBox="0 0 235 192" fill="none" xmlns="http://www.w3.org/2000/svg">
<path d="M124.38 58C56.3799 38.8 15.0461 50.5 2.8794 64.5C2.87943 135.5 -8.12061 208 12.8794 172.5C49.0613 111.335 186.38 203.5 219.88 190.5C246.68 180.1 231.046 73.8333 219.88 22C216.38 42 192.38 77.2 124.38 58Z" fill="white"/>
<path d="M79.8625 18.0214L57.3025 27.9781C56.0777 28.331 51.2328 31.5888 53.3093 36.8996C55.3857 42.2103 60.0341 42.3875 62.0987 41.8123C64.8275 41.2624 83.6892 31.5731 86.0537 30.3009C87.9453 29.2832 88.237 30.6567 88.1464 31.4706C86.6543 37.5535 85.6621 51.1958 93.6297 57.1017C103.589 64.4841 124.196 51.1012 125.956 50.2692C127.363 49.6035 127.519 50.5377 127.42 51.088C126.31 60.0646 126.241 78.8573 134.848 82.2154C143.455 85.5736 158.037 76.5876 164.253 71.6748C170.614 75.2307 179.523 68.2786 179.858 63.2782C178.148 52.0987 166.692 55.7463 161.736 58.3365C156.717 61.1514 145.932 66.5184 142.937 65.4669C139.942 64.4154 139.751 62.1302 141.382 47.4787C143.013 32.8272 126.393 32.3569 120.741 36.2013C115.09 40.0457 108.414 45.4968 103.516 43.1737C98.6171 40.8507 102.572 29.6877 102.666 25.8391C103.01 11.7653 87.9249 14.487 79.8625 18.0214Z" fill="#F8DC85"/>
<path d="M60.0568 40.583C57.2897 40.9316 54.6443 38.6998 54.1481 35.5981C53.6519 32.4965 55.4928 29.6995 58.2599 29.3509C61.027 29.0023 63.6724 31.2341 64.1686 34.3358C64.6648 37.4374 62.8239 40.2344 60.0568 40.583Z" fill="#DDC479"/>
<path fill-rule="evenodd" clip-rule="evenodd" d="M133.457 35.3216L133.503 35.7587C133.791 38.5301 134.024 43.1025 133.79 47.8317C133.556 52.5484 132.856 57.4752 131.245 60.9229L131.056 61.3284L130.142 60.9922L130.331 60.5867C131.872 57.2882 132.569 52.4909 132.802 47.7932C133.034 43.1079 132.802 38.5756 132.518 35.8393L132.472 35.4022L133.457 35.3216ZM173.285 58.8748L172.797 58.9451C170.962 59.2093 168.105 59.6901 165.504 60.2722C164.204 60.5633 162.976 60.8778 161.976 61.2006C160.954 61.5307 160.24 61.8479 159.905 62.1213C158.989 62.867 157.673 63.3498 156.449 63.6561C155.215 63.9649 154.014 64.1091 153.273 64.1474L152.779 64.1729L152.722 63.2965L153.216 63.271C153.891 63.2361 155.021 63.1014 156.181 62.8112C157.35 62.5185 158.489 62.0822 159.236 61.4744C159.731 61.071 160.616 60.7056 161.638 60.3756C162.682 60.0385 163.946 59.7157 165.263 59.4209C167.898 58.8312 170.783 58.3456 172.638 58.0785L173.127 58.0082L173.285 58.8748ZM138.746 39.5706L138.892 39.9899C139.26 41.0431 139.473 43.3142 139.042 46.7898C138.608 50.2816 137.519 55.0259 135.242 61.0464C130.744 72.9375 134.763 78.9029 137.077 80.3524L137.481 80.6055L136.911 81.3227L136.507 81.0696C133.695 79.3081 129.731 72.8566 134.304 60.767C136.562 54.7971 137.633 50.1145 138.058 46.6936C138.485 43.2565 138.254 41.1292 137.947 40.2494L137.801 39.8301L138.746 39.5706ZM98.5941 17.1769L98.5192 17.6108C98.2 19.4602 96.954 23.6997 95.3343 28.3154C93.7128 32.9364 91.7009 37.9795 89.8365 41.4367L89.623 41.8326L88.7306 41.4537L88.9441 41.0577C90.7771 37.6588 92.7721 32.6641 94.3897 28.0544C96.0091 23.4396 97.2345 19.2558 97.5413 17.4779L97.6162 17.044L98.5941 17.1769ZM91.767 15.6445L91.8836 16.0711C92.3669 17.8406 92.8525 20.8066 92.7514 23.9917C92.6505 27.1702 91.9639 30.6207 90.0507 33.3161L89.7871 33.6875L88.95 33.2196L89.2136 32.8482C90.9912 30.3438 91.6638 27.0751 91.7624 23.967C91.8609 20.8656 91.3864 17.9776 90.9221 16.2778L90.8056 15.8513L91.767 15.6445ZM102.109 22.5113L102.038 22.9457C101.453 26.531 99.2746 35.1461 95.2119 40.8698C91.3192 46.354 93.0054 51.1687 94.2639 52.835L94.5393 53.1996L93.7175 53.6884L93.4421 53.3237C91.9882 51.3988 90.2532 46.2086 94.3748 40.4019C98.3264 34.8346 100.48 26.3654 101.059 22.8198L101.13 22.3854L102.109 22.5113ZM124.644 35.2573L125.054 35.5024C127.459 36.9386 131.567 41.5465 129.4 48.6728L129.271 49.0966L128.316 48.8679L128.445 48.4441C130.485 41.7365 126.613 37.4916 124.502 36.2307L124.091 35.9856L124.644 35.2573ZM87.9361 21.1989C86.834 19.3835 85.0399 18.1578 83.7361 17.5927L83.2917 17.4L83.7259 16.6112L84.1704 16.8038C85.6234 17.4337 87.5891 18.7764 88.807 20.7825C90.0375 22.8093 90.4866 25.4868 88.9248 28.7152L88.7297 29.1185L87.8206 28.7722L88.0158 28.3689C89.4567 25.3902 89.0256 22.9934 87.9361 21.1989ZM126.091 44.3123C123.423 39.8254 119.398 39.357 117.833 39.6257L117.347 39.7091L117.159 38.8472L117.645 38.7638C119.629 38.4232 124.091 39.0667 126.966 43.9027L127.196 44.291L126.321 44.7006L126.091 44.3123ZM164.391 65.2277L163.916 65.3499C162.961 65.5957 160.274 66.2751 157.165 67.0291C153.941 67.8108 150.031 67.3209 148.475 66.9826L147.995 66.8781L148.23 66.0255L148.711 66.1299C150.193 66.4524 153.913 66.9075 156.904 66.1823C160.009 65.4295 162.69 64.7513 163.641 64.5067L164.116 64.3845L164.391 65.2277ZM75.877 23.9266C71.0377 25.0473 65.9335 27.2343 62.7136 28.9098L62.2869 29.1319L61.7865 28.3746L62.2132 28.1525C65.482 26.4516 70.6722 24.2247 75.6272 23.0772C78.1034 22.5037 80.552 22.1924 82.6867 22.3673C84.8258 22.5426 86.6999 23.2122 87.9337 24.6432L88.2342 24.9918L87.4485 25.5252L87.1479 25.1766C86.1372 24.0043 84.5656 23.4029 82.5957 23.2415C80.6215 23.0797 78.298 23.366 75.877 23.9266ZM118.638 44.9774C116.145 44.1675 113.594 43.6764 112.016 43.4735L111.526 43.4106L111.668 42.5418L112.158 42.6047C113.794 42.8151 116.412 43.3195 118.978 44.153C121.526 44.9807 124.108 46.1593 125.584 47.7567L125.898 48.0961L125.133 48.6529L124.819 48.3135C123.518 46.9058 121.149 45.7931 118.638 44.9774ZM77.4723 27.8091C73.27 29.3049 68.5999 31.5201 65.5827 33.1054L65.1571 33.329L64.653 32.5736L65.0787 32.3499C68.1213 30.7513 72.8386 28.5125 77.104 26.9943C79.2332 26.2364 81.2758 25.6486 82.9523 25.4168C83.79 25.301 84.5625 25.2702 85.2207 25.3641C85.88 25.4581 86.4688 25.6845 86.8687 26.1172L87.1824 26.4565L86.4175 27.0133L86.1038 26.6739C85.9086 26.4627 85.5792 26.3044 85.0637 26.2309C84.5473 26.1572 83.8885 26.1759 83.1046 26.2842C81.5381 26.5008 79.5768 27.06 77.4723 27.8091ZM163.763 70.2049L163.316 70.394C155.052 73.8947 147.954 70.5404 145.415 68.4012L145.056 68.099L145.737 67.4624L146.096 67.7646C148.435 69.7351 155.104 72.9002 162.89 69.6017L163.337 69.4126L163.763 70.2049ZM85.575 28.801L85.14 29.01C84.1304 29.4952 83.1206 30.1366 82.015 30.839C81.7002 31.039 81.3775 31.2439 81.045 31.4516C79.5611 32.378 77.9118 33.3357 75.9775 34.0494C75.4379 34.2485 74.9262 34.438 74.4384 34.6186C70.6426 36.0239 68.2947 36.8932 65.5275 37.5935L65.0518 37.7138L64.7805 36.8696L65.2562 36.7492C67.964 36.064 70.2545 35.2161 74.063 33.8062C74.5486 33.6265 75.0588 33.4376 75.5976 33.2388C77.4297 32.5628 79.008 31.65 80.4757 30.7336C80.7893 30.5377 81.0996 30.3406 81.4071 30.1452C82.5217 29.4368 83.5994 28.752 84.669 28.238L85.1039 28.029L85.575 28.801ZM99.8657 36.6089L100.806 36.8827L100.651 37.2997C99.7635 39.7006 98.8206 43.592 98.8817 47.4369C98.943 51.2981 100.013 54.9982 103.009 57.1634L103.393 57.4406L102.768 58.1213L102.384 57.8441C99.0437 55.4298 97.9551 51.3956 97.8925 47.4492C97.8296 43.4866 98.7975 39.4973 99.7114 37.026L99.8657 36.6089ZM122.243 50.4503L121.749 50.4408C118.779 50.3836 115.609 49.5558 112.872 48.5607C110.131 47.5639 107.786 46.3855 106.456 45.5978L106.044 45.3541L106.593 44.6239L107.005 44.8675C108.281 45.6233 110.568 46.7741 113.247 47.7483C115.931 48.7242 118.973 49.5092 121.77 49.5631L122.265 49.5726L122.243 50.4503ZM102.918 43.4198L102.93 43.8586C102.979 45.5348 103.376 48.1473 104.4 50.5116C105.43 52.8899 107.046 54.9116 109.459 55.5938L109.931 55.7271L109.63 56.5635L109.159 56.4303C106.314 55.6259 104.544 53.2906 103.476 50.8265C102.403 48.3484 101.993 45.6331 101.941 43.8814L101.929 43.4426L102.918 43.4198ZM143.124 66.9172L143.205 67.3502C143.605 69.4886 144.619 72.5375 146.335 74.7587C147.191 75.8669 148.199 76.7398 149.36 77.2088C150.505 77.6714 151.839 77.7584 153.409 77.2347L153.872 77.0802L154.22 77.9019L153.757 78.0564C151.955 78.6576 150.348 78.5723 148.95 78.0078C147.569 77.4498 146.435 76.4409 145.519 75.2551C143.69 72.8885 142.642 69.7008 142.229 67.494L142.148 67.061L143.124 66.9172ZM116.472 52.8419L115.98 52.8865C112.941 53.1624 110.369 52.1238 108.409 50.7464C106.455 49.3723 105.076 47.6395 104.397 46.4485L104.174 46.0568L105.057 45.6606L105.28 46.0523C105.903 47.1453 107.195 48.7731 109.024 50.0583C110.847 51.34 113.17 52.2592 115.88 52.0132L116.372 51.9685L116.472 52.8419ZM139.733 65.079L139.646 65.5111C139.325 67.0979 139.159 69.7119 139.711 72.3546C140.264 75.0005 141.523 77.6153 143.992 79.2902L144.385 79.5568L143.784 80.2542L143.391 79.9876C140.651 78.1288 139.314 75.2723 138.738 72.5146C138.162 69.7538 138.334 67.0321 138.672 65.3561L138.76 64.924L139.733 65.079Z" fill="#FFEDBA"/>
<path d="M165.065 69.1153C163.313 67.0611 164.501 63.6441 167.719 61.4833C170.937 59.3224 174.965 59.236 176.717 61.2903C178.469 63.3445 177.281 66.7615 174.063 68.9223C170.846 71.0831 166.817 71.1695 165.065 69.1153Z" fill="#DDC479"/>
<path d="M84.7361 18.1544C91.8677 17.9904 90.507 26.2218 88.9352 30.358C88.2285 28.718 85.2869 29.1835 83.9045 29.6212C86.6264 24.1392 85.1649 18.2477 84.7361 18.1544Z" fill="#DDC479"/>
<path d="M124.165 38.3771C128.685 40.9037 127.768 46.6161 126.744 49.1565C125.795 50.4936 119.243 52.3127 116.085 53.0551C120.588 49.3468 123.348 41.7246 124.165 38.3771Z" fill="#DDC479"/>
<path d="M68.8107 82.9013L46.2507 92.858C45.0259 93.2109 40.1811 96.4687 42.2575 101.779C44.3339 107.09 48.9823 107.267 51.047 106.692C53.7757 106.142 72.6374 96.453 75.0019 95.1808C76.8935 94.1631 77.1853 95.5366 77.0947 96.3505C75.6026 102.433 74.6103 116.076 82.5779 121.982C92.5374 129.364 113.144 115.981 114.904 115.149C116.312 114.483 116.467 115.418 116.369 115.968C115.258 124.944 115.19 143.737 123.797 147.095C132.403 150.453 146.986 141.467 153.201 136.555C159.563 140.111 168.472 133.159 168.807 128.158C167.096 116.979 155.64 120.626 150.684 123.216C145.666 126.031 134.88 131.398 131.885 130.347C128.89 129.295 128.699 127.01 130.33 112.359C131.961 97.7071 115.341 97.2368 109.69 101.081C104.038 104.926 97.3626 110.377 92.464 108.054C87.5654 105.731 91.5206 94.5676 91.6147 90.719C91.9585 76.6452 76.8732 79.3669 68.8107 82.9013Z" fill="#F8DC85"/>
<path d="M49.0049 105.463C46.2378 105.811 43.5924 103.58 43.0962 100.478C42.6 97.3763 44.4409 94.5794 47.208 94.2308C49.9751 93.8822 52.6205 96.114 53.1167 99.2157C53.6129 102.317 51.772 105.114 49.0049 105.463Z" fill="#DDC479"/>
<path fill-rule="evenodd" clip-rule="evenodd" d="M122.405 100.201L122.451 100.639C122.739 103.41 122.972 107.982 122.738 112.712C122.505 117.428 121.804 122.355 120.193 125.803L120.004 126.208L119.09 125.872L119.279 125.467C120.82 122.168 121.517 117.371 121.75 112.673C121.982 107.988 121.75 103.455 121.466 100.719L121.42 100.282L122.405 100.201ZM162.233 123.755L161.745 123.825C159.91 124.089 157.053 124.57 154.453 125.152C153.152 125.443 151.924 125.758 150.924 126.081C149.902 126.411 149.188 126.728 148.853 127.001C147.937 127.747 146.621 128.23 145.397 128.536C144.163 128.845 142.962 128.989 142.221 129.027L141.727 129.053L141.67 128.176L142.164 128.151C142.839 128.116 143.969 127.981 145.129 127.691C146.298 127.398 147.437 126.962 148.184 126.354C148.679 125.951 149.564 125.585 150.586 125.256C151.63 124.918 152.894 124.596 154.211 124.301C156.846 123.711 159.732 123.226 161.587 122.958L162.075 122.888L162.233 123.755ZM127.694 104.45L127.841 104.87C128.208 105.923 128.421 108.194 127.99 111.67C127.556 115.161 126.467 119.906 124.19 125.926C119.692 137.817 123.712 143.783 126.025 145.232L126.43 145.485L125.859 146.203L125.455 145.949C122.643 144.188 118.679 137.737 123.252 125.647C125.51 119.677 126.582 114.994 127.006 111.574C127.433 108.136 127.202 106.009 126.896 105.129L126.749 104.71L127.694 104.45ZM87.5422 82.0568L87.4673 82.4907C87.1481 84.3401 85.9022 88.5795 84.2824 93.1953C82.6609 97.8162 80.649 102.859 78.7846 106.317L78.5711 106.713L77.6787 106.334L77.8922 105.938C79.7252 102.539 81.7203 97.544 83.3379 92.9343C84.9573 88.3195 86.1826 84.1357 86.4894 82.3578L86.5643 81.9239L87.5422 82.0568ZM80.7151 80.5243L80.8317 80.9509C81.315 82.7205 81.8006 85.6865 81.6995 88.8716C81.5986 92.0501 80.912 95.5006 78.9988 98.196L78.7352 98.5674L77.8981 98.0995L78.1617 97.7281C79.9394 95.2237 80.6119 91.955 80.7106 88.8469C80.809 85.7455 80.3345 82.8575 79.8702 81.1577L79.7537 80.7311L80.7151 80.5243ZM91.0571 87.3912L90.9861 87.8256C90.4008 91.4108 88.2227 100.026 84.16 105.75C80.2673 111.234 81.9535 116.049 83.212 117.715L83.4874 118.079L82.6656 118.568L82.3902 118.204C80.9363 116.279 79.2013 111.088 83.3229 105.282C87.2745 99.7145 89.4282 91.2453 90.0071 87.6997L90.078 87.2653L91.0571 87.3912ZM113.592 100.137L114.002 100.382C116.407 101.818 120.515 106.426 118.348 113.553L118.219 113.976L117.264 113.748L117.393 113.324C119.433 106.616 115.561 102.372 113.45 101.111L113.039 100.865L113.592 100.137ZM76.8842 86.0787C75.7821 84.2634 73.988 83.0377 72.6843 82.4725L72.2398 82.2799L72.674 81.4911L73.1185 81.6837C74.5715 82.3136 76.5373 83.6563 77.7552 85.6624C78.9857 87.6892 79.4347 90.3667 77.873 93.595L77.6778 93.9984L76.7687 93.6521L76.9639 93.2487C78.4048 90.2701 77.9737 87.8733 76.8842 86.0787ZM115.039 109.192C112.371 104.705 108.346 104.237 106.781 104.506L106.295 104.589L106.107 103.727L106.593 103.644C108.578 103.303 113.039 103.947 115.914 108.783L116.145 109.171L115.269 109.58L115.039 109.192ZM153.34 130.108L152.864 130.23C151.909 130.476 149.222 131.155 146.113 131.909C142.889 132.691 138.979 132.201 137.423 131.862L136.943 131.758L137.178 130.905L137.659 131.01C139.142 131.332 142.862 131.787 145.852 131.062C148.957 130.309 151.638 129.631 152.589 129.387L153.064 129.264L153.34 130.108ZM64.8251 88.8065C59.9858 89.9272 54.8817 92.1142 51.6617 93.7897L51.235 94.0117L50.7346 93.2544L51.1613 93.0324C54.4301 91.3314 59.6203 89.1045 64.5753 87.9571C67.0515 87.3836 69.5001 87.0723 71.6348 87.2472C73.7739 87.4225 75.6481 88.0921 76.8818 89.5231L77.1823 89.8717L76.3966 90.4051L76.096 90.0565C75.0854 88.8842 73.5137 88.2828 71.5439 88.1214C69.5696 87.9596 67.2461 88.2459 64.8251 88.8065ZM107.586 109.857C105.093 109.047 102.542 108.556 100.964 108.353L100.475 108.29L100.616 107.422L101.106 107.485C102.742 107.695 105.36 108.199 107.926 109.033C110.474 109.861 113.056 111.039 114.532 112.637L114.846 112.976L114.081 113.533L113.767 113.193C112.466 111.786 110.098 110.673 107.586 109.857ZM66.4204 92.689C62.2181 94.1848 57.5481 96.3999 54.5308 97.9852L54.1052 98.2089L53.6012 97.4535L54.0268 97.2298C57.0694 95.6312 61.7868 93.3924 66.0521 91.8742C68.1813 91.1163 70.2239 90.5284 71.9005 90.2967C72.7381 90.1809 73.5106 90.1501 74.1689 90.244C74.8281 90.338 75.4169 90.5643 75.8169 90.997L76.1306 91.3364L75.3656 91.8932L75.0519 91.5538C74.8567 91.3425 74.5273 91.1843 74.0119 91.1108C73.4954 91.0371 72.8366 91.0558 72.0527 91.1641C70.4862 91.3807 68.5249 91.9399 66.4204 92.689ZM152.711 135.085L152.265 135.274C144.001 138.775 136.902 135.42 134.363 133.281L134.004 132.979L134.685 132.342L135.044 132.644C137.383 134.615 144.052 137.78 151.838 134.482L152.285 134.293L152.711 135.085ZM74.5231 93.6809L74.0882 93.8899C73.0786 94.375 72.0687 95.0165 70.9631 95.7188C70.6483 95.9188 70.3257 96.1238 69.9931 96.3314C68.5093 97.2579 66.8599 98.2156 64.9256 98.9293C64.386 99.1284 63.8743 99.3178 63.3865 99.4984C59.5907 100.904 57.2428 101.773 54.4756 102.473L53.9999 102.594L53.7286 101.749L54.2043 101.629C56.9122 100.944 59.2026 100.096 63.0112 98.6861C63.4967 98.5064 64.0069 98.3175 64.5458 98.1187C66.3778 97.4427 67.9561 96.5299 69.4238 95.6135C69.7375 95.4176 70.0477 95.2204 70.3552 95.0251C71.4698 94.3167 72.5475 93.6319 73.6171 93.1179L74.052 92.9089L74.5231 93.6809ZM88.8138 101.489L89.7538 101.763L89.5995 102.18C88.7116 104.581 87.7688 108.472 87.8298 112.317C87.8911 116.178 88.9611 119.878 91.9573 122.043L92.3408 122.32L91.7161 123.001L91.3326 122.724C87.9918 120.31 86.9032 116.275 86.8406 112.329C86.7777 108.366 87.7456 104.377 88.6596 101.906L88.8138 101.489ZM111.192 115.33L110.697 115.321C107.727 115.264 104.557 114.436 101.82 113.441C99.0787 112.444 96.734 111.265 95.4036 110.478L94.9922 110.234L95.5413 109.504L95.9527 109.747C97.2292 110.503 99.5157 111.654 102.195 112.628C104.879 113.604 107.921 114.389 110.718 114.443L111.213 114.452L111.192 115.33ZM91.8657 108.3L91.8785 108.739C91.9274 110.415 92.3242 113.027 93.348 115.391C94.378 117.77 95.9943 119.791 98.4076 120.474L98.8789 120.607L98.5786 121.443L98.1072 121.31C95.262 120.506 93.4917 118.17 92.4246 115.706C91.3514 113.228 90.9407 110.513 90.8895 108.761L90.8767 108.322L91.8657 108.3ZM132.072 131.797L132.153 132.23C132.553 134.368 133.567 137.417 135.283 139.639C136.139 140.747 137.147 141.62 138.308 142.089C139.453 142.551 140.788 142.638 142.357 142.115L142.82 141.96L143.168 142.782L142.705 142.936C140.904 143.538 139.296 143.452 137.898 142.888C136.517 142.33 135.383 141.321 134.467 140.135C132.639 137.768 131.59 134.581 131.177 132.374L131.096 131.941L132.072 131.797ZM105.42 117.722L104.928 117.766C101.889 118.042 99.3171 117.004 97.3576 115.626C95.4027 114.252 94.024 112.519 93.3452 111.328L93.1219 110.937L94.0047 110.54L94.228 110.932C94.8509 112.025 96.1436 113.653 97.9718 114.938C99.7954 116.22 102.118 117.139 104.828 116.893L105.32 116.848L105.42 117.722ZM128.682 129.959L128.594 130.391C128.273 131.978 128.107 134.592 128.659 137.235C129.212 139.88 130.471 142.495 132.94 144.17L133.333 144.437L132.732 145.134L132.339 144.868C129.599 143.009 128.263 140.152 127.686 137.395C127.11 134.634 127.282 131.912 127.62 130.236L127.708 129.804L128.682 129.959Z" fill="#FFEDBA"/>
<path d="M154.013 133.996C152.261 131.941 153.45 128.524 156.667 126.364C159.885 124.203 163.913 124.116 165.665 126.171C167.417 128.225 166.229 131.642 163.011 133.803C159.794 135.963 155.765 136.05 154.013 133.996Z" fill="#DDC479"/>
<path d="M73.6844 83.0343C80.8159 82.8703 79.4552 91.1017 77.8834 95.2379C77.1768 93.5979 74.2352 94.0633 72.8527 94.5011C75.5746 89.0191 74.1131 83.1276 73.6844 83.0343Z" fill="#DDC479"/>
<path d="M113.113 103.257C117.634 105.784 116.716 111.496 115.693 114.036C114.743 115.373 108.191 117.193 105.033 117.935C109.536 114.227 112.296 106.605 113.113 103.257Z" fill="#DDC479"/>
</svg>
