<svg width="655" height="262" viewBox="0 0 655 262" fill="none" xmlns="http://www.w3.org/2000/svg">
<g filter="url(#filter0_d_259_1062)">
<ellipse cx="327.387" cy="179.015" rx="75.3242" ry="199.231" transform="rotate(-90.0579 327.387 179.015)" fill="#F7F7F7"/>
<ellipse cx="326.981" cy="179.193" rx="53.0643" ry="140.354" transform="rotate(-90.0579 326.981 179.193)" fill="#ECECEC"/>
<path d="M145.178 176.831C142.658 157.393 178.024 140.835 196.022 134.986C211.501 132.466 202.472 138.135 196.022 141.285C140.678 165.133 154.627 172.782 150.127 179.981C146.528 185.741 145.328 180.281 145.178 176.831Z" fill="white"/>
</g>
<g filter="url(#filter1_d_259_1062)">
<path d="M374.884 68.5937C374.904 68.6034 374.924 68.6133 374.944 68.6231C382.857 72.49 393.637 79.4895 396.956 87.0569C400.797 90.6511 402.133 94.4451 401.511 98.2141C403.736 98.6495 423.014 91.299 423.756 105.249C435.767 111.685 449.156 121.932 446.611 130.157C449.314 133.145 451.492 137.093 451.453 141.106C471.201 153.488 489.651 178.955 454.827 195.413C448.718 208.021 424.256 228.769 375.278 210.904C371.44 211.275 367.191 211.533 362.656 211.698C322.439 236.401 279.109 217.329 262.472 204.705C253.57 202.947 245.613 201.03 238.518 198.99C174.203 201.851 179.072 181.673 189.546 171.226C181.357 158.668 186.993 146.588 195.164 139.777C197.419 138.939 202.014 137.264 202.363 137.264C200.869 131.969 208.291 126.005 214.884 122.039C214.79 118.676 217.201 115.569 220.682 113.018C224.241 111.145 233.116 105.995 234.627 107.4C228.027 96.926 230.105 92.1477 234.806 91.9679C237.23 91.8421 242.484 91.9419 244.104 93.3472C239.66 81.5191 243.481 78.2651 247.564 78.5882L251.182 79.2939C251.531 76.6189 254.055 76.0178 257.256 76.5206C257.256 73.3299 259.715 67.4218 269.552 69.3151C267.503 67.0334 266.302 64.9128 265.777 63.2419C265.933 61.3708 269.504 58.5654 282.538 62.3129C279.957 59.5372 278.864 56.9968 278.737 55.1284C278.213 53.2538 279.741 50.2 290.047 52.981C287.398 50.6664 286.545 48.6276 286.728 47.2049C286.078 44.6705 288.993 39.7647 305.857 40.4173C320.983 35.7772 345.488 33.9194 356.654 53.9055C357.927 56.1829 358.672 58.0919 358.961 59.6733C363.923 58.1869 374.133 56.9194 375.278 63.7407C375.316 65.4768 375.179 67.093 374.884 68.5937Z" fill="#F8DC85"/>
<path fill-rule="evenodd" clip-rule="evenodd" d="M332.294 40.8203C323.459 39.4559 314.019 40.9762 306.715 43.2166C304.565 43.8761 302.626 44.5904 300.97 45.296C299.482 45.9297 297.763 45.2374 297.129 43.7498C297.109 43.7022 297.09 43.6543 297.072 43.6063C294.163 43.9654 292.271 44.5797 291.096 45.2026C289.874 45.8509 289.622 46.3565 289.58 46.5411L289.703 47.0214L289.632 47.5784C289.632 47.5763 289.632 47.5778 289.633 47.5827C289.638 47.6681 289.714 48.8026 291.973 50.7766C295.602 53.9476 303.669 58.1416 319.567 61.7883C321.376 62.2032 323.283 62.6104 325.293 63.0077C318.272 60.5005 311.295 57.5734 305.605 54.9558L305.065 54.7077L304.665 54.2689C303.723 53.2355 302.319 51.2704 302.807 48.9256C303.367 46.2347 305.875 45.0801 308.154 44.6213C310.594 44.13 314.051 44.1209 318.766 44.6642C323.53 45.2132 329.772 46.3511 337.876 48.2867C339.448 48.6623 340.419 50.2418 340.043 51.8145C339.668 53.3872 338.088 54.3576 336.515 53.982C328.548 52.0789 322.549 50.9945 318.095 50.4812C313.813 49.9878 311.127 50.0437 309.547 50.3173C319.205 54.6771 331.875 59.6111 341.948 61.9252C347.346 63.1652 351.544 63.5396 354.087 62.9932C355.309 62.7305 355.764 62.3365 355.927 62.1146C356.052 61.9449 356.313 61.4682 356.081 60.1997C355.871 59.0513 355.285 57.457 354.098 55.3338C349.053 46.3039 341.035 42.1705 332.294 40.8203ZM340.739 67.6554C340.782 67.9355 340.785 68.2267 340.742 68.5218C340.54 69.9201 339.381 70.9438 338.024 71.0258C342.165 72.7394 346.017 73.9621 349.229 74.3857C353.245 74.9151 355.272 74.0999 356.228 72.7698C356.842 71.9145 357.329 70.4598 357.321 68.1027C356.67 68.3731 355.993 68.5727 355.317 68.718C351.445 69.5501 346.194 68.9019 340.739 67.6554ZM362.471 61.8406C363.715 68.0102 363.371 72.8632 360.983 76.1869C358.073 80.2362 353.1 80.8022 348.464 80.1909C343.711 79.5643 338.249 77.5934 332.932 75.2033C327.714 72.8576 322.446 70.0199 317.836 67.3983C302.467 63.8338 293.483 59.6003 288.662 55.6449C284.522 54.5897 282.488 54.7211 281.659 54.9468C281.732 55.9312 282.394 57.8596 284.682 60.3195C289.588 65.5964 301.258 72.4874 325.446 76.2485C327.543 76.5745 329.732 76.8767 332.017 77.1522C333.386 77.3172 334.42 78.4019 334.575 79.7133C341.202 81.6095 348.429 82.2685 354.796 81.3572C363.98 80.0427 370.506 75.6825 372.011 68.029C372.066 67.7508 372.114 67.4666 372.156 67.1762C372.158 67.1668 372.159 67.1573 372.161 67.1478C372.3 66.1808 372.368 65.1464 372.354 64.0404C372.184 63.258 371.81 62.7908 371.291 62.4359C370.64 61.9914 369.63 61.6499 368.243 61.5035C366.412 61.3102 364.328 61.4972 362.471 61.8406ZM368.607 82.5793C364.855 85.0142 360.328 86.4807 355.626 87.1537C345.362 88.6226 333.417 86.5273 324.099 81.9643C320.409 81.3813 316.979 80.7233 313.793 80.0037C324.362 87.9628 337.708 95.1222 348.899 95.6168C354.676 95.8722 359.687 94.3506 363.592 90.4055C365.482 88.4964 367.194 85.939 368.607 82.5793ZM308.263 78.6297C294.277 74.8165 285.764 69.7505 280.978 64.9156C275.103 63.2977 271.675 63.2164 269.857 63.5503C269.562 63.6045 269.327 63.6635 269.141 63.7211C269.667 64.7442 270.497 65.9862 271.73 67.3589C272.672 68.4074 273.835 69.5159 275.247 70.6431C281.15 75.3544 291.374 80.3562 307.791 82.6393C307.014 81.6046 306.994 80.1392 307.832 79.0737C307.962 78.9076 308.107 78.7595 308.263 78.6297ZM317.018 89.4047C316.863 89.4193 316.705 89.4217 316.544 89.411C311.61 89.0811 307.082 88.5301 302.933 87.8035C306.064 90.2463 310.129 93.0197 314.493 95.2777C320.752 98.5158 327.04 100.386 331.953 99.4207C333.54 99.1091 335.079 100.143 335.39 101.729C335.702 103.316 334.669 104.855 333.082 105.166C326.141 106.53 318.34 103.861 311.803 100.478C305.148 97.0355 299.195 92.5325 295.703 89.3987C294.75 88.543 294.489 87.2033 294.959 86.0851C293.682 85.754 292.45 85.4051 291.26 85.0404C291.914 87.9453 294.052 92.9964 298.99 99.393C304.593 106.651 313.676 115.471 327.831 124.578C342.994 126.013 360.195 122.947 373.986 117.518C380.977 114.765 386.964 111.455 391.315 107.927C395.035 104.91 397.312 101.938 398.241 99.2272C397.541 100.172 396.705 101.083 395.736 101.959C390.647 106.556 381.524 110.499 367.187 113.652C365.752 114.626 364.211 115.542 362.561 116.377C352.076 121.68 337.464 123.597 318.251 117.307C316.714 116.804 315.876 115.15 316.38 113.613C316.761 112.45 317.801 111.687 318.951 111.603C318.034 110.968 317.522 109.834 317.738 108.665C318.03 107.074 319.557 106.023 321.147 106.315C352.125 112.017 365.809 101.512 368.574 96.9555C369.413 95.5732 371.214 95.1327 372.596 95.9717C373.425 96.4749 373.915 97.3242 373.994 98.2216C374.839 96.8073 375.49 95.4496 375.957 94.2165C376.529 92.7043 378.219 91.9426 379.732 92.5151C381.244 93.0877 382.005 94.7777 381.433 96.2899C380.396 99.03 378.684 102.154 376.244 105.243C384.069 102.81 388.974 100.177 391.811 97.6137C393.741 95.8702 394.605 94.2582 394.906 92.8455C395.208 91.4313 395.01 89.9095 394.275 88.2331C392.909 85.1193 389.845 81.8427 385.878 78.7661C383.151 76.6508 380.137 74.737 377.265 73.1386C375.622 82.8558 372.365 89.8672 367.754 94.525C362.433 99.9004 355.672 101.777 348.64 101.467C338.199 101.005 326.758 95.7206 317.018 89.4047ZM378.084 66.9295C381.739 68.8338 385.807 71.3003 389.467 74.1391C393.523 77.2846 397.353 81.0962 399.384 85.3289C402.349 88.2414 404.066 91.4499 404.484 94.8135C404.729 94.7651 404.99 94.714 405.268 94.6604C407.432 94.2444 410.291 93.758 413.167 93.7361C415.994 93.7146 419.232 94.1333 421.888 95.8794C424.342 97.4922 425.961 100.008 426.504 103.413C432.237 106.594 438.235 110.619 442.68 114.931C445.077 117.256 447.143 119.779 448.432 122.414C449.489 124.575 450.082 126.942 449.771 129.353C451.99 132.114 453.882 135.628 454.297 139.453C463.984 145.816 473.542 155.407 476.429 165.959C477.974 171.608 477.6 177.546 474.296 183.203C471.15 188.591 465.504 193.454 456.986 197.624C449.471 211.714 423.545 231.377 374.898 213.881C371.386 214.205 367.565 214.438 363.526 214.595C342.881 227.029 321.49 228.402 303.198 225.08C285.149 221.802 269.994 213.938 261.248 207.448C252.73 205.749 245.061 203.902 238.17 201.936C222.209 202.622 210.35 201.899 201.697 200.201C193.023 198.5 187.205 195.748 183.832 192.081C180.286 188.226 179.762 183.723 180.915 179.588C181.813 176.366 183.712 173.363 185.901 170.842C182.426 164.538 181.925 158.263 183.385 152.614C184.976 146.462 188.836 141.241 193.29 137.528L193.675 137.207L194.144 137.033C195.279 136.611 197.006 135.977 198.498 135.447C198.76 135.355 199.017 135.264 199.263 135.178C199.51 132.071 201.452 129.279 203.459 127.147C205.868 124.587 209.044 122.247 212.069 120.336C212.689 116.303 215.721 113.024 218.951 110.656L219.126 110.528L219.319 110.427C219.751 110.199 220.293 109.906 220.909 109.572C222.659 108.626 225.01 107.353 227.173 106.332C228.1 105.895 229.054 105.473 229.968 105.126C228.097 101.4 227.271 98.1716 227.569 95.4991C227.78 93.6144 228.565 91.9414 229.975 90.7474C231.345 89.5884 233.033 89.1096 234.673 89.0434C235.933 88.9789 237.861 88.9694 239.759 89.1426C238.947 85.5397 238.997 82.6036 239.922 80.3142C240.631 78.5613 241.827 77.269 243.336 76.4921C244.795 75.7405 246.373 75.5573 247.795 75.6699L247.961 75.683L249.436 75.9706C250.101 75.0802 251.007 74.4115 252.08 73.9905C252.949 73.6494 253.878 73.4876 254.811 73.4438C255.307 71.8547 256.229 70.1932 257.77 68.8232C259.328 67.4385 261.34 66.5076 263.817 66.1671C263.468 65.4617 263.19 64.7767 262.984 64.1201L262.812 63.5717L262.859 62.9988C263.099 60.1284 265.69 58.3623 268.799 57.7911C270.733 57.4359 273.208 57.4315 276.35 57.9126C276.083 57.1196 275.912 56.3447 275.839 55.5967C275.637 54.6527 275.66 53.5175 276.169 52.3981C276.759 51.1021 277.852 50.1543 279.231 49.5956C280.486 49.0875 282.037 48.8706 283.92 48.952C283.809 48.4305 283.76 47.9071 283.779 47.3842C283.341 44.5837 285.03 41.7922 288.353 40.0298C291.718 38.2445 297.132 37.1991 305.474 37.4742C313.239 35.1504 323.397 33.5214 333.187 35.0334C343.271 36.5909 353.089 41.5216 359.21 52.4778C359.93 53.7654 360.522 54.9947 360.974 56.1655C363.361 55.6915 366.197 55.3995 368.858 55.6803C370.787 55.8839 372.854 56.4117 374.595 57.6015C376.427 58.8539 377.743 60.7411 378.165 63.2564L378.2 63.4648L378.205 63.676C378.229 64.7952 378.189 65.8798 378.084 66.9295ZM268.085 72.036C264.396 71.5041 262.563 72.3976 261.66 73.2001C261.281 73.5365 260.987 73.9266 260.764 74.3329C261.675 74.6023 262.585 74.9194 263.473 75.266C265.593 75.9799 268.698 77.0383 271.389 77.9816C271.09 76.6719 270.865 75.4676 270.701 74.4853C269.736 73.6678 268.866 72.8484 268.085 72.036ZM277.798 79.3765C278.036 80.1804 278.302 80.9828 278.6 81.753C282.513 91.8899 291.554 107.357 309.207 122.033C311.207 122.375 313.238 122.701 315.292 123.006C305.77 115.876 299.017 109.011 294.355 102.971C288.268 95.0865 285.607 88.4242 285.223 84.3418C285.179 83.8673 285.25 83.4086 285.414 82.9938C282.577 81.8666 280.046 80.6476 277.798 79.3765ZM298.071 119.906C284.911 107.161 277.395 94.3676 273.588 85.0005C273.505 84.9687 273.417 84.9351 273.323 84.8998C272.439 84.5667 271.206 84.1243 269.82 83.6367C267.053 82.6636 263.743 81.5352 261.538 80.7929L261.469 80.7699L261.402 80.7435C259.748 80.0941 258.157 79.626 256.802 79.4132C255.402 79.1933 254.582 79.2989 254.219 79.4412C254.174 79.4591 254.144 79.4741 254.126 79.4844C254.115 79.5154 254.098 79.5745 254.085 79.6732C254.02 80.1725 254.111 81.2975 254.955 83.335C255.777 85.3187 257.204 87.9136 259.451 91.2376C263.66 97.4623 270.568 105.985 281.217 117.465C281.931 116.661 283.062 116.282 284.17 116.581C288.384 117.717 293.064 118.848 298.071 119.906ZM284.108 122.624C283.969 123.121 283.697 123.588 283.293 123.967C282.115 125.074 280.262 125.016 279.155 123.837C267.154 111.058 259.346 101.535 254.6 94.5174C252.229 91.0102 250.572 88.0548 249.545 85.5754C248.99 84.2347 248.583 82.9475 248.373 81.7292L247.189 81.4983C246.647 81.4747 246.262 81.5715 246.017 81.6978C245.799 81.8098 245.553 82.0096 245.351 82.5084C244.87 83.6986 244.687 86.5726 246.845 92.3177C249.459 99.2749 255.196 109.625 266.102 124.601C282.526 128.884 303.989 133.147 325.75 135.307C348.004 137.516 370.331 137.501 387.853 133.207C392.196 132.142 396.216 130.822 399.851 129.222C408.388 125.464 414.685 120.222 418.174 113.219C419.393 110.772 420.288 108.074 420.812 105.096C420.613 102.602 419.683 101.437 418.672 100.773C417.436 99.96 415.576 99.5735 413.212 99.5915C410.898 99.6091 408.474 100.007 406.374 100.411C405.992 100.484 405.602 100.562 405.223 100.637C404.734 100.734 404.265 100.827 403.856 100.903C402.46 105.185 399.176 109.091 395.003 112.475C390.057 116.486 383.499 120.065 376.131 122.966C361.411 128.761 342.952 132.042 326.541 130.334C320.001 129.654 313.571 128.735 307.442 127.671C298.923 126.191 290.973 124.428 284.108 122.624ZM425.758 109.729C425.409 110.973 424.999 112.179 424.53 113.347C426.428 114.591 428.268 116.091 429.724 117.801C431.756 120.187 433.369 123.401 432.579 127.031C431.799 130.616 428.884 133.606 424.261 136.072C422.325 137.105 420.006 138.093 417.26 139.029C424.569 138.24 430.153 137.115 434.311 135.767C441.021 133.592 443.255 131.099 443.814 129.292C444.164 128.16 444.042 126.765 443.172 124.987C442.292 123.187 440.737 121.204 438.603 119.134C435.158 115.792 430.516 112.523 425.758 109.729ZM404.824 136.304C412.66 134.639 418.005 132.773 421.505 130.906C425.477 128.787 426.609 126.926 426.857 125.786C427.096 124.689 426.718 123.302 425.266 121.597C424.368 120.542 423.183 119.526 421.862 118.61C417.817 125.114 411.72 130 404.342 133.594C404.513 134.51 404.674 135.413 404.824 136.304ZM398.822 135.962C396.74 136.746 394.576 137.45 392.343 138.079C396.584 150.988 397.203 160.936 394.851 168.418C392.25 176.69 386.189 181.433 378.782 183.711C371.505 185.95 362.832 185.862 354.403 184.636C348.525 183.781 342.644 182.353 337.245 180.672C342.95 183.018 349.007 185.053 355.034 186.453C366.227 189.053 376.884 189.361 384.98 185.884C387.83 184.66 390.367 182.966 392.525 180.725C396.823 176.26 399.88 169.337 400.526 158.851C400.805 154.337 400.634 149.182 399.927 143.316C399.805 142.299 399.666 141.261 399.511 140.201C399.309 138.824 399.08 137.411 398.822 135.962ZM341.372 175.797C345.832 177.083 350.554 178.159 355.246 178.841C363.272 180.009 370.963 179.99 377.061 178.115C383.03 176.279 387.358 172.726 389.265 166.662C391.121 160.759 390.825 152.047 386.644 139.495C368.632 143.411 346.634 143.265 325.171 141.134C302.615 138.895 280.41 134.438 263.604 129.999L262.603 129.735L261.99 128.899C251.059 113.98 244.854 103.167 241.764 95.4115C241.699 95.3912 241.626 95.3698 241.545 95.3477C240.994 95.1989 240.28 95.0798 239.46 94.9964C237.823 94.83 236.057 94.835 234.957 94.892L234.937 94.893L234.918 94.8938C234.214 94.9207 233.888 95.1075 233.758 95.2174C233.664 95.2972 233.46 95.5072 233.388 96.1489C233.221 97.6501 233.892 100.743 237.104 105.84C237.979 107.23 239.027 108.742 240.267 110.381C245.39 117.151 253.698 125.944 266.426 136.973C267.425 137.432 268.519 137.91 269.705 138.402C274.766 140.503 281.439 142.833 289.328 144.979C310.478 150.732 340.109 155.095 370.628 150.357C373.818 149.862 377.017 149.268 380.216 148.566C381.795 148.219 383.357 149.218 383.703 150.797C384.05 152.377 383.051 153.938 381.472 154.285C380.696 154.455 379.921 154.619 379.147 154.777C379.58 155.109 379.982 155.439 380.354 155.766C382.172 157.368 383.595 159.213 383.953 161.344C384.349 163.705 383.33 165.651 381.886 167.032C380.523 168.336 378.651 169.297 376.688 170.04C372.722 171.54 367.371 172.522 361.92 173.152C356.605 173.766 351.008 174.067 346.153 174.146C344.542 174.734 342.949 175.284 341.372 175.797ZM357.299 167.73C358.624 167.617 359.946 167.485 361.247 167.335C366.56 166.721 371.336 165.804 374.615 164.563C376.274 163.936 377.302 163.314 377.838 162.802C378.086 162.564 378.159 162.415 378.175 162.374C378.182 162.358 378.186 162.358 378.178 162.312C378.148 162.133 377.9 161.409 376.483 160.16C375.325 159.139 373.592 157.95 371.132 156.598C370.784 157.052 370.299 157.41 369.714 157.6C344.081 165.93 323.098 168.292 307.219 167.815C291.424 167.34 280.499 164.048 275.113 160.863C273.721 160.04 273.26 158.245 274.083 156.853C274.906 155.461 276.702 155 278.094 155.823C282.325 158.325 292.162 161.505 307.395 161.962C317.604 162.269 330.158 161.349 344.928 158.225C323.361 158.35 303.456 154.873 287.996 150.685C275.224 149.125 264.449 147.394 255.408 145.544C266.117 160.032 287.749 180.267 322.738 174.4C325.343 173.963 328.015 173.414 330.754 172.743C335.193 171.655 339.808 170.248 344.598 168.479C347.402 167.444 350.265 166.286 353.189 164.995C354.668 164.342 356.397 165.012 357.05 166.491C357.228 166.894 357.308 167.316 357.299 167.73ZM255.874 135.417C247.678 127.905 241.6 121.46 237.228 116.006C235.887 116.954 234.716 118.063 233.929 119.228C232.818 120.87 232.58 122.392 233.319 123.965C234.169 125.774 236.58 128.254 242.341 130.876C245.746 132.425 250.183 133.961 255.874 135.417ZM233.713 111.32C233.467 110.966 233.229 110.616 232.999 110.271C232.144 110.528 230.998 111.002 229.672 111.628C227.669 112.573 225.578 113.705 223.855 114.637C223.27 114.954 222.727 115.248 222.245 115.503C219.098 117.854 217.759 120.121 217.811 121.957C217.856 123.544 218.985 126.069 223.96 129.12C227.015 130.994 231.3 132.92 237.118 134.823C232.481 132.326 229.47 129.544 228.019 126.455C226.182 122.546 227.134 118.823 229.078 115.948C230.303 114.136 231.958 112.58 233.713 111.32ZM235.68 140.512C229.354 138.467 224.502 136.322 220.898 134.111C217.215 131.852 214.58 129.355 213.162 126.631C211.108 128.054 209.194 129.597 207.723 131.16C205.348 133.683 204.886 135.422 205.181 136.469C205.528 137.7 207.052 139.712 212.361 141.612C215.168 142.616 219.273 142.965 225.092 143.048C226.224 143.065 227.628 142.832 229.374 142.385C230.766 142.028 232.232 141.575 233.838 141.078C234.246 140.952 234.663 140.823 235.09 140.692C235.285 140.633 235.481 140.573 235.68 140.512ZM246.776 144.084C243.548 144.32 240.211 145.247 236.805 146.291C236.418 146.41 236.028 146.53 235.636 146.651C234.016 147.153 232.373 147.661 230.828 148.057C229.569 148.379 228.278 148.655 227.002 148.798C226.979 148.966 226.973 149.141 226.986 149.321C227.03 149.938 227.316 150.869 228.401 152.016C230.547 154.285 235.569 157.111 246.153 159.168C246.825 157.341 247.293 154.712 247.405 151.758C247.517 148.816 247.258 146.059 246.776 144.084ZM240.622 163.947C232.247 161.876 227.063 159.123 224.147 156.04C222.278 154.064 221.3 151.902 221.145 149.74C221.123 149.42 221.118 149.105 221.13 148.797C218.125 148.665 215.382 148.4 212.978 147.863C212.836 148.742 212.902 149.913 213.413 151.431C214.364 154.249 216.833 158.115 222.09 162.859C229.604 164.691 234.942 164.97 238.646 164.382C239.37 164.267 240.027 164.12 240.622 163.947ZM231.924 170.41C239.728 175.648 250.431 181.502 264.921 187.836C267.801 188.46 270.8 189.068 273.922 189.655C277.311 190.293 280.844 190.908 284.527 191.497C285.041 191.579 285.502 191.791 285.882 192.092C305.251 195.881 327.965 199.569 343.895 200.459C348.724 200.728 352.832 200.734 355.988 200.432C357.565 200.281 358.834 200.059 359.801 199.785C360.607 199.556 361.077 199.325 361.326 199.163C361.26 199.013 361.138 198.782 360.911 198.464C359.88 197.014 357.521 194.891 353.198 192.037C342.344 189.456 331.546 184.989 322.717 180.335C287.798 185.775 265.3 167.194 253.243 152.302C253.051 156.488 252.198 161.129 250.212 164.078C248.08 167.243 244.54 169.375 239.564 170.165C237.34 170.518 234.804 170.61 231.924 170.41ZM364.849 194.012C365.158 194.37 365.436 194.723 365.683 195.07C366.563 196.307 367.261 197.768 367.257 199.375C367.253 201.132 366.418 202.542 365.249 203.53C364.166 204.446 362.786 205.024 361.399 205.418C359.979 205.821 358.334 206.09 356.546 206.261C352.969 206.603 348.53 206.582 343.569 206.305C323.76 205.199 294.062 199.915 272.805 195.404C269.541 194.789 266.405 194.152 263.392 193.496C231.115 186.462 212.762 177.103 203.166 167.772C194.238 159.089 192.751 150.195 195.263 143.646C192.368 146.53 190.076 150.128 189.055 154.079C187.855 158.72 188.351 164.033 191.999 169.627C197.746 178.441 211.492 188.173 239.327 196.177C246.333 198.191 254.208 200.089 263.039 201.833C271.863 203.576 281.637 205.164 292.447 206.561C313.187 208.203 341.119 209.549 362.549 208.772C367.042 208.609 371.232 208.354 374.996 207.991C379.084 207.596 382.625 207.079 385.49 206.431C388.158 205.828 390.383 203.9 391.701 201.641C392.353 200.525 392.716 199.436 392.825 198.548C392.938 197.631 392.76 197.161 392.655 196.996C391.913 195.841 389.936 194.096 385.933 191.812C379.563 194.214 372.293 194.714 364.849 194.012ZM392.045 188.702C393.811 189.89 395.257 191.068 396.346 192.252C398.129 191.962 399.86 191.668 401.539 191.371C400.594 191.076 399.821 190.309 399.566 189.277C399.178 187.708 400.135 186.12 401.705 185.732C402.632 185.503 403.538 185.273 404.424 185.044C401.817 185.307 398.977 185.507 395.888 185.637C394.683 186.785 393.398 187.804 392.045 188.702ZM400.779 179.487C408.321 178.914 413.75 177.861 417.548 176.551C422.383 174.882 424.047 172.99 424.549 171.683C425.031 170.429 424.798 168.764 423.425 166.612C422.239 164.753 420.413 162.894 418.387 161.287C414.674 161.614 410.604 161.83 406.148 161.92C405.413 169.005 403.571 174.824 400.779 179.487ZM406.496 156.056C411.101 155.952 415.249 155.711 418.978 155.352C423.929 154.876 428.127 154.194 431.666 153.362C434.073 152.797 436.167 152.163 437.979 151.482C446.551 148.262 448.495 144.193 448.525 141.078C448.543 139.212 447.899 137.236 446.815 135.356C444.47 137.842 440.836 139.807 436.116 141.337C429.311 143.543 419.54 145.084 406.077 145.754C406.419 149.425 406.554 152.855 406.496 156.056ZM425.996 160.393C426.875 161.365 427.679 162.393 428.361 163.462C430.209 166.358 431.449 170.05 430.015 173.783C429.584 174.905 428.946 175.938 428.111 176.886C428.554 176.669 428.981 176.453 429.394 176.238C435.359 173.129 437.828 170.402 438.646 168.451C439.34 166.795 439.018 165.25 437.671 163.564C436.398 161.971 434.344 160.484 431.988 159.294C430.132 159.703 428.137 160.071 425.996 160.393ZM441.119 158.644C441.519 159.05 441.896 159.471 442.245 159.909C444.541 162.782 445.783 166.569 444.046 170.714C442.433 174.564 438.476 178.107 432.101 181.43C426.463 184.369 418.604 187.306 407.949 190.169C420.42 187.696 429.669 185.008 436.362 182.259C445.372 178.557 449.188 174.971 450.431 172.2C451.51 169.792 450.917 167.272 448.49 164.446C446.689 162.351 444.076 160.365 441.119 158.644ZM445.459 154.426C448.292 156.207 450.923 158.293 452.931 160.631C456.169 164.4 458.138 169.323 455.773 174.596C453.572 179.504 447.936 183.834 438.587 187.675C429.62 191.359 416.71 194.804 398.714 197.796C398.724 198.293 398.696 198.785 398.637 199.262C398.415 201.064 397.743 202.907 396.758 204.593C396.577 204.905 396.382 205.215 396.174 205.521C423.478 202.932 441.816 198.324 453.576 192.767C461.962 188.803 466.779 184.463 469.24 180.25C471.655 176.115 471.963 171.827 470.781 167.504C468.642 159.687 461.619 151.848 453.436 145.964C452.155 149.156 449.547 152.039 445.459 154.426ZM388.787 212.028C414.083 210.103 432.844 206.56 446.406 201.936C437.316 210.924 418.976 219.632 388.787 212.028ZM200.394 140.988C201.508 141.836 201.883 143.389 201.212 144.672C199.204 148.518 198.932 155.486 207.249 163.574C212.596 168.775 221.416 174.313 235.265 179.439C228.257 175.265 222.852 171.346 218.745 167.722C212.695 162.385 209.294 157.541 207.865 153.301C206.948 150.581 206.839 148.06 207.413 145.904C204.481 144.521 202.249 142.844 200.856 140.824C200.727 140.87 200.594 140.917 200.458 140.965C200.437 140.973 200.415 140.981 200.394 140.988ZM189.341 175.887C188.033 177.605 187.042 179.413 186.555 181.16C185.859 183.657 186.174 185.978 188.141 188.117C190.28 190.442 194.65 192.852 202.824 194.455C207.654 195.403 213.687 196.045 221.147 196.259C205.384 190.097 195.251 183.114 189.341 175.887ZM277.257 210.298C284.763 214.035 294.009 217.46 304.245 219.319C318.356 221.881 334.263 221.458 350.107 214.853C330.795 214.898 308.9 213.739 291.912 212.392L291.84 212.387L291.769 212.378C286.716 211.725 281.881 211.031 277.257 210.298ZM364.365 108.484C365.277 107.842 366.136 107.175 366.942 106.488C358.893 111.842 344.451 116.069 322.459 112.486C339.196 117.442 351.418 115.451 359.918 111.152C361.487 110.358 362.938 109.481 364.274 108.547C364.304 108.526 364.334 108.505 364.365 108.484ZM268.496 64.0449C268.492 64.0427 268.506 64.0207 268.553 63.9857C268.523 64.0297 268.5 64.0472 268.496 64.0449ZM289.577 46.617C289.573 46.6161 289.57 46.5926 289.578 46.5493C289.585 46.5962 289.58 46.6179 289.577 46.617Z" fill="#FFEDBA"/>
<path d="M282.797 49.5941C276.855 37.1159 299.137 33.0061 311.021 32.5109C346.672 28.3515 359.052 45.1376 360.786 54.0506C380.989 53.4564 381.088 61.7256 378.612 65.9345C395.844 71.2823 403.123 86.4838 404.608 93.4161C430.159 92.8219 433.576 103.072 432.09 108.271C429.524 104.239 423.675 103.397 412.032 103.815C409.061 103.815 412.912 119.426 410.546 122.383C407.575 126.097 402.376 124.611 400.793 121.64C399.252 118.75 404.514 104.706 400.793 103.815C385.293 100.101 382.121 106.35 380.841 108.271C377.87 112.728 376.384 139.466 378.612 146.151C380.395 151.499 379.355 155.312 378.612 156.55C377.622 159.521 374.007 164.72 367.471 161.749C360.935 158.778 361.282 150.112 362.272 146.151C363.757 140.457 363.906 124.909 352.616 108.271C341.326 91.6336 322.164 101.339 313.993 108.271C313.003 113.47 311.32 124.909 312.508 129.068C313.993 134.267 318.45 148.379 311.022 161.749C303.595 175.118 292.764 169.126 288.74 161.749C284.284 153.579 288.74 111.985 285.769 108.271C283.392 105.3 281.808 109.509 281.313 111.985C280.817 117.679 280.124 130.405 281.313 135.753C282.501 141.1 281.808 143.923 281.313 144.666C280.075 146.151 276.41 148.231 271.657 144.666C265.715 140.209 270.171 129.068 270.171 111.985C270.171 94.9016 255.316 100.844 252.345 103.815C249.969 106.191 251.355 121.641 252.345 129.068C251.355 130.058 249.077 131.445 247.889 129.068C246.404 126.097 249.374 111.985 245.661 103.815C242.69 97.2784 241.945 91.9306 239.716 94.9016C240.459 111.737 244.264 122.383 232.287 122.383C224.116 122.383 224.12 114.213 227.834 103.815C220.704 90.7423 230.805 87.9693 236.747 88.2169C236.747 76.333 245.165 74.3523 249.374 74.8475C248.779 70.0939 257.544 66.9248 262 65.9345C259.029 58.8041 268.19 57.0216 273.141 57.0216C270.17 47.5144 278.34 48.1086 282.797 49.5941Z" fill="#FC6E41"/>
<path d="M303.59 58.5067C299.431 55.5357 296.905 59.7446 296.163 62.2205C294.677 62.9632 297.648 70.3906 299.876 71.1334C302.105 71.8761 305.076 66.6769 306.561 66.6769C308.046 66.6769 308.789 62.2205 303.59 58.5067Z" fill="#CB6849"/>
<path d="M331.461 78.0415C326.528 79.3812 328.188 84.0003 329.635 86.1424C329.27 87.7626 336.9 90.1636 338.886 88.9086C340.871 87.6536 338.726 82.0627 339.667 80.9126C340.607 79.7626 337.627 76.3668 331.461 78.0415Z" fill="#CB6849"/>
<path d="M373.212 84.5835C368.279 85.9232 369.939 90.5423 371.386 92.6844C371.021 94.3046 378.652 96.7056 380.637 95.4506C382.622 94.1956 380.478 88.6047 381.418 87.4546C382.358 86.3045 379.378 82.9088 373.212 84.5835Z" fill="#CB6849"/>
<path d="M310.822 35.562C305.889 36.9017 307.549 41.5208 308.996 43.6629C308.63 45.2831 316.261 47.6841 318.246 46.4291C320.232 45.1741 318.087 39.5832 319.027 38.4331C319.968 37.2831 316.988 33.8873 310.822 35.562Z" fill="#CB6849"/>
<path d="M351.527 46.1596C347.367 43.1886 344.842 47.3975 344.099 49.8733C342.614 50.6161 345.585 58.0435 347.813 58.7862C350.041 59.529 353.012 54.3297 354.498 54.3297C355.983 54.3297 356.726 49.8733 351.527 46.1596Z" fill="#CB6849"/>
<path d="M281.498 87.9354C283.275 83.1428 278.552 81.8086 275.968 81.7405C274.862 80.5015 268.472 85.3149 268.339 87.6599C268.206 90.0049 274.002 91.5097 274.392 92.9433C274.781 94.3769 279.276 93.926 281.498 87.9354Z" fill="#CB6849"/>
<rect x="277.284" y="59.8857" width="2.97099" height="4.45648" transform="rotate(-37.8085 277.284 59.8857)" fill="#557D43"/>
<rect x="296.934" y="40.959" width="2.97099" height="4.45648" transform="rotate(60.3431 296.934 40.959)" fill="#557D43"/>
<rect x="304.956" y="55.5376" width="2.97099" height="4.45648" transform="rotate(-62.7692 304.956 55.5376)" fill="#557D43"/>
<rect x="322.67" y="46.9463" width="2.97099" height="4.45648" transform="rotate(4.94918 322.67 46.9463)" fill="#557D43"/>
<path d="M342.057 40.9243L344.765 39.7019L346.598 43.7637L343.891 44.9861L342.057 40.9243Z" fill="#557D43"/>
<path d="M335.484 61.916L338.192 60.6936L340.026 64.7555L337.318 65.9778L335.484 61.916Z" fill="#557D43"/>
<path d="M358.193 182.073C359.395 183.909 361.688 182.689 362.684 181.85C362.684 181.85 364.768 180.458 365.191 181.898C365.614 183.338 367.698 181.945 367.698 181.945C369.162 181.831 369.307 180.824 369.307 180.27C371.226 180.402 371.113 178.532 370.816 177.581C373.001 177.193 372.733 175.072 372.326 174.06C373.034 171.507 370.721 170.418 369.369 170.337C370.116 168.522 367.852 167.791 366.734 167.508C366.023 165.225 363.232 166.184 361.925 166.949C359.007 166.014 357.373 168.311 356.921 169.577C353.716 169.456 353.549 172.098 353.867 173.433C352.026 176.107 353.759 177.68 354.855 178.132C354.351 181.718 356.87 182.253 358.193 182.073Z" fill="#6C8C53"/>
<path d="M367.596 184.024C368.798 185.86 370.974 185.155 372.087 183.801C372.087 183.801 372.667 186.722 376.014 183.743C377.819 184.849 378.709 182.776 378.71 182.222C380.629 182.353 380.516 180.483 380.219 179.532C382.404 179.144 382.136 177.023 381.729 176.012C382.437 173.458 380.124 172.369 378.771 172.289C379.519 170.473 377.255 169.742 376.137 169.46C375.425 167.177 372.634 168.136 371.328 168.901C368.41 167.966 366.776 170.263 366.323 171.528C363.119 171.408 362.952 174.049 363.269 175.385C361.429 178.059 363.162 179.632 364.258 180.084C363.754 183.669 366.273 184.205 367.596 184.024Z" fill="#77985D"/>
<path d="M354.606 191.177C356.575 192.145 358.016 190.394 358.229 188.635C358.229 188.635 360.253 190.871 361.469 186.53C363.556 186.547 363.204 184.279 362.912 183.797C364.58 182.908 363.499 181.342 362.75 180.67C364.365 179.19 363.023 177.487 362.151 176.82C361.393 174.23 358.892 174.493 357.723 175.13C357.388 173.161 355.116 173.71 354.036 174.049C352.239 172.437 350.42 174.73 349.736 176.079C346.812 176.792 346.663 179.643 346.953 180.98C344.221 182.551 345.475 184.935 346.444 185.93C346.322 189.217 348.595 189.678 349.747 189.497C351.218 192.878 353.599 192.026 354.606 191.177Z" fill="#77985D"/>
<path d="M367.418 201.655L364.137 191.222L358.149 185.936L358.45 185.104L365.019 188.201L364.526 182.149L365.295 181.851L367.783 188.199L371.588 179.592L372.53 179.691L370.393 188.627L374.073 198.833C372.187 204.744 368.85 203.178 367.418 201.655Z" fill="#E3F3D7"/>
<path d="M213.965 161.195C216.248 163.473 219.21 160.896 220.405 159.323C220.405 159.323 223.014 156.565 224.051 158.531C225.089 160.497 227.697 157.738 227.697 157.738C229.786 157.066 229.698 155.541 229.535 154.729C232.354 154.261 231.638 151.559 230.928 150.266C233.979 148.946 232.965 145.929 232.077 144.585C232.349 140.598 228.677 139.797 226.694 140.144C227.241 137.225 223.746 136.933 222.043 136.903C220.339 133.801 216.578 136.167 214.911 137.738C210.408 137.371 208.718 141.301 208.435 143.312C203.757 144.238 204.295 148.168 205.148 150.017C203.27 154.571 206.245 156.28 207.967 156.566C208.294 161.997 212.101 161.915 213.965 161.195Z" fill="#6C8C53"/>
<path d="M228.163 160.822C230.446 163.1 233.391 161.318 234.604 158.95C234.604 158.95 236.305 163.033 240.275 157.514C243.217 158.513 243.896 155.167 243.733 154.355C246.552 153.887 245.836 151.185 245.126 149.892C248.177 148.572 247.163 145.555 246.275 144.212C246.547 140.224 242.875 139.424 240.892 139.771C241.44 136.852 237.944 136.559 236.241 136.529C234.537 133.427 230.776 135.793 229.109 137.365C224.606 136.997 222.916 140.927 222.634 142.938C217.955 143.864 218.493 147.794 219.347 149.643C217.469 154.197 220.443 155.907 222.165 156.193C222.492 161.623 226.3 161.541 228.163 160.822Z" fill="#77985D"/>
<path d="M211.453 175.778C214.591 176.519 216.163 173.456 215.952 170.804C215.952 170.804 219.544 173.386 220.025 166.604C223.054 165.91 221.875 162.706 221.31 162.1C223.463 160.223 221.436 158.298 220.153 157.571C222.056 154.846 219.61 152.81 218.148 152.132C216.286 148.596 212.741 149.843 211.235 151.179C210.169 148.407 207.04 149.993 205.575 150.862C202.496 149.116 200.538 153.104 199.943 155.317C195.918 157.368 196.543 161.601 197.358 163.46C193.862 166.704 196.383 169.767 198.08 170.893C198.873 175.754 202.302 175.648 203.918 174.987C207.047 179.438 210.245 177.369 211.453 175.778Z" fill="#77985D"/>
<path d="M233.106 186.732L225.274 172.564L215.041 166.875L215.23 165.551L225.661 167.831L223.163 159.129L224.189 158.427L229.666 166.878L232.639 152.95L234.034 152.771L233.573 166.608L241.915 180.305C240.926 189.62 235.63 188.471 233.106 186.732Z" fill="#E3F3D7"/>
<path d="M452.929 170.896C452.047 173.998 455.739 175.335 457.695 175.616C457.695 175.616 461.373 176.555 460.159 178.417C458.945 180.279 462.623 181.219 462.623 181.219C464.225 182.717 465.516 181.899 466.147 181.363C467.925 183.599 469.939 181.66 470.724 180.412C473.36 182.436 475.504 180.085 476.247 178.656C479.864 176.956 478.78 173.358 477.513 171.793C480.33 170.853 478.887 167.656 478.086 166.153C479.969 163.156 476.074 161.019 473.891 160.325C472.023 156.211 467.767 156.643 465.873 157.374C462.79 153.735 459.617 156.114 458.415 157.759C453.523 158.33 453.474 161.761 454.061 163.405C449.473 166.329 451.395 169.617 452.929 170.896Z" fill="#6C8C53"/>
<path d="M460.155 183.124C459.273 186.226 462.261 187.935 464.92 187.844C464.92 187.844 462.178 191.315 468.931 192.103C469.487 195.16 472.741 194.128 473.372 193.591C475.15 195.827 477.164 193.889 477.949 192.64C480.585 194.665 482.73 192.313 483.473 190.884C487.09 189.184 486.005 185.586 484.739 184.021C487.556 183.081 486.113 179.884 485.311 178.381C487.195 175.384 483.299 173.247 481.116 172.553C479.249 168.439 474.993 168.872 473.098 169.602C470.016 165.963 466.842 168.342 465.641 169.987C460.748 170.558 460.699 173.989 461.286 175.633C456.698 178.557 458.62 181.845 460.155 183.124Z" fill="#77985D"/>
<path d="M438.963 175.786C439.841 178.889 443.281 178.774 445.497 177.301C445.497 177.301 444.985 181.695 451.147 178.821C453.225 181.131 455.452 178.544 455.707 177.756C458.395 178.725 459.091 176.018 459.104 174.543C462.41 174.883 463.001 171.755 462.883 170.149C465.069 166.803 462.257 164.31 460.358 163.644C462.262 161.365 459.355 159.401 457.884 158.542C457.914 155.003 453.476 155.229 451.254 155.785C447.505 153.263 444.11 155.866 442.881 157.482C438.347 156.003 436.895 159.694 436.735 161.725C432.871 164.78 434.631 167.725 435.993 168.816C433.623 173.713 436.985 175.503 438.963 175.786Z" fill="#77985D"/>
<path d="M439.91 200.034L448.488 186.305V174.596L449.737 174.118L452.813 184.343L459.205 177.931L460.316 178.487L455.592 187.38L469.21 183.212L470.043 184.343L457.726 190.663L449.808 204.611C441.186 208.272 439.617 203.085 439.91 200.034Z" fill="#E3F3D7"/>
<path d="M317.737 34.4683C317.65 33.9569 317.583 33.4141 317.533 32.872C312.082 29.4369 317.417 17.057 318.688 12.0476L317.469 27.7918C318.826 15.0864 336.982 14.3069 346.137 15.5614C338.722 33.5679 328.428 38.1583 324.208 38.2027C322.194 37.8059 318.082 36.5035 317.737 34.4683Z" fill="#559658"/>
<path d="M317.333 29.6584C316.989 17.9562 300.891 17.2247 292.886 18.3217C299.193 33.6375 307.949 37.542 311.538 37.5797C313.251 37.2422 316.749 36.1345 317.043 34.4034C317.091 34.1168 317.132 33.8187 317.167 33.5167C317.342 31.9947 317.354 30.3763 317.333 29.6584Z" fill="#559658"/>
<path d="M339.441 18.4883C329.709 18.4883 320.596 28.03 317.257 32.8009C314.155 28.7456 306.665 20.7783 301.513 21.3508" stroke="#38793B" stroke-width="0.899906"/>
</g>
<path d="M624.042 135.149L624.437 156.206C624.478 158.378 625.225 160.477 626.564 162.187L631.295 168.223C632.356 169.577 632.636 171.378 632.12 173.019C629.224 182.218 625.927 198.565 631 206.899C635.302 213.966 640.468 212.438 643.917 209.612C645.79 208.078 646.391 205.569 646.192 203.156L643.855 174.715C643.628 171.961 644.552 169.236 646.406 167.187L650.261 162.926C652.054 160.944 653.313 158.523 653.657 155.873C654.426 149.948 654.885 140.755 653 132.899C650.6 122.899 645.987 129.052 646.5 132.899C647.167 137.899 648.1 148.599 646.5 151.399C644.9 154.199 642.167 152.565 641 151.399C640 148.552 641 145.052 641 132.899C641 120.492 634.5 127.565 635 132.899C635 141.052 635.5 148.052 635 151.399C634.724 153.249 632.96 153.294 630.982 151.869C629.948 151.124 629.5 149.835 629.5 148.561C629.497 141.493 629.461 142.718 629 132.899C628.675 125.967 626.414 128.61 625.046 130.908C624.289 132.182 624.014 133.667 624.042 135.149Z" fill="white"/>
<path d="M2.53907 150.553L7.47953 157.963C9.11036 160.41 9.56646 163.439 8.85837 166.292C5.60861 179.388 2.34495 200.3 7.68286 207.417C12.0962 213.301 16.9603 212.333 20.2855 210.082C22.3882 208.659 23.0728 206.008 22.8751 203.477L19.9192 165.634C19.6859 162.648 20.8483 159.752 22.8488 157.523C30.4605 149.04 33.3001 140.358 27.6829 129.417C17.4064 109.401 5.66209 123.301 2.68269 129.417C0.140089 134.637 -1.34582 141.346 1.7109 149.008C1.92795 149.552 2.21417 150.065 2.53907 150.553Z" fill="white"/>
<defs>
<filter id="filter0_d_259_1062" x="124.556" y="103.69" width="405.662" height="157.848" filterUnits="userSpaceOnUse" color-interpolation-filters="sRGB">
<feFlood flood-opacity="0" result="BackgroundImageFix"/>
<feColorMatrix in="SourceAlpha" type="matrix" values="0 0 0 0 0 0 0 0 0 0 0 0 0 0 0 0 0 0 127 0" result="hardAlpha"/>
<feOffset dy="3.59962"/>
<feGaussianBlur stdDeviation="1.79981"/>
<feComposite in2="hardAlpha" operator="out"/>
<feColorMatrix type="matrix" values="0 0 0 0 0 0 0 0 0 0 0 0 0 0 0 0 0 0 0.25 0"/>
<feBlend mode="normal" in2="BackgroundImageFix" result="effect1_dropShadow_259_1062"/>
<feBlend mode="normal" in="SourceGraphic" in2="effect1_dropShadow_259_1062" result="shape"/>
</filter>
<filter id="filter1_d_259_1062" x="175.867" y="12.0479" width="315.034" height="223.582" filterUnits="userSpaceOnUse" color-interpolation-filters="sRGB">
<feFlood flood-opacity="0" result="BackgroundImageFix"/>
<feColorMatrix in="SourceAlpha" type="matrix" values="0 0 0 0 0 0 0 0 0 0 0 0 0 0 0 0 0 0 127 0" result="hardAlpha"/>
<feOffset dy="4.49953"/>
<feGaussianBlur stdDeviation="2.24977"/>
<feComposite in2="hardAlpha" operator="out"/>
<feColorMatrix type="matrix" values="0 0 0 0 0 0 0 0 0 0 0 0 0 0 0 0 0 0 0.25 0"/>
<feBlend mode="normal" in2="BackgroundImageFix" result="effect1_dropShadow_259_1062"/>
<feBlend mode="normal" in="SourceGraphic" in2="effect1_dropShadow_259_1062" result="shape"/>
</filter>
</defs>
</svg>
